<svg xmlns="http://www.w3.org/2000/svg" xmlns:xlink="http://www.w3.org/1999/xlink" width="326.398" height="251.558" viewBox="0 0 326.398 251.558">
  <defs>
    <style>
      .cls-1, .cls-2 {
        fill: #707070;
      }

      .cls-1 {
        opacity: 0.18;
        isolation: isolate;
      }

      .cls-3 {
        fill: url(#linear-gradient);
      }

      .cls-4 {
        fill: url(#linear-gradient-2);
      }

      .cls-5 {
        fill: url(#linear-gradient-3);
      }

      .cls-16, .cls-6 {
        fill: #fff;
      }

      .cls-7 {
        fill: none;
        stroke: #707070;
        stroke-miterlimit: 10;
        stroke-width: 0.46px;
      }

      .cls-8 {
        fill: url(#linear-gradient-4);
      }

      .cls-9 {
        fill: url(#linear-gradient-5);
      }

      .cls-10 {
        fill: url(#linear-gradient-6);
      }

      .cls-11 {
        fill: url(#linear-gradient-7);
      }

      .cls-12 {
        fill: #473f47;
      }

      .cls-13 {
        fill: #020202;
        opacity: 0.1;
      }

      .cls-14 {
        fill: #fdbaac;
      }

      .cls-15 {
        fill: #dea095;
      }

      .cls-16 {
        opacity: 0.41;
      }

      .cls-17 {
        fill: #00a2e9;
      }

      .cls-18 {
        fill: url(#linear-gradient-8);
      }

      .cls-19 {
        fill: #ffbbab;
      }

      .cls-20 {
        fill: url(#linear-gradient-9);
      }

      .cls-21 {
        fill: url(#linear-gradient-10);
      }

      .cls-22 {
        fill: url(#linear-gradient-11);
      }

      .cls-23 {
        fill: #212741;
      }

      .cls-24 {
        fill: url(#linear-gradient-12);
      }

      .cls-25 {
        fill: url(#linear-gradient-13);
      }

      .cls-26 {
        fill: #4c4c4c;
      }

      .cls-27 {
        fill: url(#linear-gradient-14);
      }
    </style>
    <linearGradient id="linear-gradient" x1="-21.565" y1="-0.043" x2="-23.023" y2="1.543" gradientUnits="objectBoundingBox">
      <stop offset="0.01"/>
      <stop offset="0.13" stop-opacity="0.69"/>
      <stop offset="0.25" stop-opacity="0.322"/>
      <stop offset="1" stop-opacity="0"/>
    </linearGradient>
    <linearGradient id="linear-gradient-2" x1="-1.693" y1="1.201" x2="2.935" y2="-0.277" xlink:href="#linear-gradient"/>
    <linearGradient id="linear-gradient-3" x1="0.466" y1="-3.053" x2="0.59" y2="9.744" gradientUnits="objectBoundingBox">
      <stop offset="0.01"/>
      <stop offset="0.08" stop-opacity="0.69"/>
      <stop offset="0.21" stop-opacity="0.322"/>
      <stop offset="1" stop-opacity="0"/>
    </linearGradient>
    <linearGradient id="linear-gradient-4" x1="195.877" y1="354.237" x2="195.872" y2="362.001" gradientUnits="objectBoundingBox">
      <stop offset="0" stop-color="#fff"/>
      <stop offset="1" stop-color="#cbcbcb"/>
    </linearGradient>
    <linearGradient id="linear-gradient-5" x1="900.95" y1="137.661" x2="901.112" y2="140.035" xlink:href="#linear-gradient-4"/>
    <linearGradient id="linear-gradient-6" x1="-2.865" y1="0.383" x2="12.285" y2="0.909" xlink:href="#linear-gradient"/>
    <linearGradient id="linear-gradient-7" x1="0.165" y1="-1.453" x2="0.855" y2="2.471" xlink:href="#linear-gradient-3"/>
    <linearGradient id="linear-gradient-8" x1="0.826" y1="2.364" x2="0.093" y2="-2.117" xlink:href="#linear-gradient-3"/>
    <linearGradient id="linear-gradient-9" x1="41.076" y1="1.132" x2="44.62" y2="2.071" xlink:href="#linear-gradient-3"/>
    <linearGradient id="linear-gradient-10" x1="155.672" y1="1.077" x2="148.729" y2="1.818" xlink:href="#linear-gradient-3"/>
    <linearGradient id="linear-gradient-11" x1="64.952" y1="-0.18" x2="63.795" y2="1.92" xlink:href="#linear-gradient-3"/>
    <linearGradient id="linear-gradient-12" x1="182.91" y1="1.544" x2="188.708" y2="1.708" xlink:href="#linear-gradient-3"/>
    <linearGradient id="linear-gradient-13" x1="44.344" y1="0.138" x2="41.52" y2="1.074" xlink:href="#linear-gradient-3"/>
    <linearGradient id="linear-gradient-14" x1="-1.067" y1="-0.235" x2="7.789" y2="4.715" xlink:href="#linear-gradient"/>
  </defs>
  <g id="training2" transform="translate(794.874 -3998)">
    <path id="Path_533" data-name="Path 533" class="cls-1" d="M156.822,34.831a109.962,109.962,0,0,0-22.1-5.979c-28.173-4.454-59.009,3.8-78.23,24.835C45.866,65.325,39.234,80.036,33.863,94.857c-11.528,31.776-18.126,64.657-18.093,98.367a75.688,75.688,0,0,0,21.685,52.544c19.408,19.563,48.111,26.924,75.621,28.372s55.108-2.155,82.617-.674c26.029,1.4,51.947,7.361,77.931,5.372s53.527-14.214,63.806-38.175c11.141-26,1.923-71.488-20.226-89.039-24.99-19.795-56.2-30.295-80.153-51.449C226.53,90.9,217.9,79.7,208.128,69.646,193.616,54.736,176.142,42.225,156.822,34.831Z" transform="translate(-810.643 3970.319)"/>
    <path id="Path_534" data-name="Path 534" class="cls-2" d="M107.39,130.7c.077,2.84,1.481,5.449,2.885,7.925,6.344,11.218,13.473,22.271,23.31,30.6C148.052,181.464,167,186.747,185.3,191.688c-1.636-.8-3.6-9.229-4.333-11.052-1.415-3.625-2.741-7.295-4.1-10.942-2.144-5.769-6.631-10.411-11.052-14.656a87.547,87.547,0,0,0-35.268-20.69A83.016,83.016,0,0,0,107.39,130.7Z" transform="translate(-801 3981.161)"/>
    <path id="Path_535" data-name="Path 535" class="cls-3" d="M107.39,130.7c.077,2.84,1.481,5.449,2.885,7.925,6.344,11.218,13.473,22.271,23.31,30.6C148.052,181.464,167,186.747,185.3,191.688c-1.636-.8-3.6-9.229-4.333-11.052-1.415-3.625-2.741-7.295-4.1-10.942-2.144-5.769-6.631-10.411-11.052-14.656a87.547,87.547,0,0,0-35.268-20.69A83.016,83.016,0,0,0,107.39,130.7Z" transform="translate(-801 3981.161)"/>
    <path id="Path_536" data-name="Path 536" class="cls-2" d="M174.983,141.408c-1.492-10.434-3.028-21-7.228-30.693s-11.484-18.48-21.364-22.1q-.431,22.437-.873,44.851c-.166,8.643-.309,17.441,2.21,25.719,4.355,14.5,19.43,31.522,33.964,36.318,2.211-6.974-1.459-17.529-2.487-24.758Z" transform="translate(-796.996 3976.732)"/>
    <path id="Path_537" data-name="Path 537" class="cls-4" d="M174.983,141.408c-1.492-10.434-3.028-21-7.228-30.693s-11.484-18.48-21.364-22.1q-.431,22.437-.873,44.851c-.166,8.643-.309,17.441,2.21,25.719,4.355,14.5,19.43,31.522,33.964,36.318,2.211-6.974-1.459-17.529-2.487-24.758Z" transform="translate(-796.996 3976.732)"/>
    <path id="Path_538" data-name="Path 538" class="cls-5" d="M262.2,224.063c-61.684,7.914-124.186,1.835-186.378,2.012-4.5,0-10.666,1.868-9.947,6.311,36.175,8.544,73.676,9.218,110.834,9.837l67.63,1.105c15.473.254,30.947.519,46.365-.365,5.758-.321,11.649-.84,16.822-3.371,14.567-7.129,7.35-16.49-5.206-18.071C288.981,219.9,275.4,222.372,262.2,224.063Z" transform="translate(-805.376 3990.664)"/>
    <path id="Path_539" data-name="Path 539" class="cls-2" d="M162.05,69.192v167.4c0,7.239,6.421,13.1,14.368,13.075l76.55-.122c7.9,0,14.368-5.88,14.368-13.119V69.026c0-7.239-6.41-13.1-14.368-13.086l-76.6.122C168.471,56.073,162.05,61.953,162.05,69.192Zm7.306.111c0-4.421,3.957-8.079,8.842-8.09h10.787v.995a5.4,5.4,0,0,0,5.648,5.15l41.137-.066a5.438,5.438,0,0,0,5.659-5.173v-.995H252.57c4.874,0,8.842,3.6,8.842,8.057V236.073c0,4.421-3.957,8.079-8.842,8.09l-74.372.111c-4.874,0-8.842-3.6-8.842-8.057Z" transform="translate(-795.248 3973.293)"/>
    <path id="Path_540" data-name="Path 540" class="cls-6" d="M158.79,72.257V239.713c0,7.228,6.421,13.086,14.368,13.075l76.538-.122c7.9,0,14.368-5.891,14.368-13.13V72.135c0-7.228-6.421-13.1-14.368-13.075l-76.538.111C165.212,59.193,158.79,65.073,158.79,72.257Zm7.306.122c0-4.421,3.957-8.079,8.842-8.09h10.787v.995a5.427,5.427,0,0,0,5.659,5.162l41.137-.066a5.438,5.438,0,0,0,5.648-5.173V64.21H249.31c4.874,0,8.842,3.6,8.842,8.068V239.171c0,4.421-3.957,8.079-8.842,8.09l-74.372.122c-4.874,0-8.842-3.6-8.842-8.068Z" transform="translate(-795.591 3973.621)"/>
    <path id="Path_541" data-name="Path 541" class="cls-7" d="M165.4,71.934V238.827c0,4.421,3.957,8.068,8.842,8.068l74.372-.122c4.874,0,8.842-3.625,8.842-8.09V71.768c0-4.421-3.957-8.079-8.842-8.068H237.473v.995a5.438,5.438,0,0,1-5.648,5.173l-41.137.066a5.427,5.427,0,0,1-5.659-5.162v-.995H174.242C169.379,63.855,165.4,67.469,165.4,71.934Z" transform="translate(-794.895 3974.11)"/>
    <path id="Path_542" data-name="Path 542" class="cls-2" d="M257.436,71.776V238.668c0,4.421-3.957,8.09-8.842,8.09H174.222c-4.874,0-8.842-3.6-8.842-8.068V71.8c0-4.421,3.957-8.09,8.842-8.09h10.8V64.7a5.394,5.394,0,0,0,5.637,5.15l41.137-.055a5.438,5.438,0,0,0,5.659-5.184V63.63h11.141C253.479,63.718,257.436,67.355,257.436,71.776Z" transform="translate(-794.897 3974.102)"/>
    <path id="Path_543" data-name="Path 543" class="cls-8" d="M186.03,38.5l14.147-.022V37.33l-14.147.022Z" transform="translate(-775.294 4001.928)"/>
    <ellipse id="Ellipse_72" data-name="Ellipse 72" class="cls-9" cx="1.536" cy="1.404" rx="1.536" ry="1.404" transform="translate(-594.528 4038.298) rotate(-0.56)"/>
    <rect id="Rectangle_298" data-name="Rectangle 298" class="cls-2" width="8.709" height="96.765" rx="3.62" transform="translate(-622.996 4120.825)"/>
    <rect id="Rectangle_299" data-name="Rectangle 299" class="cls-2" width="89.37" height="126.451" rx="7.17" transform="translate(-730.404 4086.253)"/>
    <rect id="Rectangle_300" data-name="Rectangle 300" class="cls-10" width="89.37" height="126.451" rx="7.17" transform="translate(-731.852 4088.419)"/>
    <rect id="Rectangle_301" data-name="Rectangle 301" class="cls-6" width="89.37" height="126.451" rx="7.17" transform="translate(-735.002 4092)"/>
    <path id="Path_544" data-name="Path 544" class="cls-11" d="M159.31,161.65v64.491a7.936,7.936,0,0,1-7.936,7.925H77.865a7.925,7.925,0,0,1-7.925-7.925v-33.8C129.789,205.628,159.31,161.65,159.31,161.65Z" transform="translate(-804.942 3984.419)"/>
    <path id="Path_545" data-name="Path 545" class="cls-2" d="M134.154,146.47V249.424H124.77V146.47a5.305,5.305,0,0,1,.144-1.172h0a5.448,5.448,0,0,1,.431-1.105l.155-.287,3.968-7.516,4.123,7.8a5.249,5.249,0,0,1,.42,1.105A4.719,4.719,0,0,1,134.154,146.47Z" transform="translate(-799.171 3981.76)"/>
    <path id="Path_548" data-name="Path 548" class="cls-2" d="M134,145.3a7.914,7.914,0,0,1-9.1,0h0l.586-1.393,3.968-7.516,4.123,7.8A5.251,5.251,0,0,1,134,145.3Z" transform="translate(-799.158 3981.76)"/>
    <path id="Path_549" data-name="Path 549" class="cls-2" d="M70.825,123.124a12.876,12.876,0,0,0-6.212,1.183,12.876,12.876,0,0,0,6.212,1.194v2.885c-4.631,0-9.3-1.26-9.3-4.067s4.664-4.067,9.3-4.067Z" transform="translate(-805.827 3980.062)"/>
    <path id="Path_550" data-name="Path 550" class="cls-2" d="M79.213,124.055c0,2.807-4.653,4.067-9.273,4.067v-2.874c3.68,0,5.957-.862,6.41-1.348a1.437,1.437,0,0,1,2.863.166Z" transform="translate(-804.942 3980.313)"/>
    <path id="Path_551" data-name="Path 551" class="cls-2" d="M70.825,138.015a12.876,12.876,0,0,0-6.212,1.183,12.876,12.876,0,0,0,6.212,1.183v2.885c-4.631,0-9.3-1.26-9.3-4.067s4.664-4.067,9.3-4.067Z" transform="translate(-805.827 3981.628)"/>
    <path id="Path_552" data-name="Path 552" class="cls-2" d="M79.213,138.946c0,2.807-4.653,4.067-9.273,4.067v-2.885c3.68,0,5.957-.862,6.41-1.348a1.437,1.437,0,0,1,2.863.166Z" transform="translate(-804.942 3981.879)"/>
    <path id="Path_553" data-name="Path 553" class="cls-2" d="M70.825,152.9a12.832,12.832,0,0,0-6.212,1.194,12.877,12.877,0,0,0,6.212,1.183v2.885c-4.631,0-9.3-1.26-9.3-4.067S66.194,150,70.825,150Z" transform="translate(-805.827 3983.193)"/>
    <path id="Path_554" data-name="Path 554" class="cls-2" d="M79.213,153.836c0,2.807-4.653,4.067-9.273,4.067v-2.885c3.68,0,5.957-.862,6.41-1.348a1.437,1.437,0,0,1,2.863.166Z" transform="translate(-804.942 3983.447)"/>
    <path id="Path_555" data-name="Path 555" class="cls-2" d="M70.825,167.784a12.832,12.832,0,0,0-6.212,1.194,12.876,12.876,0,0,0,6.212,1.183v2.885c-4.631,0-9.3-1.26-9.3-4.067s4.664-4.067,9.3-4.067Z" transform="translate(-805.827 3984.762)"/>
    <path id="Path_556" data-name="Path 556" class="cls-2" d="M79.213,168.726c0,2.807-4.653,4.067-9.273,4.067v-2.885c3.68,0,5.957-.862,6.41-1.348a1.437,1.437,0,0,1,2.863.166Z" transform="translate(-804.942 3985.013)"/>
    <path id="Path_557" data-name="Path 557" class="cls-2" d="M70.825,182.675a12.832,12.832,0,0,0-6.212,1.194,13.02,13.02,0,0,0,6.212,1.183v2.885c-4.631,0-9.3-1.26-9.3-4.067s4.664-4.078,9.3-4.078Z" transform="translate(-805.827 3986.328)"/>
    <path id="Path_558" data-name="Path 558" class="cls-2" d="M79.213,183.617c0,2.807-4.653,4.067-9.273,4.067V184.8c3.68,0,5.957-.862,6.41-1.359a1.437,1.437,0,0,1,2.863.177Z" transform="translate(-804.942 3986.58)"/>
    <path id="Path_559" data-name="Path 559" class="cls-2" d="M70.825,197.565a12.832,12.832,0,0,0-6.212,1.194,13.019,13.019,0,0,0,6.212,1.183v2.885c-4.631,0-9.3-1.26-9.3-4.067s4.664-4.078,9.3-4.078Z" transform="translate(-805.827 3987.895)"/>
    <path id="Path_560" data-name="Path 560" class="cls-2" d="M79.213,198.507c0,2.807-4.653,4.067-9.273,4.067v-2.885c3.68,0,5.957-.862,6.41-1.359a1.437,1.437,0,0,1,2.863.177Z" transform="translate(-804.942 3988.147)"/>
    <path id="Path_561" data-name="Path 561" class="cls-2" d="M70.825,212.455a12.832,12.832,0,0,0-6.211,1.194,13.02,13.02,0,0,0,6.212,1.183v2.885c-4.631,0-9.3-1.26-9.3-4.067s4.664-4.078,9.3-4.078Z" transform="translate(-805.827 3989.462)"/>
    <path id="Path_562" data-name="Path 562" class="cls-2" d="M79.213,213.4c0,2.807-4.653,4.067-9.273,4.067v-2.885c3.68,0,5.957-.862,6.41-1.359a1.437,1.437,0,0,1,2.863.177Z" transform="translate(-804.942 3989.714)"/>
    <path id="Path_573" data-name="Path 573" class="cls-12" d="M233.409,233.195H209.922l-3.8-39.955,9.207.309,18.082.6S233.74,212.129,233.409,233.195Z" transform="translate(-790.609 3987.744)"/>
    <path id="Path_574" data-name="Path 574" class="cls-12" d="M217.294,191.248l-.287,3.017L213.193,233.9h-23c-.354-29.842,2.465-47.039,2.465-47.039Z" transform="translate(-792.289 3987.072)"/>
    <path id="Path_575" data-name="Path 575" class="cls-6" d="M177.93,161.455c.144,2.63.995,4.94,3.316,5.692a3.03,3.03,0,0,0,.586.166c4.211.84,9.737-2.365,13.595-5.162a54.432,54.432,0,0,0,4.6-3.747V130.21l-20.491,21A32.372,32.372,0,0,0,177.93,161.455Z" transform="translate(-793.576 3981.11)"/>
    <path id="Path_576" data-name="Path 576" class="cls-6" d="M193.74,162.669c0,1.315-.166,2.653-.166,3.979,0,7.284,1.691,14.8-.486,21.939-.486,1.592-1.172,3.316-.608,4.874a6.068,6.068,0,0,0,3.05,2.929c6.421,3.515,13.838,4.587,21.088,5.6,5.449.763,13.175,2.387,18.215-.553,2.144-1.249,2.874-3.581,3.559-5.9,2.21-7.383,2.818-15.33,3.393-22.978.077-1.006.144-2.023.21-3.028q.63-10.467.42-20.933c-.1-5.062-.5-10.533-3.8-14.368-4.421-5.1-12.909-8.466-19.364-9.649a22.028,22.028,0,0,0-6.366-.354,26.912,26.912,0,0,0-8.621,2.929c-3.205,1.581-6.057,2.918-7.637,6.09a43.647,43.647,0,0,0-3.548,11.594,41.9,41.9,0,0,0-.2,11.34c.188,1.846.674,3.68.851,5.526C193.718,162.028,193.74,162.36,193.74,162.669Z" transform="translate(-792.067 3980.471)"/>
    <path id="Path_577" data-name="Path 577" class="cls-13" d="M220.743,202.963c2.111.619,6.985-1.315,8.61-1.6.962-.166,1.846-.652,2.807-.884,4.819-1.2,5.394-14.755,5.869-18.4,1.249-9.638,3.172-19.618,3.316-29.289a32.339,32.339,0,0,0-1.282-11.052c-1.216-3.515-3.725-6.764-7.228-8.035-6.167-2.211-7.991,17.264-8.842,21.309l-4.631,22.039a49.585,49.585,0,0,0-1.26,8.234c-.166,3.857,1.105,6.632,2.056,10.036.564,1.923-.984,5.593-.221,7.018a1.348,1.348,0,0,0,.807.63Z" transform="translate(-789.35 3981.458)"/>
    <path id="Path_578" data-name="Path 578" class="cls-14" d="M207.175,121.014a4.7,4.7,0,0,0,2.973,1.492,15.475,15.475,0,0,0,2.863,0h.53a.542.542,0,0,1,.4.077.575.575,0,0,1,.166.42,32.054,32.054,0,0,1,.111,5.736h0c0,.343-.055.685-.088,1.028a2,2,0,0,0,.088,1.105,1.879,1.879,0,0,0,1.161.763,8.643,8.643,0,0,0,2.586.442,11.55,11.55,0,0,0,5.272-1.857,53.615,53.615,0,0,1,.519-9.781c.608-4.178,1.7-8.356,1.249-12.556a6.864,6.864,0,0,0-7.958-6.775,15.717,15.717,0,0,0-8.544,2.332,3.316,3.316,0,0,0-1.26,2.531c-.332,1.647-.6,3.316-.774,4.974-.21,1.912-.321,3.824-.354,5.736a6.5,6.5,0,0,0,1.061,4.333Z" transform="translate(-790.614 3978.038)"/>
    <path id="Path_579" data-name="Path 579" class="cls-12" d="M210.724,105.28c2.133.354,4.421,0,6.5.807,2.829,1.105,4.034,4.83,3.084,7.737.818.3.973-1.172,1.6-1.768s2.056.2,2.21,1.227a6.212,6.212,0,0,1-.906,2.907,8.676,8.676,0,0,0-.376,5.714c.133.442.453.973.906.851s.763-.873,1.028-1.2a11.767,11.767,0,0,1,1.337-1.459c1.006-.873,2.089-1.636,3.106-2.487,1.813-1.514,3.493-3.57,3.382-5.924a5.228,5.228,0,0,0-.928-2.675,6,6,0,0,0-1.757-1.7c-.287-.188-.619-.376-.674-.718a1.382,1.382,0,0,1,.066-.553,6.444,6.444,0,0,0-2.642-6.388A15.606,15.606,0,0,0,219.8,97.1c-1.581-.287-3.161-.508-4.753-.7a10.643,10.643,0,0,1-3.813-.9,10.655,10.655,0,0,1,1.26-2.5,12.158,12.158,0,0,0-3.194,1.47,5.006,5.006,0,0,1,.431-1.592,9.7,9.7,0,0,0-4.7,2.686,5.626,5.626,0,0,0-.166,6.355c1.227,1.934,3.161,2.708,5.283,3.216Z" transform="translate(-790.836 3977.182)"/>
    <path id="Path_580" data-name="Path 580" class="cls-15" d="M212.35,120.682h.531a.542.542,0,0,1,.4.077.575.575,0,0,1,.166.42,32.054,32.054,0,0,1,.111,5.736h0s5.526-1.393,5.294-8.146a32.407,32.407,0,0,1-6.466,1.923Z" transform="translate(-789.954 3979.906)"/>
    <path id="Path_581" data-name="Path 581" class="cls-6" d="M174.483,141.768a40.3,40.3,0,0,0,1.271,13.849,19.607,19.607,0,0,0,4.963,8.488,3.515,3.515,0,0,0,3.238.906,10.246,10.246,0,0,0,5.526-2.962c3.769-4.167,1.2-10.577,1.2-10.577s-7.8-12.279-9.538-12.777c-.939-.287-2.84.663-4.421,1.581C175.522,141.027,174.483,141.768,174.483,141.768Z" transform="translate(-793.953 3981.998)"/>
    <path id="Path_582" data-name="Path 582" class="cls-13" d="M175.182,150.567a107.3,107.3,0,0,0,2.365,10.566,9.019,9.019,0,0,0,1.459,3.249c1.956,2.4,5.526,2.21,8.179,1.371.862-.276,8.953-3.868,8.621-4.7v-.088l-1.3-8.433c.111.685-3.393,3.073-3.857,3.426-2.211,1.691-5.46,4.421-8.068,1.824a9.084,9.084,0,0,1-1.89-3.415,77.269,77.269,0,0,1-3.7-13.617,2,2,0,0,0-2.608,1.2,5.8,5.8,0,0,0-.077,3.194C174.563,146.964,174.862,148.777,175.182,150.567Z" transform="translate(-793.978 3982.205)"/>
    <path id="Path_583" data-name="Path 583" class="cls-6" d="M247.885,163.072c1.824,4.952,3.437,10.2,2.686,15.418-.9,6.333-5.106,11.627-9.163,16.579-3.183.475-7.361.409-8.488-2.608a7.173,7.173,0,0,1-.221-3l.453-6.532a24.482,24.482,0,0,0-.442-8.709c-.962-3.194-3.172-5.825-4.918-8.665a33.643,33.643,0,0,1-4.929-15.264c-.365-5.084,3.47-21.486,10.964-16.579,3.106,2.034,5.858,10.467,7.494,13.86A163.329,163.329,0,0,1,247.885,163.072Z" transform="translate(-788.85 3981.384)"/>
    <path id="Path_584" data-name="Path 584" class="cls-14" d="M230.263,193.729a1.492,1.492,0,0,0-.265.851.5.5,0,0,0,.641.442c.763,2.343-.829,4.8-.829,7.273a1.869,1.869,0,0,0,.1.652,1.448,1.448,0,0,0,.542.663,2.918,2.918,0,0,0,2.8.177,7.184,7.184,0,0,0,2.332-1.746,11.981,11.981,0,0,0,3.161-4.741,14.57,14.57,0,0,0,.453-2.586l.763-6.444C235.115,186.689,232.507,189.894,230.263,193.729Z" transform="translate(-788.116 3987.177)"/>
    <path id="Path_585" data-name="Path 585" class="cls-14" d="M183.257,134.4a2.5,2.5,0,0,0,.188-1.326.862.862,0,0,0-.973-.707c-.265.066-.442.3-.674.431a1.536,1.536,0,0,1-1.735-.221,4.609,4.609,0,0,1-1.105-1.492,46.421,46.421,0,0,0-2.863-4.421,1.967,1.967,0,0,0-.917-.807,1.757,1.757,0,0,0-1.337.254,6.631,6.631,0,0,0-3.15,5.427,10.433,10.433,0,0,0,1.857,6.167,26.813,26.813,0,0,0,4.344,4.9,2.829,2.829,0,0,0,1.393.873C181.356,143.98,182.682,136.166,183.257,134.4Z" transform="translate(-794.338 3980.647)"/>
    <rect id="Rectangle_302" data-name="Rectangle 302" class="cls-16" width="32.605" height="28.725" transform="translate(-623.659 4056.279)"/>
    <path id="Path_587" data-name="Path 587" class="cls-6" d="M77.737,117.35s3.059,2.08,3.059,4.344-16.183,47.57-16.183,47.57-.367-43.379,0-45.4a33.342,33.342,0,0,1,2.172-5.69S73,122.826,77.737,117.35Z" transform="translate(-644.906 3985.179)"/>
    <path id="Path_586" data-name="Path 586" class="cls-17" d="M37.409,89.69,38.7,93.814l-2.152,1.757-1,28.868-7.495,21.3-.179-21.66,6.419-28.617-2.331-4.052,3.084-1.721Z" transform="translate(-610.06 4016.938)"/>
    <path id="Path_279" data-name="Path 279" class="cls-2" d="M99.611,118.4a179.96,179.96,0,0,1-9.81,16.034,7.186,7.186,0,0,1-5.308,2.452,8.756,8.756,0,0,1-2.437-.373c-2.344-.574-4.657-1.257-6.985-2.018a3.1,3.1,0,0,1-.559-.279h0c-1.552-1.133-1.894-4.253-2.235-6.054-.186-.993-1.1-4.936.59-5.231.854-.155,3.648,2.328,4.439,2.809a56.107,56.107,0,0,0,5.122,2.747,1.242,1.242,0,0,0,.7.186,1.288,1.288,0,0,0,.667-.45,61.638,61.638,0,0,0,8.863-13.752c.683.295,1.35.621,2.018.962q1.4.73,2.747,1.552l.279.155A9.245,9.245,0,0,1,99.611,118.4Z" transform="translate(-763.111 4011.376)"/>
    <path id="Path_280" data-name="Path 280" class="cls-18" d="M99.016,117.453a179.966,179.966,0,0,1-9.81,16.034,7.186,7.186,0,0,1-5.308,2.452,8.754,8.754,0,0,1-2.437-.373c-2.344-.574-4.657-1.257-6.985-2.018a3.921,3.921,0,0,1-.574-.279c-.124,0-.45-1.211-.5-1.366a10.713,10.713,0,0,1-.357-1.552,11.5,11.5,0,0,1,0-3.1c0-.357.093-.621.419-.341s.2.295.341.419.481.341.714.512c.652.466,1.3.931,2,1.366a18.378,18.378,0,0,0,4.269,1.863,8.273,8.273,0,0,0,3.1.45A4.657,4.657,0,0,0,87.56,128.8c.543-.838,1.071-1.707,1.552-2.577a16.653,16.653,0,0,1,1.707-2.468c1.366-1.645,2.716-3.291,4.082-4.92a21.885,21.885,0,0,1,2.3-2.654A13.178,13.178,0,0,1,99.016,117.453Z" transform="translate(-762.515 4012.32)"/>
    <path id="Path_312" data-name="Path 312" class="cls-19" d="M96.875,113.863a5.417,5.417,0,0,1-2.251,2.173,19.481,19.481,0,0,1-2.747,1.04,4.656,4.656,0,0,0-2.421,1.552l-.109.14q-1.35-.807-2.747-1.552c.124-.248.357-.543.45-.73.2-.45.357-.916.543-1.366a8.584,8.584,0,0,1,3.229-3.818c.109,0,.248-.14.357,0a.264.264,0,0,1,0,.217,3.849,3.849,0,0,1-.528,1.878l5.619-2.018a.76.76,0,0,1,.45-.078.667.667,0,0,1,.388.4A2.639,2.639,0,0,1,96.875,113.863Z" transform="translate(-752.955 4010.938)"/>
    <path id="Path_277" data-name="Path 277" class="cls-2" d="M45.129,117.149l-.993,48.521H37.555L35.661,127.1,31.532,165.67l-7.544,1.257L22.25,115.55Z" transform="translate(-730.049 4056.986)"/>
    <path id="Path_278" data-name="Path 278" class="cls-20" d="M45.129,117.149l-.993,48.521H37.555L35.661,127.1,31.532,165.67l-7.544,1.257L22.25,115.55Z" transform="translate(-730.049 4056.986)"/>
    <path id="Path_281" data-name="Path 281" class="cls-21" d="M28.49,164.91V119.927l-6.24-4.377,2.111,50.12Z" transform="translate(-730.049 4056.986)"/>
    <path id="Path_282" data-name="Path 282" class="cls-2" d="M67.139,117.92a55.593,55.593,0,0,0-5.122,2.9c-3.523,2.251-2.887,3.291-2.235,7.187a155.219,155.219,0,0,1,2.064,25.161,22.227,22.227,0,0,0,.419,6.085,17.214,17.214,0,0,1,1.3,3.632c5.433.745,17.85,3.539,21.56-2.033s-2.84-24.307-1.645-32.72-9.732-9.313-9.732-9.313Z" transform="translate(-770.064 4013.281)"/>
    <path id="Path_284" data-name="Path 284" class="cls-22" d="M73.685,146.436l-9.841,6.643-1.552-2.064a36.461,36.461,0,0,1-1.319-10.508c.233-5.293,0-3.4,0-3.4l13.845,8.754Z" transform="translate(-769.129 4023.694)"/>
    <path id="Path_285" data-name="Path 285" class="cls-19" d="M76.241,115.123a10.025,10.025,0,0,1-.093,1.676,10.228,10.228,0,0,1-1.35,3.275,2.514,2.514,0,0,1-.7.9,2.763,2.763,0,0,1-2.033.171,1.009,1.009,0,0,0-.481,0c-.388.155-.435.683-.419,1.1l.109,1.925a1.2,1.2,0,0,1-.124.776,1.258,1.258,0,0,1-.512.326,4.129,4.129,0,0,1-4.16-.947,2.981,2.981,0,0,1-.652-.869,3.8,3.8,0,0,1-.233-1.009c-.233-1.847,0-3.71-.171-5.572a17.678,17.678,0,0,1-.14-4.657,5.091,5.091,0,0,1,2.98-3.756,7.606,7.606,0,0,1,4.874.109,22.825,22.825,0,0,1,2.266.761,1.552,1.552,0,0,1,.885.652c.295.59,0,1.443,0,2.08C76.226,113.121,76.241,114.145,76.241,115.123Z" transform="translate(-766.795 4007.867)"/>
    <path id="Path_286" data-name="Path 286" d="M76.96,108.271c.171.373.419.7.605,1.071a1.552,1.552,0,0,1,.2,1.18,1.723,1.723,0,0,1-.59.792,6.705,6.705,0,0,1-4.657,1.164,8.586,8.586,0,0,0-1.412,0,1.971,1.971,0,0,0-1.242.605,4.517,4.517,0,0,0-.605,2.1v.124h0c-.528,0-1.024-.543-1.552-.341a.792.792,0,0,0-.388.667,1.676,1.676,0,0,0,.14.947.947.947,0,0,1,.109.372.73.73,0,0,1,0,.248l-.326.916a1.381,1.381,0,0,1-.59.838,1.366,1.366,0,0,1-1.242-.233,1.91,1.91,0,0,1-.683-.574,1.832,1.832,0,0,1-.248-.652,30.779,30.779,0,0,1-.543-6.969,3.958,3.958,0,0,1,.217-1.552,3.632,3.632,0,0,1,2.732-1.723,29.291,29.291,0,0,1,6.209-.45,9,9,0,0,1,1.94.124,3.1,3.1,0,0,1,1.661.947" transform="translate(-767.499 4007.129)"/>
    <path id="Path_288" data-name="Path 288" class="cls-6" d="M66,117.35s-1.552,1.055-1.552,2.2,8.211,24.136,8.211,24.136.186-22.01,0-23.034a16.918,16.918,0,0,0-1.1-2.887S68.408,120.128,66,117.35Z" transform="translate(-767.204 4012.967)"/>
    <path id="Path_289" data-name="Path 289" class="cls-23" d="M28.429,89.69l-.559,1.785.931.761.435,12.5,3.244,9.22.078-9.375L29.779,92.189l1.009-1.754-1.335-.745Z" transform="translate(-726.945 4042.706)"/>
    <path id="Path_291" data-name="Path 291" class="cls-23" d="M71.06,177.022l.357,3.57,2.251.419,1.009-.885,1.723,1.366h6.752s1.723-2.965-2.018-3.974l-3.725-1.009Z" transform="translate(-763.554 4045.634)"/>
    <path id="Path_292" data-name="Path 292" class="cls-23" d="M62.56,177.022l.357,3.57,2.251.419,1.009-.885,1.707,1.366h6.768s1.707-2.965-2.018-3.974l-3.741-1.009Z" transform="translate(-768.248 4045.634)"/>
    <path id="Path_293" data-name="Path 293" class="cls-24" d="M30.89,123.862l3.027-2.452,2.126,40.512-3.26.512Z" transform="translate(-725.278 4060.222)"/>
    <path id="Path_565" data-name="Path 565" class="cls-19" d="M3.69,13.772l3.273-.762c1.028.564.908-1.372,2.014-1.781,1.846-.718,3.736-2.553,5.36-3.7S17.852,4.985,19.6,3.68A4.343,4.343,0,0,0,20.78,2.575C21.3,1.713,21.311.442,22.217,0l.508,2.21,2.8-1.481A1.934,1.934,0,0,1,26.627.42c.752.133,1.105,1.05,1.006,1.813-.221,2.553-2.84,3.371-4.918,4.012a7.737,7.737,0,0,0-1.625.586,6.068,6.068,0,0,0-1.105.829,31.1,31.1,0,0,0-5.106,5.195,25.708,25.708,0,0,1-2.21,2.73,6.864,6.864,0,0,1-2.443,2.211,4.311,4.311,0,0,1-2.31.088C5.141,17.363,2.577,15.474.4,13.76c-.243-.188-.508-.486-.354-.752A.73.73,0,0,1,.4,12.766a5.3,5.3,0,0,0,2.21-1.5c.666-.611,1.168,3.408,1.08,2.509Z" transform="translate(-696.766 4145.89) rotate(73)"/>
    <g id="Group_20" data-name="Group 20" transform="translate(-716.625 4135.487)">
      <path id="Path_290" data-name="Path 290" class="cls-2" d="M79.644,150.062a21.17,21.17,0,0,1-3.26,3.306l-.745.59a1.832,1.832,0,0,1-.962.45,1.661,1.661,0,0,1-.714-.171q-7.124-2.763-13.97-6.209c-1.894-.978-3.989-2.251-4.393-4.346a7,7,0,0,1,0-2.2,63.516,63.516,0,0,1,4.129-15.522c.574-1.4,1.288-4.1,2.778-5.014h.171l.217-.109c2.018-.73,3.772,1.288,4.331,3a13.721,13.721,0,0,1-.233,7.544,46.768,46.768,0,0,0-1.723,7.419,1.987,1.987,0,0,0,.093,1.04,2.189,2.189,0,0,0,.776.776Z" transform="translate(-55.514 -120.681)"/>
      <path id="Path_294" data-name="Path 294" class="cls-25" d="M76.425,153.314l-.745.59a1.831,1.831,0,0,1-.962.45,1.661,1.661,0,0,1-.714-.171q-7.124-2.763-13.97-6.209c-1.894-.978-3.989-2.251-4.393-4.346a7,7,0,0,1,0-2.2A63.514,63.514,0,0,1,59.77,125.9c.574-1.4,1.288-4.1,2.778-5.014h.171l.217-.109a4.532,4.532,0,0,1,4.331,3s-7.187,14.715-6.876,16.934,15.4,9.422,15.4,9.422Z" transform="translate(-55.492 -120.627)"/>
    </g>
    <path id="Path_546" data-name="Path 546" class="cls-26" d="M134.154,146.47V249.424H124.77V146.47a5.305,5.305,0,0,1,.144-1.172h0a5.448,5.448,0,0,1,.431-1.105l.155-.287,3.968-7.516,4.123,7.8a5.249,5.249,0,0,1,.42,1.105A4.719,4.719,0,0,1,134.154,146.47Z" transform="translate(-799.171 3981.76)"/>
    <path id="Path_571" data-name="Path 571" class="cls-27" d="M111.54,112.26h3.769l-1.879-3.57Z" transform="translate(-783.134 4009.438)"/>
    <rect id="Rectangle_303" data-name="Rectangle 303" class="cls-2" width="6" height="104" transform="translate(-670.792 4127.618)"/>
  </g>
</svg>
