<svg xmlns="http://www.w3.org/2000/svg" xmlns:xlink="http://www.w3.org/1999/xlink" width="331.001" height="280.679" viewBox="0 0 331.001 280.679">
  <defs>
    <style>
      .cls-1, .cls-11, .cls-15, .cls-2, .cls-3 {
        fill: #707070;
      }

      .cls-1 {
        opacity: 0.18;
      }

      .cls-1, .cls-12, .cls-2 {
        isolation: isolate;
      }

      .cls-2 {
        opacity: 0.44;
      }

      .cls-4 {
        fill: url(#linear-gradient);
      }

      .cls-5 {
        fill: url(#linear-gradient-2);
      }

      .cls-6 {
        fill: url(#linear-gradient-3);
      }

      .cls-7 {
        fill: url(#linear-gradient-4);
      }

      .cls-8 {
        fill: #473f47;
      }

      .cls-9 {
        fill: url(#linear-gradient-5);
      }

      .cls-10, .cls-12 {
        fill: #fff;
      }

      .cls-11 {
        opacity: 0.5;
      }

      .cls-13 {
        fill: url(#linear-gradient-6);
      }

      .cls-14 {
        fill: #ffbbab;
      }

      .cls-15 {
        opacity: 0.16;
      }

      .cls-16 {
        fill: url(#linear-gradient-7);
      }

      .cls-17 {
        fill: url(#linear-gradient-8);
      }

      .cls-18 {
        fill: #00a2e9;
      }

      .cls-19 {
        fill: none;
      }
    </style>
    <linearGradient id="linear-gradient" x1="4.142" y1="0.646" x2="4.25" y2="2.924" gradientUnits="objectBoundingBox">
      <stop offset="0.01"/>
      <stop offset="0.08" stop-opacity="0.69"/>
      <stop offset="0.21" stop-opacity="0.322"/>
      <stop offset="1" stop-opacity="0"/>
    </linearGradient>
    <linearGradient id="linear-gradient-2" x1="23.472" y1="0.152" x2="18.891" y2="1.198" xlink:href="#linear-gradient"/>
    <linearGradient id="linear-gradient-3" x1="8.571" y1="0.599" x2="5.225" y2="0.372" xlink:href="#linear-gradient"/>
    <linearGradient id="linear-gradient-4" x1="3.601" y1="0.771" x2="7.442" y2="-0.01" xlink:href="#linear-gradient"/>
    <linearGradient id="linear-gradient-5" x1="27.14" y1="0.715" x2="24.32" y2="-0.18" xlink:href="#linear-gradient"/>
    <linearGradient id="linear-gradient-6" x1="6.716" y1="0.539" x2="8.912" y2="0.377" xlink:href="#linear-gradient"/>
    <linearGradient id="linear-gradient-7" x1="10.187" y1="1.306" x2="11.747" y2="-1.157" xlink:href="#linear-gradient"/>
    <linearGradient id="linear-gradient-8" x1="9.725" y1="0.581" x2="13.81" y2="0.329" xlink:href="#linear-gradient"/>
  </defs>
  <g id="training3" transform="translate(803 -3941.579)">
    <path id="Path_489" data-name="Path 489" class="cls-1" d="M161.01,159.928c-18.282,9.819-31.614,27.775-37.546,47.657-3.51,11.776-4.6,24.189-8.607,35.816-11.388,33.054-44.212,54.557-58.2,86.581-7.811,17.835-9.152,38.626-2.59,56.95s21.238,33.816,39.6,40.285c11.251,3.963,23.345,4.556,35.268,4.936,22.315.712,44.808.793,66.78-3.17,10.463-1.89,20.774-4.689,31.336-5.907,20.434-2.363,41.3,1.229,61.6-2.064,14.136-2.3,27.539-7.875,40.342-14.288,9.614-4.821,19.064-10.21,27-17.48,20.974-19.238,28.742-50.431,23.109-78.326s-23.345-52.4-45.635-70.091c-9.8-7.78-20.476-14.367-30.751-21.508a343.858,343.858,0,0,1-37.636-30.272C236.8,162.816,200.322,138.827,161.01,159.928Z" transform="translate(-852.876 3789.725)"/>
    <path id="Path_490" data-name="Path 490" class="cls-2" d="M295.836,914.149l-19.179,2.666a4.926,4.926,0,0,0-2.579.875,3.321,3.321,0,0,0-.43,4.036,9.77,9.77,0,0,0,3.111,3.04c-4.557,1.086-12.471.844-12.241,7.344a6.376,6.376,0,0,0,3.881,5.549,12.508,12.508,0,0,0,4.286.655c14.181.506,28.6.984,42.33-2.574,2.619-.678,5.721-2.16,5.724-4.863,0-.959-.422-1.876-.47-2.835-.3-6.132,12.806-2.531,16.187-2.337q11.251.655,22.5.939c15.32.408,30.658.385,45.975.169a81.755,81.755,0,0,1,14.494.61c3.769.619,7.425,1.786,11.127,2.728a95.325,95.325,0,0,0,37.29,1.915c5.625-.844,12.561-3.859,12.2-9.543-.312-4.877-5.859-7.408-10.578-8.674a162.936,162.936,0,0,0-21.272-4.219c-12.657-1.643-25.468-1.792-38.252-1.9-27.75-.222-55.5-.239-83.254-.256C317.372,907.48,305.081,912.863,295.836,914.149Z" transform="translate(-1007.143 3246.629)"/>
    <path id="Path_491" data-name="Path 491" class="cls-3" d="M460.13,625.858h77.452L523.875,576.6H471.69Z" transform="translate(-1133.714 3527.154)"/>
    <path id="Path_492" data-name="Path 492" class="cls-4" d="M460.13,625.858h77.452L523.875,576.6H471.69Z" transform="translate(-1133.714 3527.154)"/>
    <path id="Path_493" data-name="Path 493" class="cls-3" d="M476.231,225V352a13.9,13.9,0,0,1-13.906,13.9H261.633A13.9,13.9,0,0,1,247.73,352V225a13.906,13.906,0,0,1,13.9-13.9h200.7a13.905,13.905,0,0,1,13.9,13.9Z" transform="translate(-995.081 3747.142)"/>
    <path id="Path_494" data-name="Path 494" class="cls-5" d="M307.332,656.542a1.056,1.056,0,0,1-.658,1.125,3.209,3.209,0,0,1-1.406.2l-2.022-.02a.751.751,0,0,0-.886.945l-.205,8.663a12.286,12.286,0,0,0,.8,5.8c.436.878,1.077,1.64,1.539,2.506a3.41,3.41,0,0,1,.371,2.813q-5.153.214-10.305.014a2.529,2.529,0,0,1-1.783-.543,2.482,2.482,0,0,1-.484-.923,73.47,73.47,0,0,1-2.495-8.759,34.283,34.283,0,0,1-.959-8.618,16.674,16.674,0,0,1,2.363-8.264,5.368,5.368,0,0,1,1.406-1.6,6.084,6.084,0,0,1,1.969-.8,56.712,56.712,0,0,1,10.455-1.367,5.5,5.5,0,0,1,3.431.515,3.684,3.684,0,0,1,1.429,3.291,10.791,10.791,0,0,1-1.049,3.581" transform="translate(-1024.613 3433.36)"/>
    <path id="Path_495" data-name="Path 495" class="cls-6" d="M918.7,672.6q-3.243-10.741-7.4-21.179a1.423,1.423,0,0,0-.529-.771,1.446,1.446,0,0,0-.934-.076l-6.033.858c.112,3.4,1.657,6.553,2.976,9.684a81,81,0,0,1,5.1,17.281,4.276,4.276,0,0,0,.546,1.688,3.9,3.9,0,0,0,2.531,1.319c2.953.619,4.88,1.519,5.378-1.485C920.7,677.777,919.326,674.621,918.7,672.6Z" transform="translate(-1466.622 3431.307)"/>
    <path id="Path_496" data-name="Path 496" class="cls-7" d="M805.107,680.287l-6.469-.073a1.826,1.826,0,0,0-1.277.306c-.332.307-.385.709-.624,1.038a2.616,2.616,0,0,1-2.472.627,56.8,56.8,0,0,1-9.195-1.761l1.156-7.906A69.593,69.593,0,0,0,803,674.178l.3-9.518-8.553-.076a1.719,1.719,0,0,1-1.043-.234,1.7,1.7,0,0,1-.47-1.37,23.613,23.613,0,0,1,.2-3.479,1.034,1.034,0,0,1,.307-.729,1.071,1.071,0,0,1,.8-.1,103.676,103.676,0,0,0,19.658.717,100.711,100.711,0,0,0,5.257,28.54c-3.482-.377-7.594.217-10.969-.54-1.6-.36-1.522-.535-2.036-2.25C806.317,684.695,805.321,680.29,805.107,680.287Z" transform="translate(-1381.287 3425.483)"/>
    <path id="Path_497" data-name="Path 497" class="cls-8" d="M476.231,225V336.38H247.73V225a13.906,13.906,0,0,1,13.9-13.9h200.7a13.905,13.905,0,0,1,13.9,13.9Z" transform="translate(-995.081 3747.142)"/>
    <path id="Path_498" data-name="Path 498" class="cls-3" d="M305.991,624.578c2.661,1.828,5.428,3.7,8.607,4.278a1.424,1.424,0,0,1,1.044.5,1.313,1.313,0,0,1,.045.951,38.589,38.589,0,0,1-2.017,6.621,33.313,33.313,0,0,1-13.076-4.61,4.73,4.73,0,0,1-1.659-1.451,5.2,5.2,0,0,1-.543-2.267c-.166-2.143-.484-5.209.8-7.11,1-1.485,1.558-.509,2.891.408Z" transform="translate(-1031.378 3452.734)"/>
    <path id="Path_499" data-name="Path 499" class="cls-9" d="M300.231,623.308c2.661,1.828,5.428,3.7,8.607,4.278.391.07.844.152,1.043.495a1.313,1.313,0,0,1,.045.951,38.555,38.555,0,0,1-2.014,6.618,33.284,33.284,0,0,1-13.079-4.61,4.722,4.722,0,0,1-1.66-1.449,5.17,5.17,0,0,1-.543-2.267c-.166-2.146-.484-5.209.8-7.11,1-1.485,1.558-.509,2.894.408Z" transform="translate(-1027.238 3453.647)"/>
    <path id="Path_500" data-name="Path 500" class="cls-10" d="M481.61,235.917v105H260v-105a13.414,13.414,0,0,1,13.484-13.338H468.135A13.4,13.4,0,0,1,481.61,235.917Z" transform="translate(-1003.9 3738.891)"/>
    <path id="Path_501" data-name="Path 501" class="cls-1" d="M481.61,235.917v105H260v-105a13.414,13.414,0,0,1,13.484-13.338H468.135A13.4,13.4,0,0,1,481.61,235.917Z" transform="translate(-1003.9 3738.891)"/>
    <path id="Path_502" data-name="Path 502" class="cls-3" d="M778.172,360.77a17.384,17.384,0,0,1,1.595-7.313l-10.9-5.937A29.94,29.94,0,0,0,788.379,389.8l2.208-12.243A17.565,17.565,0,0,1,778.172,360.77Z" transform="translate(-1367.416 3649.092)"/>
    <path id="Path_503" data-name="Path 503" class="cls-11" d="M879.2,434.169a29.969,29.969,0,0,1-33.046,13.641l2.208-12.249a17.248,17.248,0,0,0,5.153.773,17.547,17.547,0,0,0,14.794-8.106Z" transform="translate(-1425.187 3591.084)"/>
    <path id="Path_504" data-name="Path 504" class="cls-10" d="M833.581,318.112a29.752,29.752,0,0,1-4.258,15.391l-10.907-5.937A17.554,17.554,0,1,0,787.664,310.8l-10.9-5.937a29.954,29.954,0,0,1,56.815,13.245Z" transform="translate(-1375.314 3691.751)"/>
    <rect id="Rectangle_290" data-name="Rectangle 290" class="cls-1" width="72.988" height="67.053" transform="translate(-724.743 3975.219)"/>
    <path id="Path_505" data-name="Path 505" class="cls-12" d="M828.911,956.729c-4.008.233-8.3.4-11.726-1.688a1.639,1.639,0,0,1-.6-.546,1.125,1.125,0,0,1,.107-1.147,2.478,2.478,0,0,1,.928-.762,13.169,13.169,0,0,1,4.076-1.176c1.727-.3,3.454-.6,5.2-.779,1.125-.11,3.021-.562,3.938.34.717.714.563,1.969.445,2.886C831.04,955.478,830.725,956.622,828.911,956.729Z" transform="translate(-1403.855 3215.765)"/>
    <path id="Path_506" data-name="Path 506" class="cls-12" d="M924.52,941.816c-3.161,2.475-6.6,5.063-10.6,5.291a1.63,1.63,0,0,1-.807-.1,1.125,1.125,0,0,1-.563-1,2.506,2.506,0,0,1,.326-1.156,13.285,13.285,0,0,1,2.68-3.288c1.249-1.229,2.5-2.464,3.831-3.6.844-.726,2.166-2.183,3.42-1.969,1,.18,1.592,1.311,2.008,2.121C925.557,939.578,925.948,940.7,924.52,941.816Z" transform="translate(-1472.91 3226.156)"/>
    <path id="Path_507" data-name="Path 507" class="cls-8" d="M843.676,805.11q.025,2,.062,3.988a37.972,37.972,0,0,0,7.282.2.717.717,0,0,0,.844-.807c.518-6.6-.329-13.264.442-19.84a14.184,14.184,0,0,1,.942-4.014,18.568,18.568,0,0,1,2.25-3.555,82.924,82.924,0,0,0,6.75-11.034,25.864,25.864,0,0,0,2.5-12.558c-.056-4.329-2.27-6.2-6.494-5.08a3.51,3.51,0,0,0-2.784,2.093,103.662,103.662,0,0,0-6.77,12.91C843.847,779.228,843.518,792.287,843.676,805.11Z" transform="translate(-1423.388 3358.311)"/>
    <path id="Path_508" data-name="Path 508" class="cls-13" d="M843.676,805.11q.025,2,.062,3.988a37.972,37.972,0,0,0,7.282.2.717.717,0,0,0,.844-.807c.518-6.6-.329-13.264.442-19.84a14.184,14.184,0,0,1,.942-4.014,18.568,18.568,0,0,1,2.25-3.555,82.924,82.924,0,0,0,6.75-11.034,25.864,25.864,0,0,0,2.5-12.558c-.056-4.329-2.27-6.2-6.494-5.08a3.51,3.51,0,0,0-2.784,2.093,103.662,103.662,0,0,0-6.77,12.91C843.847,779.228,843.518,792.287,843.676,805.11Z" transform="translate(-1423.388 3358.311)"/>
    <path id="Path_509" data-name="Path 509" class="cls-14" d="M779.836,618.5a35.769,35.769,0,0,1-20.721-15.523c-.743-1.2-1.432-2.672-.894-3.983a.689.689,0,0,1,.312-.391c.242-.11.515.042.74.186l11.169,7.313c3.094,2.022,6.261,4.078,9.844,4.973.388,1.271,1.08,2.107,1.125,3.437A6.356,6.356,0,0,1,779.836,618.5Z" transform="translate(-1361.852 3468.656)"/>
    <rect id="Rectangle_291" data-name="Rectangle 291" class="cls-10" width="130.939" height="105.513" transform="translate(-586.114 4105.729) rotate(180)"/>
    <path id="Path_510" data-name="Path 510" class="cls-15" d="M753.588,715.652a4.575,4.575,0,0,0,2.022.768,55.549,55.549,0,0,0,14.572.942,2.291,2.291,0,0,0,1.347-.385,2.156,2.156,0,0,0,.6-1.555,14.527,14.527,0,0,0-.3-4.466c-.042-.188-11.841-.172-12.963,0C757.194,711.208,750.8,713.4,753.588,715.652Z" transform="translate(-1358.161 3387.975)"/>
    <path id="Path_511" data-name="Path 511" class="cls-15" d="M365.868,559.456a8.285,8.285,0,0,1,.051,2.86,9.978,9.978,0,0,1-1.952,3.625,61.106,61.106,0,0,0-8.359,16.386,36.009,36.009,0,0,1-.824-9.794,16.748,16.748,0,0,1,.267-3.46,21.712,21.712,0,0,1,1.811-4.5,33.89,33.89,0,0,0,2.368-7.186c.366-1.747.987-6.174,3.738-5.876C365.283,551.758,365.615,557.7,365.868,559.456Z" transform="translate(-1072.02 3502.485)"/>
    <path id="Path_512" data-name="Path 512" class="cls-8" d="M899.4,753.162a61.652,61.652,0,0,1-4.441,12.049c-1.558,3.268-5.161,7.473-5.144,11.177.028,6.655,7.031,15.562,11.324,20.13a38,38,0,0,1-7.248,3.738,2.8,2.8,0,0,1-1.775.253,2.924,2.924,0,0,1-1.488-1.522l-4.689-8.157c-2.613-4.537-5.3-9.307-5.515-14.539a36.679,36.679,0,0,1,.385-5.659c.5-4.005.045-8.545,1.007-12.438.88-3.549,2.033-7.071,2.86-10.688.416-1.808.931-3.775,2.43-4.869a6.449,6.449,0,0,1,2.109-.925c3.657-1.027,7.611-1.162,9.614,2.63C900.212,746.974,900.074,750.349,899.4,753.162Z" transform="translate(-1449.809 3366.216)"/>
    <path id="Path_513" data-name="Path 513" class="cls-3" d="M829.413,638.491c-1.991.723-.129,5.372.4,6.75a1.58,1.58,0,0,0,.579.844,1.64,1.64,0,0,0,1,.118q4.5-.419,8.95-1.066a4.727,4.727,0,0,0,1.893-.562,3.215,3.215,0,0,0,1.316-2.126c.281-1.406.411-4.737-.8-5.8-.878-.771-2.624-.225-3.772-.107A40.3,40.3,0,0,0,829.413,638.491Z" transform="translate(-1412.512 3441.577)"/>
    <path id="Path_514" data-name="Path 514" class="cls-16" d="M829.413,638.491c-1.991.723-.129,5.372.4,6.75a1.58,1.58,0,0,0,.579.844,1.64,1.64,0,0,0,1,.118q4.5-.419,8.95-1.066a4.727,4.727,0,0,0,1.893-.562,3.215,3.215,0,0,0,1.316-2.126c.281-1.406.411-4.737-.8-5.8-.878-.771-2.624-.225-3.772-.107A40.3,40.3,0,0,0,829.413,638.491Z" transform="translate(-1412.512 3441.577)"/>
    <path id="Path_515" data-name="Path 515" class="cls-14" d="M848.795,570.684c-.354.591-1.072.937-1.305,1.584-.281.782.264,1.589.543,2.371.388,1.091.281,2.312.647,3.406a1.294,1.294,0,0,0,.385.616,1.424,1.424,0,0,0,.579.228,8.367,8.367,0,0,0,2.47.143.737.737,0,0,1,.481.065.679.679,0,0,1,.214.419,13.22,13.22,0,0,1-.1,6.281c-.177.678-.374,1.5.126,1.991a1.387,1.387,0,0,0,.639.321c1.564.38,3.071-.776,4.129-1.991a18.351,18.351,0,0,0,2.422-3.561,3.483,3.483,0,0,0,.416-1.142,4.048,4.048,0,0,0-.217-1.547,26.238,26.238,0,0,1-.81-5.223c-.118-2.25.045-4.61-.818-6.7a3.518,3.518,0,0,0-1.37-1.761,4.435,4.435,0,0,0-2.433-.391c-1.645.065-3.448.281-4.565,1.491C849.906,567.629,849.231,569.95,848.795,570.684Z" transform="translate(-1426.094 3492.222)"/>
    <path id="Path_516" data-name="Path 516" class="cls-8" d="M852.241,554.971c-.669-.124-1.173.773-.911,1.406a2.061,2.061,0,0,0,1.64,1.066,14.54,14.54,0,0,1,2.017.3,1.644,1.644,0,0,1,1.252,1.437,1.51,1.51,0,0,1,1.688,1.125,4.622,4.622,0,0,1-.079,2.23c.205.222.591.07.787-.16s.321-.54.585-.689c.563-.326,1.266.405,1.187,1.055a2.91,2.91,0,0,1-1.074,1.6,1.028,1.028,0,0,0-.281.36c-.2.546.532.937,1.1,1.06a3.094,3.094,0,0,0,.146,1.254,1.058,1.058,0,0,0,.962.706c.38-.02.684-.307,1.032-.456s.886-.053.917.326c.588-1.226-.037-2.368.217-3.533.231-1.066,1.17-.669,1.814-1.387.357-.4.326-1,.492-1.5.211-.65.751-1.167.9-1.834.247-1.125-.689-2.14-1.544-2.919a1.066,1.066,0,0,0-.281-1.232,2.4,2.4,0,0,0-1.229-.534.651.651,0,0,1-.332-.132c-.146-.141-.115-.377-.1-.579.281-3.417-5.3-2.47-7.361-2.3a5.3,5.3,0,0,0-2.4.813C853.181,552.612,851.482,554.833,852.241,554.971Z" transform="translate(-1428.86 3502.568)"/>
    <path id="Path_517" data-name="Path 517" class="cls-3" d="M867.776,621.867l-.141.031c-2.984.745-7.341,3.471-8.32,6.5-1.226,3.8-2.031,8.916-1.145,12.845.616,2.731,2.273,5.113,2.967,7.777.773,2.95.9,5.839,2.1,8.719A6.48,6.48,0,0,0,865.636,661a7.194,7.194,0,0,0,3.3.723c3.347.177,8.047,1.311,10.823-.99a9.015,9.015,0,0,0,2.838-7.479,26.628,26.628,0,0,0-2.141-7.985l-4.658-12.15C874.675,630.2,871.95,621.042,867.776,621.867Z" transform="translate(-1433.557 3451.947)"/>
    <path id="Path_518" data-name="Path 518" class="cls-17" d="M875.077,690.94a2.644,2.644,0,0,0-.349,2.484,22.157,22.157,0,0,1,.607,6.039,1.406,1.406,0,0,1-.315,1,1.462,1.462,0,0,1-.911.281,6.664,6.664,0,0,1-3.454-.346,6.053,6.053,0,0,1-2.531-3.2,62.223,62.223,0,0,1-3.375-11.411,4.909,4.909,0,0,1-.18-1.932,3.8,3.8,0,0,1,1.744-2.318c.821-.56,1.738-.97,2.531-1.575,1.541-1.184,2.68-3.327,4.781-3.6a3.113,3.113,0,0,1,3.254,2.315C878.2,682.381,876.765,687.6,875.077,690.94Z" transform="translate(-1438.406 3412.755)"/>
    <path id="Path_519" data-name="Path 519" class="cls-3" d="M870.807,646.9s-4.267,11.546-5.108,12.39,8.2,5.951,8.2,5.951,5.906-11.228,5.625-16.094S874.131,642.313,870.807,646.9Z" transform="translate(-1439.198 3435.781)"/>
    <path id="Path_520" data-name="Path 520" class="cls-14" d="M801.8,702.736s-.312,3.718-4.874,3.656l-7.709-.11c-3.552-.048-7.11-.169-10.663-.143a10.594,10.594,0,0,0-2.531.658,10.334,10.334,0,0,1-9.3-2.531c-.962-.931-1.769-2.346-1.2-3.561a.812.812,0,0,1,.354-.408.988.988,0,0,1,.444-.056c2.149.068,4.374.616,6.4-.107a1.708,1.708,0,0,1-.262-.906c.031-.315.323-.63.633-.563a.946.946,0,0,1,.413.3,5.045,5.045,0,0,0,4.171,1.648c5.848-.281,11.616-1.522,17.464-1.786a10.125,10.125,0,0,1,4.061.427A4.746,4.746,0,0,1,801.8,702.736Z" transform="translate(-1367.095 3396.717)"/>
    <path id="Path_521" data-name="Path 521" class="cls-14" d="M362.4,962.474a4.168,4.168,0,0,1,1.325.34,1.213,1.213,0,0,1,.7,1.091,1.344,1.344,0,0,1-.8,1c-.4.2-.844.3-1.243.512a7.206,7.206,0,0,1-1.083.6,3.056,3.056,0,0,1-1.946-.281,25.638,25.638,0,0,0-8.851-1.465,3.252,3.252,0,0,1-.875-.059,2.653,2.653,0,0,1-1.6-1.969,12.7,12.7,0,0,1,.056-5.679,1.272,1.272,0,0,1,.214-.588,1.106,1.106,0,0,1,.475-.3c2.97-1.108,4.219,1.834,6.162,3.406a15.9,15.9,0,0,0,7.465,3.381Z" transform="translate(-1066.95 3212.156)"/>
    <path id="Path_522" data-name="Path 522" class="cls-3" d="M349.278,973.235c.194.031.391.053.585.073a24.507,24.507,0,0,0,3.988.107,1.408,1.408,0,0,0,.728-.175,1.2,1.2,0,0,0,.439-.965,5.446,5.446,0,0,1,.073-1.094.264.264,0,0,1,.307-.239,6.382,6.382,0,0,1,2.922.816,10.034,10.034,0,0,1,4.528,3.679.888.888,0,0,1,.16.472.819.819,0,0,1-.155.411c-1.2,1.865-4.185,1.406-6.013,1.018-2.039-.43-4-1.2-6.058-1.525-2.25-.357-4.714-.2-6.669-1.392a2.181,2.181,0,0,1-.79-.734c-.54-.951.124-2.467.8-3.2a.463.463,0,0,1,.695-.076c.939.579,1.55,1.589,2.486,2.174A5.156,5.156,0,0,0,349.278,973.235Z" transform="translate(-1063.645 3201.481)"/>
    <path id="Path_523" data-name="Path 523" class="cls-8" d="M274.854,711.63s-9.231,5.282-6.643,14.952c2.25,8.438,8.742,13.692,12.89,20.906,2.3,4,1.879,10.528,2.852,15.188a110.219,110.219,0,0,0,4.917,16.758c.416,1.1,1.1,2.371,2.273,2.408.563.02,1.08-.264,1.637-.281a8.486,8.486,0,0,0,1.569.053c1.342-.307,1.333-2.208,1.029-3.552a111.812,111.812,0,0,1-2.638-19.705c-.225-5.108,1.162-10.533-.281-15.486-1.156-3.938-8.01-24.948-8.01-24.948Z" transform="translate(-1009.472 3387.393)"/>
    <path id="Path_524" data-name="Path 524" class="cls-14" d="M295.335,973.077a4.291,4.291,0,0,1,1.2.661,1.215,1.215,0,0,1,.411,1.232,1.333,1.333,0,0,1-1.029.771c-.439.1-.894.084-1.333.188a7.245,7.245,0,0,1-1.2.318,3.143,3.143,0,0,1-1.817-.748,25.629,25.629,0,0,0-8.207-3.617,3.253,3.253,0,0,1-.844-.281,2.6,2.6,0,0,1-1.06-2.3,12.6,12.6,0,0,1,1.465-5.485,1.238,1.238,0,0,1,.354-.517,1.074,1.074,0,0,1,.534-.172c3.15-.338,3.637,2.813,5.122,4.832A15.9,15.9,0,0,0,295.335,973.077Z" transform="translate(-1019.318 3206.652)"/>
    <path id="Path_525" data-name="Path 525" class="cls-8" d="M272.469,734.237A11.781,11.781,0,0,0,266,737.4c-3.87,3.279-3.595,9.985-2.289,14.884.686,2.582,4.781,10.688,5.383,12.972,1.142,4.36-1.139,9.76-1.339,14.164a110.667,110.667,0,0,0,.593,17.455c.135,1.167.478,2.568,1.6,2.9.534.158,1.125,0,1.662.121a8.274,8.274,0,0,0,1.5.442c1.378.036,1.842-1.806,1.882-3.184a111.55,111.55,0,0,1,2.343-19.745c1.052-5,3.744-9.914,3.572-15.07-.141-4.219-.264-8.41-.394-12.615-.143-4.674.506-9.408-.917-13.906a2.617,2.617,0,0,0-.827-1.406,2.565,2.565,0,0,0-1.344-.357,26.835,26.835,0,0,0-4.171.093C273.009,734.175,272.727,734.2,272.469,734.237Z" transform="translate(-1005.939 3371.306)"/>
    <path id="Path_526" data-name="Path 526" class="cls-14" d="M290.817,554.174c.352.594,1.072.937,1.3,1.586.281.782-.262,1.586-.543,2.368-.388,1.091-.264,2.312-.644,3.406a1.288,1.288,0,0,1-.388.619,1.444,1.444,0,0,1-.579.225,8.352,8.352,0,0,1-2.467.146.7.7,0,0,0-.481.065.653.653,0,0,0-.214.416,13.179,13.179,0,0,0,.1,6.281c.18.678.374,1.5-.126,1.991a1.342,1.342,0,0,1-.636.321c-1.567.382-3.074-.776-4.129-1.991a18.3,18.3,0,0,1-2.422-3.558,3.54,3.54,0,0,1-.419-1.142,4.192,4.192,0,0,1,.217-1.55,26.019,26.019,0,0,0,.81-5.223c.118-2.25-.045-4.61.821-6.7a3.53,3.53,0,0,1,1.367-1.761,4.445,4.445,0,0,1,2.436-.391c1.643.065,3.445.281,4.562,1.493C289.7,551.119,290.381,553.443,290.817,554.174Z" transform="translate(-1017.672 3504.088)"/>
    <path id="Path_527" data-name="Path 527" class="cls-3" d="M259.438,589.4c.619-.045,1.243-.048,1.862-.051a15.853,15.853,0,0,1,3.375.242,5.445,5.445,0,0,1,2.934,1.575c.478.534.807,1.184,1.26,1.741a2.4,2.4,0,0,0,1.811,1.018,6.666,6.666,0,0,0,1.426-.371c.686-.157,1.406-.037,2.09-.183a4.3,4.3,0,0,0,1.668-1.08q1.775-1.406,3.423-2.973c.546-.515,6.244-6.612,6.019-6.773a10.352,10.352,0,0,1,2.3,2.287,1.907,1.907,0,0,1,.43.956,2.034,2.034,0,0,1-.253.948,55.088,55.088,0,0,1-6.916,11.36,27.774,27.774,0,0,1-4.964,5c-1.218.925-2.664,1.73-3.415,3.125-1.688,3.128-.02,7.9,0,11.228,0,1.142-.472,2.073-.47,3.235,0,2.025,1.758,3.822,1.125,5.907-.526,1.724-2.509,2.464-4.241,2.964l-6.8,1.969c-1.508.436-3.2.844-4.579.1-1.713-.939-2.09-3.192-2.25-5.139-.405-5.026-.25-11.054-2.332-15.751a14.468,14.468,0,0,1-1.221-8.565,32.471,32.471,0,0,1,1.536-7.5c.377-1.044.872-2.059,1.347-3.057a4.079,4.079,0,0,1,2.349-1.724,8.52,8.52,0,0,1,2.495-.495Z" transform="translate(-997.825 3480.168)"/>
    <path id="Path_528" data-name="Path 528" d="M245.291,542.687a4.616,4.616,0,0,1-1.5,2.891c-.8.751-1.792,1.263-2.616,1.969a3.255,3.255,0,0,0-1.311,2.852,1.481,1.481,0,0,0-1.792.563,1.184,1.184,0,0,0,.191,1.24,1.491,1.491,0,0,0,1.181.49,4.674,4.674,0,0,0-2.109,1.7,13.772,13.772,0,0,0-1.294,3.325,14.392,14.392,0,0,1-1.305,2.014,10.485,10.485,0,0,0-.872,4.1,10.777,10.777,0,0,1-2.574,6.011,6.872,6.872,0,0,1-5.971,2.25,5.085,5.085,0,0,1-4.247-4.452,2.713,2.713,0,0,1-1.994-1.876,6.654,6.654,0,0,1-.16-2.849,7.054,7.054,0,0,1,.844-2.959c.982-1.558,2.858-2.25,4.5-3.094a17.34,17.34,0,0,0,2.121-1.291,2.437,2.437,0,0,0,.771-.754,3.179,3.179,0,0,0-.042-2.219,4.479,4.479,0,0,1,.467-3.535,5.965,5.965,0,0,1,2.759-1.814l2.647-1.1a1.48,1.48,0,0,0,.6-.368,1.4,1.4,0,0,0,.236-.546,25.751,25.751,0,0,1,1.041-3.845c1.125-2.559,3.828-3.375,6.4-2.925C243.435,538.876,245.511,540.235,245.291,542.687Z" transform="translate(-974.321 3511.941)"/>
    <path id="Path_529" data-name="Path 529" class="cls-3" d="M267.837,621s12.151,1.969,13.3,1.651,1.125,10.083,1.125,10.083-12.682-.383-16.78-3.021S262.206,621.647,267.837,621Z" transform="translate(-1005.993 3452.532)"/>
    <path id="Path_530" data-name="Path 530" class="cls-3" d="M281.464,984.28c.174.053.352.1.526.143a23.246,23.246,0,0,0,3.656.6,1.367,1.367,0,0,0,.692-.07,1.125,1.125,0,0,0,.526-.844,4.961,4.961,0,0,1,.2-1,.3.3,0,0,1,.121-.16.341.341,0,0,1,.191-.023,5.879,5.879,0,0,1,2.582,1.125,9.334,9.334,0,0,1,3.7,3.938.865.865,0,0,1,.087.456.772.772,0,0,1-.2.36c-1.33,1.561-4.019.765-5.651.177-1.817-.653-3.521-1.606-5.372-2.163-2.034-.61-4.306-.774-5.952-2.115a2.006,2.006,0,0,1-.633-.773c-.377-.942.422-2.25,1.125-2.841a.419.419,0,0,1,.641.02c.79.647,1.224,1.654,2.011,2.306A4.727,4.727,0,0,0,281.464,984.28Z" transform="translate(-1015.289 3193.82)"/>
    <path id="Path_531" data-name="Path 531" class="cls-3" d="M382.29,410.76H496.081v79.2H382.29Zm112.787,1.015H383.305V488.94H495.063Z" transform="translate(-1091.794 3603.64)"/>
    <path id="Path_532" data-name="Path 532" class="cls-14" d="M372.237,549.625a5.883,5.883,0,0,1,.813-3.676l.579,2.385a20.446,20.446,0,0,1,3.2-6.244,9.007,9.007,0,0,1-.661,3.938,31.477,31.477,0,0,1,2.073-3.566c.484,1.361-.748,2.717-.906,4.154a7.183,7.183,0,0,1,1.792-1.873,1.486,1.486,0,0,1-.2,1.3l-1.285,2.517a6.136,6.136,0,0,1,1.223-.984c.4.973-.4,1.969-.863,2.919-.34.7-.5,1.474-.844,2.18a5.11,5.11,0,0,1-3.181,2.706c-.495-.869-1.558-.939-1.721-1.9A24.878,24.878,0,0,1,372.237,549.625Z" transform="translate(-1084.514 3509.248)"/>
    <rect id="Rectangle_292" data-name="Rectangle 292" class="cls-3" width="7.968" height="52.765" transform="translate(-700.63 4039.814)"/>
    <rect id="Rectangle_293" data-name="Rectangle 293" class="cls-3" width="7.968" height="64.511" transform="translate(-682.885 4028.068)"/>
    <rect id="Rectangle_294" data-name="Rectangle 294" class="cls-3" width="7.968" height="42.26" transform="translate(-664.567 4050.317)"/>
    <rect id="Rectangle_295" data-name="Rectangle 295" class="cls-3" width="7.968" height="64.511" transform="translate(-646.251 4028.068)"/>
    <rect id="Rectangle_296" data-name="Rectangle 296" class="cls-3" width="7.968" height="54.627" transform="translate(-627.932 4037.952)"/>
    <rect id="Rectangle_297" data-name="Rectangle 297" class="cls-18" width="7.968" height="71.694" transform="translate(-609.616 4020.885)"/>
    <line id="Line_45" data-name="Line 45" class="cls-19" x1="30.751" y1="16.763" transform="translate(-587.649 4002.552)"/>
  </g>
</svg>
