<svg xmlns="http://www.w3.org/2000/svg" xmlns:xlink="http://www.w3.org/1999/xlink" width="602" height="493.121" viewBox="0 0 602 493.121">
  <defs>
    <style>
      .cls-1, .cls-4, .cls-7 {
        fill: #707070;
      }

      .cls-1 {
        opacity: 0.18;
      }

      .cls-1, .cls-3, .cls-4 {
        isolation: isolate;
      }

      .cls-2 {
        fill: url(#linear-gradient);
      }

      .cls-3 {
        fill: #00a2e9;
        opacity: 0.757;
      }

      .cls-4 {
        opacity: 0.5;
      }

      .cls-5 {
        fill: #fff;
      }

      .cls-6 {
        fill: url(#linear-gradient-2);
      }

      .cls-8 {
        fill: url(#linear-gradient-3);
      }

      .cls-9 {
        fill: url(#linear-gradient-4);
      }

      .cls-10 {
        fill: url(#linear-gradient-5);
      }

      .cls-11 {
        fill: url(#linear-gradient-6);
      }

      .cls-12 {
        fill: #ffbbab;
      }

      .cls-13 {
        fill: #473f47;
      }

      .cls-14 {
        fill: #212741;
      }

      .cls-15 {
        fill: url(#linear-gradient-7);
      }

      .cls-16 {
        fill: url(#linear-gradient-8);
      }

      .cls-17 {
        fill: url(#linear-gradient-9);
      }

      .cls-18 {
        fill: #282328;
      }

      .cls-19 {
        fill: #020202;
        opacity: 0.1;
      }

      .cls-20 {
        fill: #221f1e;
      }

      .cls-21 {
        fill: #e0a194;
      }

      .cls-22 {
        fill: url(#linear-gradient-10);
      }

      .cls-23 {
        fill: #f8f8f8;
      }

      .cls-24 {
        fill: url(#linear-gradient-11);
      }
    </style>
    <linearGradient id="linear-gradient" x1="0.337" y1="-7.305" x2="0.697" y2="9.785" gradientUnits="objectBoundingBox">
      <stop offset="0.01"/>
      <stop offset="0.08" stop-opacity="0.69"/>
      <stop offset="0.21" stop-opacity="0.322"/>
      <stop offset="1" stop-opacity="0"/>
    </linearGradient>
    <linearGradient id="linear-gradient-2" x1="0.721" y1="-0.401" x2="0.298" y2="1.712" xlink:href="#linear-gradient"/>
    <linearGradient id="linear-gradient-3" x1="2.525" y1="0.34" x2="-1.021" y2="1.279" xlink:href="#linear-gradient"/>
    <linearGradient id="linear-gradient-4" x1="4.199" y1="0.265" x2="11.148" y2="1.006" xlink:href="#linear-gradient"/>
    <linearGradient id="linear-gradient-5" x1="-22.057" y1="11.211" x2="-20.918" y2="7.466" xlink:href="#linear-gradient"/>
    <linearGradient id="linear-gradient-6" x1="3.288" y1="-0.177" x2="4.447" y2="1.922" xlink:href="#linear-gradient"/>
    <linearGradient id="linear-gradient-7" x1="5.46" y1="0.552" x2="-0.338" y2="0.715" xlink:href="#linear-gradient"/>
    <linearGradient id="linear-gradient-8" x1="1.754" y1="0.14" x2="4.585" y2="1.074" xlink:href="#linear-gradient"/>
    <linearGradient id="linear-gradient-9" x1="2.658" y1="0.446" x2="-6.329" y2="0.67" xlink:href="#linear-gradient"/>
    <linearGradient id="linear-gradient-10" x1="-4.168" y1="-0.378" x2="-2.3" y2="1.596" xlink:href="#linear-gradient"/>
    <linearGradient id="linear-gradient-11" x1="-2.248" y1="0.887" x2="-0.108" y2="-0.153" xlink:href="#linear-gradient"/>
  </defs>
  <g id="strategy" transform="translate(1024 -5493)">
    <path id="Path_588" data-name="Path 588" class="cls-1" d="M20.693,366.384a240.1,240.1,0,0,0,9.567,37.408c1.833,5.315,3.913,10.905,6.351,16.615,13.838,32.386,38.37,68.5,80.644,80.03,55.388,15.1,210.857-36.73,299.528-10.658,83.512,24.56,135.079,6.745,165.3-23.048a117.985,117.985,0,0,0,13.554-16c22.479-31.845,26.7-70.087,22.2-87.288-6.946-26.512-15.515-53.088-15.753-80.754-.229-28.949,9.916-57.413,11-86.564,2.813-73.78-49-146.222-119.738-167.373C463.1,19.7,438.356,10.423,406.7,10.194c-64.149-.55-216.273,0-291.235,109.053-13.4,19.483-32.862,34.045-47.8,52.373-20.014,24.56-33.22,54.178-41.238,84.823C17.092,292.155,14.773,330.021,20.693,366.384Z" transform="translate(-1041.444 5482.87)"/>
    <path id="Path_589" data-name="Path 589" class="cls-2" d="M43.46,439c1.833,5.315,3.913,10.905,6.351,16.615,8.7.247,17.412.477,26.1.733,5.728.156,11.813.422,16.5,3.666,8.907,6.112,1.191,10.42,2.181,16.5,1.155,7.194,8.44,8.678,15.451,8.706,24.175.1,47.562,7.854,71.287,12.527s49.642,6.012,70.756-5.764c1.457-.8,2.969-1.787,3.519-3.354,1-2.813-1.576-5.544-4.032-7.24a51.777,51.777,0,0,0-17.962-7.8c-3.794-.852-7.8-1.32-11.116-3.363s-5.663-6.369-4-9.888q82.623,5.141,164.908,14.5c70.564,8.028,140.357,21.994,211.2,27.043l.66.064a117.987,117.987,0,0,0,13.554-16,10.28,10.28,0,0,0-.981-1.21c-3.492-3.73-8.541-5.5-13.425-7.02-27.245-8.431-55.58-12.7-83.8-16.954-140.211-21.132-282.107-36.18-423.977-26.246C72.208,435.513,57.8,436.97,43.46,439Z" transform="translate(-1054.643 5447.657)"/>
    <rect id="Rectangle_304" data-name="Rectangle 304" class="cls-3" width="43.474" height="330.384" transform="translate(-678.179 5553.776)"/>
    <rect id="Rectangle_305" data-name="Rectangle 305" class="cls-4" width="43.474" height="224.19" transform="translate(-774.557 5656.405)"/>
    <rect id="Rectangle_306" data-name="Rectangle 306" class="cls-4" width="43.474" height="149.576" transform="translate(-854.78 5731.019)"/>
    <path id="Path_590" data-name="Path 590" class="cls-5" d="M249.3,337.4,122.166,356.251V460.465H107.65v6.167H141.1v-3.968H126.152V376.256l120.215-23.24v84.108H229.633v2.859H263.32v-3.3H249.3Z" transform="translate(-783.977 5464.796)"/>
    <path id="Path_591" data-name="Path 591" class="cls-6" d="M247.149,337.4,120.006,356.251V460.465H105.49v6.167h33.458v-3.968H123.992V376.256l120.215-23.24v84.108H227.473v2.859H261.16v-3.3H247.149Z" transform="translate(-779.838 5464.796)"/>
    <path id="Path_592" data-name="Path 592" class="cls-7" d="M556.982,339.538l-2.126,104.416H540.707l-4.078-82.99-8.917,82.99L511.5,446.676,507.78,336.12Z" transform="translate(-1444.322 5464.903)"/>
    <path id="Path_593" data-name="Path 593" class="cls-8" d="M556.982,339.538l-2.126,104.416H540.707l-4.078-82.99-8.917,82.99L511.5,446.676,507.78,336.12Z" transform="translate(-1444.322 5464.903)"/>
    <path id="Path_594" data-name="Path 594" class="cls-9" d="M560.246,442.332V345.55l-13.416-9.43,4.527,107.834Z" transform="translate(-1483.372 5464.903)"/>
    <path id="Path_595" data-name="Path 595" class="cls-7" d="M545.68,255.306v.44c-.348,7.964-.916,15.955-1.833,23.882-.394,3.354-.376,8.385-2.1,11.4-2.539,4.435-14.388-.641-18.127-2.346a113.617,113.617,0,0,1-15.726-9.357,2.9,2.9,0,0,1-1.008-.916,2.7,2.7,0,0,1-.266-1.228,32.239,32.239,0,0,1,7.954-22.91,123.512,123.512,0,0,0,14.745,15.817l.715-3.666,2.144-11c.641-3.272.238-5.5,3.831-4.151C539.284,252.5,542.473,253.959,545.68,255.306Z" transform="translate(-1415.929 5462.746)"/>
    <path id="Path_596" data-name="Path 596" class="cls-10" d="M546.362,256.184c-.284,6.516-.715,13.031-1.347,19.529-.5,5.251.165,18.7-7.68,17.733-6.277-.77-11.666-4.729-17.677-6.653-2.172-.7-4.472-1.146-6.415-2.309a13.214,13.214,0,0,1-5.5-7.753,39.4,39.4,0,0,1-1.155-9.622c5.407,2.144,9.815,6.158,14.378,9.769a39.285,39.285,0,0,0,9.861,6.1c4.17,1.64,5.59,1.43,5.407-3.244a65.313,65.313,0,0,1,3.052-22.434,1.979,1.979,0,0,1,.5-.916,1.751,1.751,0,0,1,1.145-.257C542.733,256.138,544.557,256.138,546.362,256.184Z" transform="translate(-1416.62 5462.308)"/>
    <path id="Path_597" data-name="Path 597" class="cls-7" d="M539.566,249.19q-5.651,2.839-11,6.232c-7.57,4.848-6.213,7.1-4.811,15.469a330.7,330.7,0,0,1,4.4,54.187c0,4.261-.284,8.953.916,13.1.788,2.749,2.6,4.958,2.8,7.817,11.675,1.6,38.4,7.615,46.407-4.39,7.652-11.483-6.122-52.29-3.574-70.408s-20.922-20.161-20.922-20.161Z" transform="translate(-1465.615 5462.886)"/>
    <path id="Path_598" data-name="Path 598" class="cls-11" d="M574.951,338.623,553.791,352.9l-3.464-4.417a78.158,78.158,0,0,1-2.832-22.617c.513-11.4-.055-7.331-.055-7.331l29.774,18.832Z" transform="translate(-1484.907 5457.149)"/>
    <path id="Path_599" data-name="Path 599" class="cls-12" d="M561.91,228.548a16.78,16.78,0,0,1-3.116,10.64,5.5,5.5,0,0,1-1.5,1.952c-1.228.861-2.887.586-4.371.348a2.016,2.016,0,0,0-1.045,0c-.834.312-.916,1.439-.916,2.337l.229,4.151a2.621,2.621,0,0,1-.284,1.659,2.144,2.144,0,0,1-1.1.715,8.871,8.871,0,0,1-8.926-2.025,5.966,5.966,0,0,1-1.411-1.9,7.865,7.865,0,0,1-.513-2.154c-.5-3.959-.092-7.991-.367-11.977-.229-3.308-.916-6.662-.293-9.925a11,11,0,0,1,6.415-8.092c3.308-1.338,7.075-.742,10.511.229a48.465,48.465,0,0,1,4.875,1.659,3.3,3.3,0,0,1,1.9,1.375c.632,1.274-.055,3.125-.083,4.49C561.873,224.222,561.91,226.385,561.91,228.548Z" transform="translate(-1461.337 5465.87)"/>
    <path id="Path_600" data-name="Path 600" class="cls-13" d="M564.833,211.8c.357.806.916,1.512,1.31,2.291a3.473,3.473,0,0,1,.44,2.538,3.6,3.6,0,0,1-1.265,1.7c-2.749,2.254-6.534,2.749-10.08,2.529a16.672,16.672,0,0,0-3.024,0,4.215,4.215,0,0,0-2.676,1.292c-1.045,1.21-.981,2.978-1.31,4.536a.449.449,0,0,1-.119.266.476.476,0,0,1-.192.064c-1.127.147-2.181-1.191-3.217-.742a1.677,1.677,0,0,0-.852,1.43,3.977,3.977,0,0,0,.293,2.034,2.089,2.089,0,0,1,.257.8,1.521,1.521,0,0,1-.137.559l-.715,1.97a3.07,3.07,0,0,1-1.246,1.833c-.861.431-1.833-.046-2.7-.532a4.261,4.261,0,0,1-1.457-1.21,4.076,4.076,0,0,1-.522-1.42,67.675,67.675,0,0,1-1.191-14.974,8.762,8.762,0,0,1,.486-3.455c.962-2.209,3.528-3.207,5.893-3.721a64.086,64.086,0,0,1,13.26-.916,18.519,18.519,0,0,1,4.151.293,6.415,6.415,0,0,1,3.574,2.007" transform="translate(-1464.242 5466.277)"/>
    <path id="Path_601" data-name="Path 601" class="cls-13" d="M539.957,234.875a3.1,3.1,0,0,0-1.558,1.714.275.275,0,0,0,0,.238.294.294,0,0,0,.22.082,33.226,33.226,0,0,0,4.582,0,8.8,8.8,0,0,0,3.464-.843.494.494,0,0,0,.211-.174.412.412,0,0,0,0-.229,2.282,2.282,0,0,0-2.465-2.154A9.9,9.9,0,0,0,539.957,234.875Z" transform="translate(-1446.276 5464.198)"/>
    <path id="Path_602" data-name="Path 602" class="cls-5" d="M550.584,247.11s-3.235,2.273-3.152,4.738,17.641,51.979,17.641,51.979.412-47.36,0-49.578a36.085,36.085,0,0,0-2.383-6.195S555.688,253.094,550.584,247.11Z" transform="translate(-1472.94 5463.061)"/>
    <path id="Path_603" data-name="Path 603" class="cls-14" d="M531.154,241.87,529.99,245.7l1.979,1.659.944,26.869,6.983,19.849.174-20.188-6-26.658,2.19-3.757-2.887-1.6Z" transform="translate(-1447.764 5472.782)"/>
    <path id="Path_604" data-name="Path 604" class="cls-7" d="M594.827,322.456a45.992,45.992,0,0,1-7.01,7.121c-.522.431-1.063.871-1.613,1.265a3.831,3.831,0,0,1-2.062.962,4.2,4.2,0,0,1-1.521-.357c-10.218-3.986-20.262-8.486-30.022-13.462-4.1-2.108-8.6-4.857-9.457-9.375a14.905,14.905,0,0,1,.1-4.729,136.826,136.826,0,0,1,8.9-33.284c1.237-3.024,2.749-8.843,6-10.8h0l.376-.2.458-.22c4.362-1.576,8.129,2.749,9.329,6.415,1.686,5.224.871,10.905-.495,16.22s-3.253,10.511-3.73,15.982a4.373,4.373,0,0,0,.22,2.227,4.866,4.866,0,0,0,1.686,1.686Z" transform="translate(-1498.452 5462.063)"/>
    <path id="Path_605" data-name="Path 605" class="cls-14" d="M513.685,463.821l.77,7.689,4.839.916,2.172-1.915,3.666,2.933h14.58s3.666-6.415-4.335-8.541l-8.037-2.172Z" transform="translate(-1417.31 5445.037)"/>
    <path id="Path_606" data-name="Path 606" class="cls-14" d="M544.675,463.821l.77,7.689,4.839.916,2.172-1.915,3.666,2.933h14.589s3.666-6.415-4.335-8.541l-8.037-2.172Z" transform="translate(-1476.708 5445.037)"/>
    <path id="Path_607" data-name="Path 607" class="cls-15" d="M517.89,362.749l6.5-5.269,4.591,87.151-7.01,1.109Z" transform="translate(-1425.583 5463.118)"/>
    <path id="Path_608" data-name="Path 608" class="cls-16" d="M595.457,329.6c-.522.431-1.063.871-1.613,1.265a3.831,3.831,0,0,1-2.062.962,4.2,4.2,0,0,1-1.521-.357C580.043,327.48,570,322.98,560.239,318c-4.1-2.108-8.6-4.857-9.457-9.375a14.9,14.9,0,0,1,.1-4.729,136.832,136.832,0,0,1,8.9-33.284c1.237-3.024,2.749-8.843,6-10.8h0l.376-.2.458-.22a9.732,9.732,0,0,1,9.329,6.415s-15.478,31.671-14.809,36.436,33.146,20.28,33.146,20.28Z" transform="translate(-1506.083 5462.033)"/>
    <path id="Path_609" data-name="Path 609" class="cls-12" d="M549.321,330.892a6,6,0,0,1,2.319,1.155,2.273,2.273,0,0,1,.742,2.346,9.331,9.331,0,0,1-.916,1.393c-.431.742-.477,1.659-.861,2.428a5.5,5.5,0,0,1-3.244,2.355c-3.867,1.393-8.587,1.595-11.7-1.081-2.282-1.952-6.827-9.971-1.833-11.18,1.833-.449,4.49.394,6.342.651A57.22,57.22,0,0,1,549.321,330.892Z" transform="translate(-1445.615 5456.284)"/>
    <path id="Path_610" data-name="Path 610" class="cls-7" d="M504.159,227.1s21.673-3.739,26.154-9.824v22.846s-5.123-4.8-26.154-5.123C504.159,234.967,500,231.548,504.159,227.1Z" transform="translate(-1396.649 5465.554)"/>
    <ellipse id="Ellipse_73" data-name="Ellipse 73" class="cls-7" cx="4.215" cy="12.06" rx="4.215" ry="12.06" transform="translate(-869.644 5682.055)"/>
    <ellipse id="Ellipse_74" data-name="Ellipse 74" class="cls-17" cx="3.675" cy="10.52" rx="3.675" ry="10.52" transform="translate(-869.103 5683.595)"/>
    <path id="Path_611" data-name="Path 611" class="cls-7" d="M518.18,236.261s-.641,11.693,2.749,13.215,4.8-.4,4.481-1.045-3.62-9.063-2.126-11.418S518.18,236.261,518.18,236.261Z" transform="translate(-1406.29 5464.012)"/>
    <path id="Path_612" data-name="Path 612" class="cls-12" d="M523.219,247.349c0-2.044.2-4.179-.6-6.067a3.739,3.739,0,0,0-1.255-1.631,4.866,4.866,0,0,0-1.75-.651,24.184,24.184,0,0,0-8.321-.321,1.146,1.146,0,0,0-1.164.861,8.981,8.981,0,0,0,.128,6.415,26.522,26.522,0,0,0,3.235,5.718,8.6,8.6,0,0,0,2.172,2.456c1.833,1.191,6.177,1.549,7.863-.064a2.382,2.382,0,0,0,.44-2.511,17.459,17.459,0,0,1-.742-4.206Z" transform="translate(-1397.152 5463.783)"/>
    <path id="Path_613" data-name="Path 613" class="cls-7" d="M502.7,228.567a1.686,1.686,0,0,1,.742.348,1.21,1.21,0,0,1,.321.843,2.612,2.612,0,0,1-.971,1.979,4.9,4.9,0,0,1-2.044.916.523.523,0,0,1-.238,0,.467.467,0,0,1-.211-.147,3.455,3.455,0,0,1-.761-1.961,3.665,3.665,0,0,1,0-1.448C500.028,227.449,501.531,228.246,502.7,228.567Z" transform="translate(-1367.5 5464.65)"/>
    <path id="Path_614" data-name="Path 614" class="cls-18" d="M294.892,315.712s-22.342,32.349-25.238,32.514-65.622,2.377-65.622,2.377v-16.59s25.45-1.7,35.647-.838c7.674.23,13.961.838,13.961.838s12.494-24.34,15.518-29.188S294.892,315.712,294.892,315.712Z" transform="translate(-902.516 5458.313)"/>
    <path id="Path_616" data-name="Path 616" class="cls-12" d="M214.452,222.408l-7.194,1.558c-2.483.541-5.205,1.228-6.653,3.308-1.365,1.943-1.21,4.536-.916,6.891.376,3.152.871,6.3,1.485,9.412.816,4.142,1.833,8.248,2.273,12.445,1.036,10.365-1.7,20.693-4.4,30.746-.916,3.235,3.317,5.572,6.415,6.846a36.9,36.9,0,0,0,18.686,2.438,3.583,3.583,0,0,0,1.631-.5,3.785,3.785,0,0,0,1.2-2.328c1.283-5.4,2.282-10.887,3.95-16.193a44.464,44.464,0,0,1,3.116-7.734c1.255-2.355,1.7-5.086,2.749-7.579.843-2.025,1.888-3.959,2.63-6.03a12.078,12.078,0,0,0,.706-6.415c-.495-2.355-1.4-4.646-2.108-6.946a57.547,57.547,0,0,1-1.778-7.652,19.328,19.328,0,0,0-1.3-5.15c-1.6-3.418-5.279-5.434-8.953-6.314S218.145,221.6,214.452,222.408Z" transform="translate(-828.592 5465.154)"/>
    <path id="Path_617" data-name="Path 617" class="cls-12" d="M185.755,199.226c2.245-2.19,4.527-4.289,6.048-7.056a47.306,47.306,0,0,0,4.38-10.8,9.86,9.86,0,0,0,.422-4.151c-.33-1.915-1.65-3.574-1.833-5.5a.852.852,0,0,1,.11-.6.916.916,0,0,1,.706-.266l2.227-.174a7.2,7.2,0,0,1,1.714-4.637c.8-.916,2.071-1.686,3.217-1.265s1.668,2.007,2.593,2.969,2.19,1.283,2.987,2.245c.916,1.136.916,2.749.916,4.27-.183,4.051-2.218,6.671-3.574,10.319a91.908,91.908,0,0,1-5.1,11.29,96.508,96.508,0,0,1-14.36,20.161,98.055,98.055,0,0,1-9.76,9.164c-3.785,3.088-18.117,15.387-22.4,10.786-5.8-6.232.128-13.746,5.5-16.862a133.355,133.355,0,0,0,26.209-19.886Z" transform="translate(-754.239 5469.953)"/>
    <path id="Path_618" data-name="Path 618" class="cls-5" d="M227.367,222.225q2.447,5.856,4.582,11.84c.449,1.274.916,2.749.2,3.922a3.766,3.766,0,0,1-2.236,1.567c-3.666,1.182-7.844-.367-10.759-2.942s-4.857-6.048-6.781-9.421a17.412,17.412,0,0,0-3.849-5.123,6.094,6.094,0,0,0-6-1.228c-1.97.834-3.1,3.556-1.833,5.3.229-1.622,2.438-2.282,3.9-1.558s2.3,2.282,2.978,3.776a61.393,61.393,0,0,1,2.355,6.012,14.589,14.589,0,0,1,.916,4.655c-.064,3.867-2.813,7.139-5.654,9.76a12.555,12.555,0,0,0-2.96,3.336c-1.008,1.97-.788,4.316-.678,6.525.477,9.164-1.3,18.264-3.611,27.126-.44,1.659-.843,3.583.174,4.967a5.27,5.27,0,0,0,3.2,1.7c5.728,1.31,11.748.816,17.494,2.025,3.574.761,7.02,2.172,10.667,2.511a1.988,1.988,0,0,0,1.42-.247,2.1,2.1,0,0,0,.577-1.53c.916-10.163,1.191-20.573,4.765-30.132,1.677-4.481,4.087-8.761,4.811-13.49a8.193,8.193,0,0,0,0-3.1,11.41,11.41,0,0,0-1.31-2.841,40.927,40.927,0,0,1-5.059-17.018" transform="translate(-828.183 5465.283)"/>
    <path id="Path_619" data-name="Path 619" class="cls-19" d="M237.877,268.327c-.156,1.7-.174,3.666,1.118,4.774a6.746,6.746,0,0,1,1.072.916c.641.816.321,1.979.312,3.015,0,2.016,1.2,3.794,1.961,5.663s.843,4.408-.834,5.5c-1.081.715-2.612.614-3.537,1.512-1.439,1.4-.7,4.49-2.575,5.205a2.282,2.282,0,0,1-2.676-1.393,6.571,6.571,0,0,1-.284-3.272q1.384-17.274,3.024-34.539a3.858,3.858,0,0,1,1.576-3.189c.971-.916,2.309-2.749,3.537-3.079.916,2.071-.806,5.938-1.2,8.074Q238.381,262.875,237.877,268.327Z" transform="translate(-861.795 5462.866)"/>
    <path id="Path_620" data-name="Path 620" class="cls-12" d="M224.361,202.4a6.231,6.231,0,0,1,.715,3.134,5.563,5.563,0,0,1-1.182,1.979,14.085,14.085,0,0,0-2.144,4.71,6.917,6.917,0,0,1-1.668,3.537c-1.228,1.091-3.079,1-4.7.77-1.246-.174-2.474-.394-3.666-.669a2.978,2.978,0,0,0-1.356-.092,2.392,2.392,0,0,0-1.155.77c-2.044,2.19-2.383,5.434-3.666,8.165a2.483,2.483,0,0,1-2.144,1.741,11.217,11.217,0,0,1-8.1-1.448,3.116,3.116,0,0,1-1.43-1.5,3.555,3.555,0,0,1,.211-2.291,41.119,41.119,0,0,1,2.4-5.764c1.274-2.5,2.823-4.967,3.107-7.762.257-2.474-.522-4.958-.458-7.441.147-5.187,4.307-9.851,9.357-11,4.408-1.026,8.623.522,12.124,3.162,1.237.916,2.264,1.512,2.667,3.088C223.857,197.754,223.555,200.164,224.361,202.4Z" transform="translate(-808.699 5467.924)"/>
    <path id="Path_621" data-name="Path 621" class="cls-20" d="M238.368,184.986a8.559,8.559,0,0,0-4.1-5.874c-6.516-4.1-17.659-3.666-23.268,1.943-1.833,1.833-3.1,4.371-5.205,5.984-2.749,2.108-6.415,2.337-9.851,2.493a11.052,11.052,0,0,0,2.823,2.868,5.838,5.838,0,0,1-3.152,2.612l2.328,1.512-2.749,2.282a14.956,14.956,0,0,0,3.5,1.5,53.958,53.958,0,0,1-1.723,7.716,7.808,7.808,0,0,1,3.867-1.558,11.914,11.914,0,0,1,.733,5.224l3.363-1.7a8.642,8.642,0,0,0,1.494,4.582c-1.191-1.75,4.1-4.234,5.123-4.353,1.246-.137,2.1.385,3.079-.211,1.265-.788,2.117-2.887,3.519-3.831-.761-1.1-1.778-2.007-2.456-3.162a3.51,3.51,0,0,1-.128-3.776c.8-1.063,2.878-.916,3.162.367-.1-3.437,2.483-6.351,5.2-8.449a3.235,3.235,0,0,1,3.207-.8q2.309.412,4.582,1.026c1.127.312,3.1,1.329,4.289.916C238.074,191.52,238.6,186.837,238.368,184.986Z" transform="translate(-823.311 5468.972)"/>
    <path id="Path_623" data-name="Path 623" class="cls-21" d="M210.241,217.756a1.9,1.9,0,0,0-1.219.156,1.833,1.833,0,0,0-.641,1.127,33.164,33.164,0,0,0-1.072,6.69,4.692,4.692,0,0,0,.147,1.787,1.75,1.75,0,0,0,1.246,1.191c.687.119,1.347-.321,2.044-.376a2.584,2.584,0,0,1,2.016.916,8.888,8.888,0,0,1,1.219,1.924,34.363,34.363,0,0,0,2.9,4.518,31.909,31.909,0,0,0-2.419-9.329,4.133,4.133,0,0,0-1.512-2.071c-.559-.33-1.292-.44-1.64-.981-.559-.861.293-1.906,1-2.648s1.952-1.833,1.356-2.538C213.293,217.674,210.809,217.811,210.241,217.756Z" transform="translate(-812.843 5465.517)"/>
    <path id="Path_624" data-name="Path 624" class="cls-12" d="M255.24,191.822a61.04,61.04,0,0,1-4.417-6.992c-3.437-6.726-5.251-15.222-3.565-22.672a7.433,7.433,0,0,0,.321-2.566,2.154,2.154,0,0,0-1.5-1.924,5.234,5.234,0,0,1-1.081-.192c-.522-.257-.669-.916-1.036-1.375a2.328,2.328,0,0,0-2.5-.623,6.268,6.268,0,0,0-2.273,1.485,39.221,39.221,0,0,0-2.942,2.978,6.332,6.332,0,0,0-1.659,2.749c-.357,1.741.66,3.437,1.64,4.93,1.6.147,2.016,4.692,2.19,5.773.4,2.4.916,4.793,1.494,7.157a94.556,94.556,0,0,0,4.628,13.884,96.984,96.984,0,0,0,15.029,24.6c3.143,3.739,14.919,18.511,19.978,14.791,6.864-5.031,2.447-13.5-2.208-17.586a132.879,132.879,0,0,1-22.095-24.413Z" transform="translate(-904.011 5470.731)"/>
    <path id="Path_625" data-name="Path 625" class="cls-5" d="M201.834,208.657a18.839,18.839,0,0,0-2.749-.55.6.6,0,0,0-.357,0,.54.54,0,0,0-.2.247,6.5,6.5,0,0,0-.6,4.353,3.226,3.226,0,0,0,.7,1.585,1.5,1.5,0,0,0,1.585.458,2.318,2.318,0,0,0,1.008-1.045,8.935,8.935,0,0,0,1.714-4.4.532.532,0,0,0,0-.211.477.477,0,0,0-.229-.192,4.059,4.059,0,0,0-1.7-.449" transform="translate(-790.213 5466.323)"/>
    <path id="Path_626" data-name="Path 626" class="cls-7" d="M192.73,213.593l.449-.11C193,213.355,192.776,213.392,192.73,213.593Z" transform="translate(-775.813 5465.877)"/>
    <path id="Path_628" data-name="Path 628" class="cls-7" d="M337.591,342.689c-.357,1.457-1.585,2.5-2.749,3.482-2.548,2.181-5.049,4.582-6.332,7.7a32.764,32.764,0,0,1-1.833,4.674c-.871,1.43-2.529,2.676-3.492,4.243-1.448,2.374-1.411,5.645-3.482,7.515-2.438,2.19-6.671.981-8.477-1.75s-1.7-6.323-.916-9.5c1.677-6.561,5.929-12.142,10.429-17.21,2.749-3.07,6.415-6.415,10.887-6.03C334.631,336.073,338.416,339.445,337.591,342.689Z" transform="translate(-1027.601 5455.648)"/>
    <path id="Path_629" data-name="Path 629" class="cls-22" d="M160.285,238.194a11.692,11.692,0,0,1,1.54-1.622c2.364-1.961,5.407-2.887,7.973-4.582,4.243-2.8,6.882-7.441,9.329-11.913,3.583-6.479,7.258-12.912,10.749-19.446,2.584-4.82.412-7.515-3.015-10.081a8.248,8.248,0,0,0-2.273,2.245,32.886,32.886,0,0,0-2.859,6.268,45.014,45.014,0,0,1-8.953,13.16c-3.84,4.133-7.524,8.449-11.345,12.637a2.75,2.75,0,0,0-.55.751,2.9,2.9,0,0,0-.055,1.43,25.66,25.66,0,0,1,0,5.929C160.707,234.18,159.424,237.333,160.285,238.194Z" transform="translate(-743.643 5467.788)"/>
    <path id="Path_615" data-name="Path 615" class="cls-13" d="M149.1,298.432s-1.255,17.7,3.382,24.01,35.944,28.294,35.944,28.294,14.431,12.129,18.793,15.941,23.967,24.6,23.967,24.6l14.343-9.655-31.4-42.807s-3.007-4.689-5.4-6.54-31.9-34.045-31.9-34.045Z" transform="translate(-779.09 5458.787)"/>
    <path id="Path_627" data-name="Path 627" class="cls-23" d="M160.109,182.91a19.318,19.318,0,0,0,.843,8.165c5.26,18.053,15.881,35.007,31.634,45.271a6.772,6.772,0,0,1,2.273,2.08,6.323,6.323,0,0,1,.577,2.557c1.127,15.487-2.584,30.947-2.612,46.48a6.3,6.3,0,0,0,.916,3.895c.99,1.32,2.749,1.659,4.408,1.879,1.081.156,2.163.312,3.253.431a225.445,225.445,0,0,0,23.588,1.769c1.338,0,2.841,0,3.831-.916s1.146-2.438,1.255-3.812c.916-10.511,4.426-20.528,6.937-30.709a90.286,90.286,0,0,0,2.593-15.157c.192-2.749.073-5.37,1.457-7.588a7.332,7.332,0,0,1,1.595-1.833c2.364-1.961,5.407-2.887,7.973-4.582,4.243-2.8,6.882-7.441,9.329-11.913,3.583-6.479,7.258-12.912,10.749-19.446,2.584-4.82.412-7.515-3.015-10.081-1.228-.916-2.621-1.833-4.014-2.868-2.474,5.086-4.985,10.218-8.532,14.663-3.437,4.28-7.991,7.9-13.306,9.274a.385.385,0,0,1,.275.367c0,.376-.367.632-.7.843q-5.911,3.666-11.831,7.45a6.039,6.039,0,0,1-2.548,1.063c-1.045.073-4.289-1.714-4.481.119v.348a14.287,14.287,0,0,1,.376,1.906,2.154,2.154,0,0,1-1.5,1.732,4.646,4.646,0,0,1-2.4-.055,9.073,9.073,0,0,1-2.447-1.026c-1.228-.788-2.181-1.943-3.336-2.841-1.833-1.475-3.913-1.246-6.158-1.5a26.063,26.063,0,0,1-6.681-1.613A39.985,39.985,0,0,1,184.9,205.114c-6.057-7.524-10.126-16.413-15.02-24.743a7.011,7.011,0,0,0-2.08-2.5,4.582,4.582,0,0,0-4.921.348,6.827,6.827,0,0,0-2.768,4.692Z" transform="translate(-824.477 5468.895)"/>
    <path id="Path_630" data-name="Path 630" class="cls-24" d="M211.834,183.42a19.318,19.318,0,0,0,.843,8.165c5.26,18.053,15.881,35.007,31.634,45.271a6.772,6.772,0,0,1,2.273,2.08,6.323,6.323,0,0,1,.577,2.557c1.127,15.487-2.584,30.947-2.612,46.48a6.3,6.3,0,0,0,.916,3.895c.99,1.32,2.749,1.659,4.408,1.879,1.081.156,2.163.312,3.253.431h.22a5.068,5.068,0,0,0,2.749-.44,4.582,4.582,0,0,0,1.75-2.374c2.273-5.361,2.548-11.345,3.922-17s4.371-11.519,9.787-13.655a12.473,12.473,0,0,0,3.537-1.585c.99-.834,1.5-2.447.632-3.409a3.336,3.336,0,0,0-1.521-.8,82.843,82.843,0,0,1-9.476-3.088c-3.061-1.384-5.865-3.574-7.13-6.653-1.182-2.823-.916-6.094-2.291-8.834-1.567-3.2-4.93-5.031-7.982-6.9a76,76,0,0,1-26.356-27.428c-2.832-5.031-4.133-13.425-7.973-17.513a6.625,6.625,0,0,0-1.164-1.081Z" transform="translate(-876.202 5468.384)"/>
    <path id="Path_634" data-name="Path 634" class="cls-5" d="M3.154,0S-.081,2.273,0,4.738,17.642,56.717,17.642,56.717s.412-47.36,0-49.578A36.085,36.085,0,0,0,15.26.944S8.258,5.984,3.154,0Z" transform="matrix(0.995, 0.105, -0.105, 0.995, -616.416, 5684.651)"/>
    <path id="Path_633" data-name="Path 633" class="cls-14" d="M1.164,0,0,3.831,1.979,5.489l.944,26.869L9.906,52.208l.174-20.188-6-26.658L6.268,1.6,3.382,0Z" transform="matrix(0.995, 0.105, -0.105, 0.995, -609.191, 5689.917)"/>
    <path id="Path_635" data-name="Path 635" class="cls-7" d="M0,1.511,1.066,12.162l6.7,1.27,3.009-2.653,5.078,4.063h20.2s5.078-8.887-6-11.832L18.916,0Z" transform="matrix(0.921, -0.391, 0.391, 0.921, -549.999, 5846.543)"/>
  </g>
</svg>
