<svg xmlns="http://www.w3.org/2000/svg" xmlns:xlink="http://www.w3.org/1999/xlink" width="591.111" height="484.229" viewBox="0 0 591.111 484.229">
  <defs>
    <style>
      .cls-1, .cls-2 {
        fill: #707070;
      }

      .cls-1 {
        opacity: 0.18;
        isolation: isolate;
      }

      .cls-3 {
        fill: url(#linear-gradient);
      }

      .cls-4 {
        fill: #fff;
      }

      .cls-5 {
        fill: #3e3e41;
      }

      .cls-6 {
        fill: #4c506d;
      }

      .cls-7 {
        fill: #040922;
      }

      .cls-8 {
        fill: #9d9d9d;
      }

      .cls-9 {
        fill: #797979;
      }

      .cls-10 {
        fill: #d8dae1;
      }

      .cls-11 {
        fill: #d68369;
      }

      .cls-12 {
        fill: #ec9c7d;
      }

      .cls-13 {
        fill: #dc9bd5;
      }

      .cls-14 {
        fill: #473f47;
      }

      .cls-15 {
        fill: #515151;
      }

      .cls-16 {
        fill: #05060e;
      }

      .cls-17 {
        fill: #5a4c4c;
      }

      .cls-18 {
        fill: #342424;
      }

      .cls-19 {
        fill: url(#linear-gradient-2);
      }

      .cls-20 {
        fill: #3e3e3e;
      }

      .cls-21 {
        fill: #181118;
      }

      .cls-22 {
        fill: url(#linear-gradient-3);
      }

      .cls-23 {
        fill: url(#linear-gradient-4);
      }

      .cls-24 {
        fill: url(#linear-gradient-5);
      }

      .cls-25 {
        fill: #00a2e9;
      }

      .cls-26 {
        fill: url(#linear-gradient-6);
      }

      .cls-27 {
        fill: url(#linear-gradient-7);
      }

      .cls-28 {
        fill: url(#linear-gradient-8);
      }

      .cls-29 {
        fill: url(#linear-gradient-9);
      }

      .cls-30 {
        fill: #393a40;
      }

      .cls-31 {
        fill: url(#linear-gradient-10);
      }

      .cls-32 {
        fill: #ffbbab;
      }

      .cls-33 {
        fill: #212741;
      }

      .cls-34 {
        fill: url(#linear-gradient-11);
      }

      .cls-35 {
        fill: url(#linear-gradient-12);
      }
    </style>
    <linearGradient id="linear-gradient" x1="0.506" y1="-4.378" x2="0.443" y2="7.714" gradientUnits="objectBoundingBox">
      <stop offset="0.01"/>
      <stop offset="0.08" stop-opacity="0.69"/>
      <stop offset="0.21" stop-opacity="0.322"/>
      <stop offset="1" stop-opacity="0"/>
    </linearGradient>
    <linearGradient id="linear-gradient-2" x1="-0.722" y1="0.54" x2="3.04" y2="0.419" xlink:href="#linear-gradient"/>
    <linearGradient id="linear-gradient-3" x1="0.512" y1="2.083" x2="0.459" y2="-5.025" xlink:href="#linear-gradient"/>
    <linearGradient id="linear-gradient-4" x1="0.51" y1="-1.181" x2="0.465" y2="6.329" xlink:href="#linear-gradient"/>
    <linearGradient id="linear-gradient-5" x1="0.709" y1="-5.339" x2="0.201" y2="8.896" xlink:href="#linear-gradient"/>
    <linearGradient id="linear-gradient-6" x1="0.554" y1="-3.231" x2="0.435" y2="4.994" xlink:href="#linear-gradient"/>
    <linearGradient id="linear-gradient-7" x1="-40.076" y1="1.132" x2="-43.62" y2="2.071" xlink:href="#linear-gradient"/>
    <linearGradient id="linear-gradient-8" x1="0.174" y1="2.364" x2="0.907" y2="-2.117" xlink:href="#linear-gradient"/>
    <linearGradient id="linear-gradient-9" x1="-154.672" y1="1.077" x2="-147.729" y2="1.818" xlink:href="#linear-gradient"/>
    <linearGradient id="linear-gradient-10" x1="-63.952" y1="-0.18" x2="-62.795" y2="1.92" xlink:href="#linear-gradient"/>
    <linearGradient id="linear-gradient-11" x1="-181.91" y1="1.544" x2="-187.708" y2="1.708" xlink:href="#linear-gradient"/>
    <linearGradient id="linear-gradient-12" x1="-43.344" y1="0.138" x2="-40.52" y2="1.074" xlink:href="#linear-gradient"/>
  </defs>
  <g id="training1" transform="translate(-300 -4975.771)">
    <path id="Path_390" data-name="Path 390" class="cls-1" d="M29.378,375.137c3.221,19.824,22.9,112.022,94.779,131.59,54.4,14.842,207.109-36.051,294.172-10.45,175.126,51.474,207.2-86.738,197.385-124.071-6.836-26.019-15.235-52.123-15.458-79.3-.231-28.429,9.724-56.4,10.818-85,2.751-72.451-48.15-143.553-117.6-164.351-29.736-8.9-54.037-17.944-85.064-18.226-62.967-.538-212.4,0-286,107.066-13.15,19.14-32.257,33.453-46.928,51.448-19.653,24.113-32.616,53.191-40.485,83.286C25.849,302.241,23.576,339.428,29.378,375.137Z" transform="translate(273.807 4950.504)"/>
    <path id="Path_636" data-name="Path 636" class="cls-2" d="M0,0H4.9L5.12,126.918l-5.109,1.17Z" transform="translate(754.47 5223.83)"/>
    <path id="Path_391" data-name="Path 391" class="cls-3" d="M318.436,452.158l97.582,3.768c4.589.179,9.4.384,13.219,1.307,6.144,1.487,7.836,4.52,5.571,6.921s-7.69,4.272-13.415,5.8c-35.529,9.536-85.346,9.314-131.069,8.664l-215.68-3.033c-8.323-.12-16.927-.256-24.481-1.538s-13.783-4.025-12.723-6.836c.957-2.563,7.3-4.392,13.672-5.682,18.713-3.785,40.921-4.99,62.591-6.067Q162.98,453,212.463,450.97" transform="translate(272.188 4888.557)"/>
    <rect id="Rectangle_264" data-name="Rectangle 264" class="cls-4" width="165.24" height="152.012" transform="translate(671.842 5088.454)"/>
    <rect id="Rectangle_265" data-name="Rectangle 265" class="cls-1" width="70.136" height="118.747" transform="translate(756.914 5108.842)"/>
    <rect id="Rectangle_266" data-name="Rectangle 266" class="cls-4" width="61.386" height="56.891" transform="translate(762.443 5120.241)"/>
    <rect id="Rectangle_267" data-name="Rectangle 267" class="cls-2" width="172.981" height="6.503" transform="translate(667.04 5084.822)"/>
    <rect id="Rectangle_268" data-name="Rectangle 268" class="cls-2" width="172.981" height="6.503" transform="translate(667.04 5238.219)"/>
    <rect id="Rectangle_269" data-name="Rectangle 269" class="cls-5" width="3.777" height="34.931" transform="translate(483.181 5339.731) rotate(180)"/>
    <rect id="Rectangle_270" data-name="Rectangle 270" class="cls-6" width="41.946" height="4.896" transform="translate(504.859 5343.918) rotate(180)"/>
    <rect id="Rectangle_271" data-name="Rectangle 271" class="cls-7" width="41.946" height="4.896" transform="translate(504.859 5343.918) rotate(180)"/>
    <rect id="Rectangle_272" data-name="Rectangle 272" class="cls-8" width="36.196" height="12.749" rx="6.374" transform="translate(497.502 5304.808) rotate(180)"/>
    <rect id="Rectangle_273" data-name="Rectangle 273" class="cls-9" width="36.196" height="12.749" rx="6.374" transform="translate(505.065 5304.808) rotate(180)"/>
    <path id="Path_393" data-name="Path 393" class="cls-8" d="M202.94,338.886v12.142a8.118,8.118,0,0,0,8.118,8.118h12.134a8.126,8.126,0,0,0,8.126-8.118V338.886a8.126,8.126,0,0,0-8.126-8.126H211.058a7.551,7.551,0,0,0-1.085.077A8.118,8.118,0,0,0,202.94,338.886Z" transform="translate(248.087 4906.049)"/>
    <path id="Path_394" data-name="Path 394" class="cls-9" d="M206.837,351.1a8.075,8.075,0,0,0,1.367,3.572c2.2,3.008,6.468,3.375,10.185,3.469,2.769.068,12.424,2.145,11.732-2.5-.367-2.435-1.829-5.024-2.563-7.374s-2.29-5.383-2.29-7.759A43.982,43.982,0,0,0,223.2,333.9a14.4,14.4,0,0,0-1.88-3.136H211.58a3.085,3.085,0,0,0-1.008.12c.393,3.264-1.769,5.571-2.957,8.425-1.068,2.563-1.051,5.375-1.017,8.118A26.491,26.491,0,0,0,206.837,351.1Z" transform="translate(247.556 4906.049)"/>
    <path id="Path_395" data-name="Path 395" class="cls-4" d="M225.985,351.166a23.159,23.159,0,0,1,1.512,4.341c.325,1.829.854,3.615,1.2,5.452a62.136,62.136,0,0,1,.914,11.185c0,1.478,0,3.153,1.06,4.178a5.247,5.247,0,0,0,2.709,1.111c1.923.384,3.657,1.145,5.571,1.47a37.939,37.939,0,0,0,6.306.376c6.221,0,17.8-.692,17.414-9.4-.419-9.861-1.188-19.448-2.563-29.275-.47-3.29-.564-7.084-1.564-10.254-.854-2.658-3.939-2.683-6.511-2.41l-.487.051c-.5.051-.991.111-1.478.179a70.479,70.479,0,0,1-10.314.3c-3.879-.12-10.074-.5-13.885,3.144a8.368,8.368,0,0,0-.743.8C221.294,337.05,223.362,344.552,225.985,351.166Z" transform="translate(245.165 4906.476)"/>
    <path id="Path_396" data-name="Path 396" class="cls-4" d="M281.549,349.035a40.419,40.419,0,0,1,.513,6.272,3.811,3.811,0,0,1-.453,2.119c-.649.991-2.008,1.188-3.2,1.162a14.364,14.364,0,0,1-9.98-4.178,61.965,61.965,0,0,1-6.768-7.964,6.536,6.536,0,0,1-1.53-4.828c0-2.384.094-4.777.308-7.152.051-.555,3.888-.12,4.272,0a15.658,15.658,0,0,1,4.059,1.82,30.372,30.372,0,0,0-.427-4.939,2.4,2.4,0,0,1,.162-1.393c.436-.778,1.521-.854,2.418-.769,1.923.137,4.05.461,5.246,1.965a7.424,7.424,0,0,1,1.111,2.35A92.958,92.958,0,0,1,281.549,349.035Z" transform="translate(239.768 4906.282)"/>
    <path id="Path_397" data-name="Path 397" class="cls-10" d="M274.3,351.572a3.417,3.417,0,0,1-.231,2.324c-.855,1.3-2.82.855-4.213.222a32.757,32.757,0,0,1-5.306-3.2,1.435,1.435,0,0,0-1.051-.41,1.384,1.384,0,0,0-.7.513,27.549,27.549,0,0,1-9.314,6.7c-1.2.53-2.794.854-3.666-.094s-.179-2.726.59-3.914l9.16-14.15a1.034,1.034,0,0,1,.487-.47c.35-.12.7.145.983.385a19.035,19.035,0,0,0,4.161,2.734,2.427,2.427,0,0,0,1.769.316c.854-.29,1.145-1.333,1.256-2.222a23.574,23.574,0,0,0,.12-4.46,4.152,4.152,0,0,1,.12-1.837,2.051,2.051,0,0,1,2.931-.854c1.128.854.948,4.084,1.136,5.46Z" transform="translate(241.324 4905.745)"/>
    <path id="Path_398" data-name="Path 398" class="cls-10" d="M239.049,351.756a13.262,13.262,0,0,0,3.29,3.939c1.5,1.162,4.956,5.734,7.1,4.341a8.681,8.681,0,0,1-3.256,1.794c3.315,2.333,7.494,2.957,11.476,3.7a7.785,7.785,0,0,1,2.939.991,2.768,2.768,0,0,1,1.35,2.623c-.29,1.794-2.563,2.333-4.392,2.444-4.469.273-8.964.367-13.407.914-3.785.461-7.861,1.453-10.194,4.469a1.709,1.709,0,0,1-.675.615,1.042,1.042,0,0,1-1.2-.581,3.229,3.229,0,0,1-.248-1.427,41.015,41.015,0,0,0-1.709-10.954c-.427-1.435-.479-2.9-.9-4.272-.513-1.709-1.444-3.307-2.025-4.99a48.849,48.849,0,0,1-2.333-10.484c-.273-2.5-.094-5.529,2.059-6.836a4.725,4.725,0,0,1,5.127.53,10.776,10.776,0,0,1,3.145,4.366C236.494,345.817,237.468,349.039,239.049,351.756Z" transform="translate(244.91 4905.065)"/>
    <path id="Path_399" data-name="Path 399" class="cls-2" d="M251.487,335.264a1.555,1.555,0,0,0-.282.538,1.248,1.248,0,0,0,.128.624A116.336,116.336,0,0,1,256.05,352.7a83.571,83.571,0,0,1,2.563,14.706,3.032,3.032,0,0,1-.077,1.077c-.376,1.23-1.982,1.615-2.683,2.692l-2.333-2.657a1.872,1.872,0,0,1-.359-.53,1.923,1.923,0,0,1,0-.854c.795-5.323-.077-10.749-1.324-15.979-1.068-4.495-2.427-9-2.341-13.62a1.974,1.974,0,0,0-.419-1.564,3.215,3.215,0,0,0-.769-.376,2.563,2.563,0,0,1-1.179-3.529,3.094,3.094,0,0,0,1.418-.359,2.076,2.076,0,0,1,1.436-.188C251.034,331.923,252.1,334.247,251.487,335.264Z" transform="translate(241.701 4905.945)"/>
    <path id="Path_400" data-name="Path 400" class="cls-4" d="M226.34,331.595c3.811-3.649,10.006-3.264,13.885-3.144a70.479,70.479,0,0,0,10.314-.3c.487-.068.983-.128,1.478-.179-2.042-.855-4.947-.273-7.135-.205q-4.965.162-9.921.607C231.826,328.655,228.374,329.193,226.34,331.595Z" transform="translate(244.682 4906.522)"/>
    <path id="Path_401" data-name="Path 401" class="cls-11" d="M239.831,316.32a6.981,6.981,0,0,0,8.485,4.2s-1.606,4.9.41,7.87c0,0-1.342,3.418-10.356-1.632,0,0,2.435-.2,1.769-5.2a10.817,10.817,0,0,0-1.769-4.811.855.855,0,0,0,1.461-.419Z" transform="translate(242.931 4908.15)"/>
    <path id="Path_402" data-name="Path 402" class="cls-12" d="M243.763,319.491c4.759,1.4,8.639-2.521,10.4-8.314.188-.632.35-1.29.487-1.965a25.215,25.215,0,0,0,.521-5.862c-.256-9.5-13.919-8.545-13.919-8.545C230.194,297.283,235.483,317.065,243.763,319.491Z" transform="translate(243.426 4911.285)"/>
    <path id="Path_403" data-name="Path 403" class="cls-13" d="M279.832,392.841l-.282-.291c1.119,1.256,1.871,2.162,2.1,2.444C281.088,394.25,280.473,393.533,279.832,392.841Z" transform="translate(236.939 4897.057)"/>
    <path id="Path_404" data-name="Path 404" class="cls-14" d="M250.111,292.467a7.272,7.272,0,0,1,4.272,2.974,21.7,21.7,0,0,0,1.487,2.384c.855,1.034,2.119,1.777,2.563,3.042a9.579,9.579,0,0,1-6.263-1.136,1.752,1.752,0,0,1-1.5.854,5.238,5.238,0,0,1-1.769-.333,1.624,1.624,0,0,0-.983-.085,1.948,1.948,0,0,0-.649.47,4.375,4.375,0,0,1-4.119.855c-.854-.256-1.709-.778-2.5-.513a2.6,2.6,0,0,0-1.316,2.41,9.879,9.879,0,0,1-.077,2.931c-.6.1-.718-.854-1.248-1.213s-1.034.094-1.307.547a2.153,2.153,0,0,0,.248,2.5,1.418,1.418,0,0,1,.41.573,1.059,1.059,0,0,1-.111.658l-.923,2.333a55.36,55.36,0,0,0-4.554-8.391c-.735-1.068-1.589-2.29-1.256-3.546s1.709-2.179,1.4-3.418a7.091,7.091,0,0,1-.205-.692,1.812,1.812,0,0,1,.214-1.008,9.4,9.4,0,0,1,6.468-4.93,20.705,20.705,0,0,1,8.357.077c2.768.479,5.5,1.171,8.306,1.384a.64.64,0,0,1,.6.265.538.538,0,0,1,0,.308c-.111.6-.675,1-1.128,1.418s-.854,1.094-.521,1.615" transform="translate(244.085 4912.077)"/>
    <path id="Path_405" data-name="Path 405" class="cls-15" d="M241.39,379.951s5.785,14.458,10.433,15.979,21.841,6.759,21.841,6.759l23.925,45.04,9.4-5.785-21.106-52.687-18.73-9.6S262.359,379.8,241.39,379.951Z" transform="translate(242.492 4898.934)"/>
    <path id="Path_406" data-name="Path 406" class="cls-2" d="M231.981,382.752s-1.085,13.185,3.563,14.706,21.832,6.767,21.832,6.767l25.566,48.859,10.621-4.272L269.638,390.8l-18.722-9.6S240.039,377.24,231.981,382.752Z" transform="translate(243.877 4898.909)"/>
    <path id="Path_407" data-name="Path 407" class="cls-16" d="M320.7,454.438a24.891,24.891,0,0,1,3.657.367,6.058,6.058,0,0,1,3.1,1.256,2.948,2.948,0,0,1,.966,1.709,2.222,2.222,0,0,1-.573,1.854,3.768,3.768,0,0,1-1.5.8c-1.29.461-2.563.906-3.879,1.359a31.615,31.615,0,0,1-8.545,2.076,1.164,1.164,0,0,1-.513-.051,1.433,1.433,0,0,1-.342-.256c-1.76-1.709-3.418-3.743-3.845-6.169a.487.487,0,0,1,0-.248.47.47,0,0,1,.205-.222,20.591,20.591,0,0,1,5.768-2.709C317.08,453.677,318.8,454.395,320.7,454.438Z" transform="translate(232.623 4888.113)"/>
    <path id="Path_408" data-name="Path 408" class="cls-16" d="M304.282,460.931a25.012,25.012,0,0,1,3.657.367,6.118,6.118,0,0,1,3.1,1.256,2.9,2.9,0,0,1,.957,1.709,2.2,2.2,0,0,1-.573,1.854,3.716,3.716,0,0,1-1.5.8c-1.29.461-2.563.906-3.879,1.35a31.152,31.152,0,0,1-8.545,2.085,1.188,1.188,0,0,1-.521-.051,1.385,1.385,0,0,1-.333-.256c-1.76-1.709-3.418-3.743-3.845-6.169a.522.522,0,0,1,0-.256.547.547,0,0,1,.205-.214,20.7,20.7,0,0,1,5.768-2.709C300.659,460.2,302.367,460.931,304.282,460.931Z" transform="translate(235.014 4887.166)"/>
    <path id="Path_409" data-name="Path 409" class="cls-4" d="M223.675,338.944s8.16,18.286,16.808,20.755,19.064-23.156,19.064-23.156l-6.938-2.615-11.647,11.706s-7.22-15.329-10.151-14.629S222.572,335.8,223.675,338.944Z" transform="translate(245.091 4906.017)"/>
    <path id="Path_410" data-name="Path 410" class="cls-11" d="M267.75,322.216a3.683,3.683,0,0,0,.854,1.931,11.961,11.961,0,0,1,1.068,3.623,7.64,7.64,0,0,0,1.47,3.469,2.982,2.982,0,0,0,3.418.906,2.888,2.888,0,0,0,1.4-2.162,6.323,6.323,0,0,0-.3-2.64,16.819,16.819,0,0,0-1.265-3.221,8.015,8.015,0,0,0-1.957-2.563C271.253,320.541,267.912,319.67,267.75,322.216Z" transform="translate(238.656 4907.534)"/>
    <path id="Path_411" data-name="Path 411" class="cls-12" d="M263.125,323.415a4.794,4.794,0,0,1,1.837-1.854,5.126,5.126,0,0,1,2.316-.325c1.538,0,3.332.282,4.067,1.623a3.469,3.469,0,0,1-.333,3.324c-.59,1-1.427,1.837-2.034,2.837-.855,1.418-1.265,3.2-2.564,4.23a4.563,4.563,0,0,1-1.871.854c-2.256.521-5.2-.555-4.674-3.247A23.455,23.455,0,0,1,263.125,323.415Z" transform="translate(239.812 4907.438)"/>
    <rect id="Rectangle_274" data-name="Rectangle 274" class="cls-5" width="3.777" height="34.931" transform="translate(390.513 5339.252) rotate(180)"/>
    <rect id="Rectangle_275" data-name="Rectangle 275" class="cls-6" width="41.946" height="4.896" transform="translate(412.182 5343.431) rotate(180)"/>
    <rect id="Rectangle_276" data-name="Rectangle 276" class="cls-7" width="41.946" height="4.896" transform="translate(412.182 5343.431) rotate(180)"/>
    <rect id="Rectangle_277" data-name="Rectangle 277" class="cls-8" width="36.196" height="12.749" rx="6.374" transform="translate(404.834 5304.321) rotate(180)"/>
    <rect id="Rectangle_278" data-name="Rectangle 278" class="cls-9" width="36.196" height="12.749" rx="6.374" transform="translate(412.396 5304.321) rotate(180)"/>
    <path id="Path_412" data-name="Path 412" class="cls-8" d="M94.48,338.318V350.46a8.126,8.126,0,0,0,8.118,8.126H114.74a8.126,8.126,0,0,0,8.126-8.126V338.318a8.118,8.118,0,0,0-8.126-8.118H102.615a7.7,7.7,0,0,0-1.085.068A8.135,8.135,0,0,0,94.48,338.318Z" transform="translate(263.87 4906.131)"/>
    <path id="Path_413" data-name="Path 413" class="cls-9" d="M98.39,350.537a8.075,8.075,0,0,0,1.367,3.572c2.2,3.008,6.46,3.375,10.185,3.469,2.769.077,12.416,2.145,11.723-2.5-.359-2.435-1.82-5.016-2.563-7.366s-2.29-5.383-2.29-7.759a44.429,44.429,0,0,0-2.068-6.622,14.345,14.345,0,0,0-1.88-3.127H103.15a3.05,3.05,0,0,0-1.008.111c.393,3.273-1.769,5.571-2.965,8.425-1.06,2.563-1.042,5.375-1.008,8.126A25.152,25.152,0,0,0,98.39,350.537Z" transform="translate(263.335 4906.13)"/>
    <path id="Path_414" data-name="Path 414" class="cls-17" d="M119.76,311.422c1.854,2.563,7.485,4.982,7.485,4.982.649-2.5-.726-3.418-.726-3.418-1.453.128-3.341-3.418-2.726-4.5.769-1.376,1.829-.854,2.563-.29a6.733,6.733,0,0,0,2.563-4.734c.094-1.085-1.777-4.153,1.811-5.477s8.647,0,8.647,0,1.307-3.35-2.871-4.947c-9.4-3.614-20.661,2.563-20.029,13.125.162,2.863.359,6.118-1.632,8.186a10.766,10.766,0,0,1-4.067,2.239,12.441,12.441,0,0,0-5.127,3.162,5.007,5.007,0,0,0-.854,5.622c.5.854,1.367,1.632,1.145,2.563a2.683,2.683,0,0,1-.718,1.111,15.381,15.381,0,0,0-3.99,8.417,11.04,11.04,0,0,0,2.734,8.75c2.905,3.042,7.545,3.837,11.706,3.213a15.039,15.039,0,0,0,8.964-4.443c3.469-3.845,3.914-9.4,4.888-14.526a3.059,3.059,0,0,1,.718-1.709c1.017-.948,2.64-.179,4.033-.214,2.393-.051,4-2.675,4.059-5.067s-.914-4.674-1.393-7.015-.342-5.127,1.47-6.673c.684-.59,1.538-.94,2.264-1.47,3.238-2.333,3.042-7.69.282-10.553s-7.195-3.58-11.108-2.9c-3.153.547-10.254,2.3-11.741,5.212S117.9,308.875,119.76,311.422Z" transform="translate(262.9 4911.689)"/>
    <path id="Path_415" data-name="Path 415" class="cls-18" d="M111.643,333.21a10.1,10.1,0,0,1,2.145-7.178c1.888-2.2,4.768-3.179,7.451-4.272a4.766,4.766,0,0,0,2.854-2.162,10.068,10.068,0,0,0,.376-2.393c.128-.8.6-1.709,1.4-1.786a1.9,1.9,0,0,1,1.376.487,6,6,0,0,1,1.863,5.836,15.722,15.722,0,0,1-2.76,5.768,23.67,23.67,0,0,0-3.17,5.588c-.521,1.547-.666,3.2-1.042,4.785-.854,3.495-3.768,5.571-7.212,3.589C112.532,340.114,111.788,335.654,111.643,333.21Z" transform="translate(261.378 4908.281)"/>
    <path id="Path_416" data-name="Path 416" d="M143.58,327.5a116.332,116.332,0,0,1-12.287.461c-4.144-.12-10.929-.555-14.629,3.948-4.6,5.588-.641,15.381,2.563,22.78,1.2,2.751,1.777,11.655,1.162,18.166,0,0,12.886,4.5,24.216,2.162l3.888-14.62S159.3,344.376,143.58,327.5Z" transform="translate(260.946 4906.523)"/>
    <path id="Path_417" data-name="Path 417" class="cls-17" d="M141.813,293.2s5.469.316,7.092,8.237-6.272,7.784-6.272,7.784l-4.794-13.74Z" transform="translate(257.56 4911.515)"/>
    <path id="Path_418" data-name="Path 418" class="cls-12" d="M136.184,319.594c4.947.41,7.955-4.2,8.545-10.254a19.509,19.509,0,0,0,.077-2.017,24.849,24.849,0,0,0-.666-5.845c-2.17-9.263-15.381-5.554-15.381-5.554C118.419,300.574,127.587,318.885,136.184,319.594Z" transform="translate(259.55 4911.225)"/>
    <path id="Path_419" data-name="Path 419" class="cls-11" d="M131.378,315.75c.854,2.734,4.452,7.562,8.545,6.434a5.289,5.289,0,0,0,.325,5.631s-1.333,3.418-10.348-1.624c0,0,2.435-.205,1.769-5.212a10.758,10.758,0,0,0-1.769-4.8.855.855,0,0,0,1.478-.427Z" transform="translate(258.716 4908.233)"/>
    <path id="Path_420" data-name="Path 420" class="cls-17" d="M139.2,295.569c-1.29,4.477-3.008,10.835-7.383,13.287a3.674,3.674,0,0,1-2.017.632c-.667-.137-.607-.666-1.119-1.136a1.162,1.162,0,0,0-1.324-.231,1.367,1.367,0,0,0-.538,1.188,3.2,3.2,0,0,0,1.53,2.734,7.983,7.983,0,0,1,1.239.7,2.512,2.512,0,0,1,.735,1.615,4.324,4.324,0,0,1-2.145,4.127.513.513,0,0,1-.291.094.573.573,0,0,1-.325-.188l-1.957-1.786a16.372,16.372,0,0,1-2.5-2.666,8.041,8.041,0,0,1-1.393-4.495c0-.726.282-1.453.273-2.153a10.255,10.255,0,0,0-.726-2.675,9.4,9.4,0,0,1-.658-3.461c.154-2.324,2.085-4.161,4.17-5.2,3.3-1.632,7.1-1.812,10.775-1.854a5.476,5.476,0,0,1,2.17.291C138.358,294.663,138.614,295.355,139.2,295.569Z" transform="translate(260.068 4911.384)"/>
    <path id="Path_421" data-name="Path 421" class="cls-12" d="M129.426,357.49l-3.777,8.306s-8.152-10.134-11.219-21.071c-2.7-9.664,2.093-12.1,2.093-12.1,3.657-1.342,6.152,3.879,9.758,14.441C128.264,352.876,129.426,357.49,129.426,357.49Z" transform="translate(261.087 4905.809)"/>
    <path id="Path_422" data-name="Path 422" class="cls-12" d="M127.7,369.258s-.145-6.75,3.145-8.092,26.344-4.956,26.344-4.956l2.162,2.5S136.715,371.753,127.7,369.258Z" transform="translate(259.036 4902.346)"/>
    <path id="Path_423" data-name="Path 423" class="cls-13" d="M171.373,392.281c-.085-.1-.179-.2-.273-.291,1.119,1.256,1.871,2.162,2.1,2.444C172.63,393.708,172.023,392.973,171.373,392.281Z" transform="translate(252.721 4897.14)"/>
    <path id="Path_424" data-name="Path 424" class="cls-2" d="M119.719,391.421c.675,3.939,3.358,7.314,6.622,9.6a37.649,37.649,0,0,0,10.9,4.794c2.264.692,3.666,3.589,5.708,4.794a5.042,5.042,0,0,1,1.871,1.564c.743,1.2.367,2.751,0,4.11q-2.563,9.006-5.2,18.021c-.854,2.982-1.709,6.144-.906,9.143s3.973,5.58,6.913,4.589q8.639-13.937,17.26-27.865s2.837-11.211-3.119-20.747c-2.563-4.11-22.7-21.063-22.7-21.063-5.127-.743-10.382-1.094-15.381-1.384C121.121,381.842,118.9,386.61,119.719,391.421Z" transform="translate(260.224 4899.322)"/>
    <path id="Path_425" data-name="Path 425" class="cls-2" d="M140,378.372s20.508,16.722,22.7,21.063c5.981,12.108,3.119,20.747,3.119,20.747l15.1,24.259c3.495.077,8.177-.855,8.348-4.358a6.784,6.784,0,0,0-.684-2.837q-5.682-14.167-11.365-28.318c-2.247-5.614-4.571-11.347-8.169-16.167l-.325-.419h0l-.043-.051c-.231-.282-.983-1.188-2.1-2.444-3.264-3.657-9.639-10.185-15.534-12.817,0,0-6.836,1.9-10.963,1.384Z" transform="translate(257.246 4899.315)"/>
    <path id="Path_426" data-name="Path 426" class="cls-19" d="M140,378.372s20.508,16.722,22.7,21.063c5.981,12.108,3.119,20.747,3.119,20.747l15.1,24.259c3.495.077,8.177-.855,8.348-4.358a6.784,6.784,0,0,0-.684-2.837q-5.682-14.167-11.365-28.318c-2.247-5.614-4.571-11.347-8.169-16.167l-.325-.419h0l-.043-.051c-.231-.282-.983-1.188-2.1-2.444-3.264-3.657-9.639-10.185-15.534-12.817,0,0-6.836,1.9-10.963,1.384Z" transform="translate(257.246 4899.315)"/>
    <path id="Path_427" data-name="Path 427" class="cls-12" d="M150.494,464.653c1.35,1.248,3.144,2.487,3.076,4.324a.855.855,0,0,1-.145.513.982.982,0,0,1-.7.282c-4.144.461-7.989-2.059-11.211-4.708a4.58,4.58,0,0,1-1.854-2.469,5.127,5.127,0,0,1,.854-3.025,27.948,27.948,0,0,0,1.863-4.819c-.137.5,1.948,2.247,2.3,2.563a15.185,15.185,0,0,1,2.418,1.914,24.054,24.054,0,0,1,1.136,2.521A11.7,11.7,0,0,0,150.494,464.653Z" transform="translate(257.296 4888.007)"/>
    <path id="Path_428" data-name="Path 428" class="cls-12" d="M200.8,456.6c1.453.513,3.144.795,4.067,2.034a1.418,1.418,0,0,1,.308.769c0,.761-.854,1.179-1.632,1.333-2.991.607-6.084.179-9.1-.256a2.562,2.562,0,0,1-1.111-.342,2.512,2.512,0,0,1-.786-1.359l-1.2-3.666a.589.589,0,0,1,0-.342.513.513,0,0,1,.239-.265,15.512,15.512,0,0,1,2.563-1.47c1.23-.555,1.307-.53,2.136.436A10.7,10.7,0,0,0,200.8,456.6Z" transform="translate(249.778 4888.309)"/>
    <path id="Path_429" data-name="Path 429" class="cls-12" d="M164.322,355.587c2.375-.376,5.059-.684,6.99.761a8.971,8.971,0,0,1,2.2,2.828,1.794,1.794,0,0,1-1.3,3.136c-2.2.53-4.563,1.034-6.673.205-1.555-.607-2.811-1.9-4.435-2.281a2.2,2.2,0,0,1-.786-.273,1.35,1.35,0,0,1-.453-.718C158.9,356.005,162.16,355.894,164.322,355.587Z" transform="translate(254.38 4902.481)"/>
    <path id="Path_430" data-name="Path 430" class="cls-2" d="M194.786,463.977a1.093,1.093,0,0,0,.367.419,1.247,1.247,0,0,0,.752,0,20.276,20.276,0,0,1,4.076-.145,54.606,54.606,0,0,0,8.254-.761c1.2-.171,2.521-.427,3.213-1.41a.761.761,0,0,0,.162-.385.855.855,0,0,0-.239-.573,10.134,10.134,0,0,0-4.554-3.11,5.85,5.85,0,0,0-2.085-.453,2.461,2.461,0,0,0-1.888.854c-.5.624-.564,1.521-1.119,2.085a2.991,2.991,0,0,1-2.281.607,18.157,18.157,0,0,1-2.8-.325,6.374,6.374,0,0,0-2.435-.427C192.6,460.764,194.308,463.157,194.786,463.977Z" transform="translate(249.456 4887.598)"/>
    <path id="Path_431" data-name="Path 431" class="cls-2" d="M138.467,465.767a1.137,1.137,0,0,0,.077.632,1.282,1.282,0,0,0,.7.479,23.267,23.267,0,0,1,3.965,2.469,61.956,61.956,0,0,0,8.306,4.529c1.248.6,2.666,1.2,3.948.709a.854.854,0,0,0,.4-.265,1.008,1.008,0,0,0,.137-.692,11.656,11.656,0,0,0-2.341-5.853,6.708,6.708,0,0,0-1.709-1.709,2.811,2.811,0,0,0-2.333-.4c-.854.273-1.5,1.085-2.393,1.265a3.418,3.418,0,0,1-2.563-.854,22.033,22.033,0,0,1-2.461-2.085c-.573-.581-1.239-1.709-2.034-1.965C138.433,461.323,138.527,464.69,138.467,465.767Z" transform="translate(257.471 4886.962)"/>
    <path id="Path_432" data-name="Path 432" d="M112.587,335.43a26.748,26.748,0,0,0-1.171,5.443l-.359,2.5a2.734,2.734,0,0,0,.085,1.555c.41.854,2.076.521,2.9.649l4.418.7q4.409.675,8.844,1.3a17.379,17.379,0,0,0-.085-4.52c-.265-1.418-.854-2.751-1.23-4.153-.282-1.136-.385-2.316-.675-3.418a10.835,10.835,0,0,0-4.033-5.981c-3.1-2.273-7.69,3.221-8.6,5.7A1.722,1.722,0,0,0,112.587,335.43Z" transform="translate(261.469 4906.311)"/>
    <rect id="Rectangle_279" data-name="Rectangle 279" class="cls-5" width="3.777" height="34.931" transform="translate(572.961 5339.099) rotate(180)"/>
    <rect id="Rectangle_280" data-name="Rectangle 280" class="cls-6" width="41.946" height="4.896" transform="translate(594.64 5343.277) rotate(180)"/>
    <rect id="Rectangle_281" data-name="Rectangle 281" class="cls-7" width="41.946" height="4.896" transform="translate(594.64 5343.277) rotate(180)"/>
    <rect id="Rectangle_282" data-name="Rectangle 282" class="cls-8" width="36.196" height="12.749" rx="6.374" transform="translate(587.283 5304.176) rotate(180)"/>
    <rect id="Rectangle_283" data-name="Rectangle 283" class="cls-9" width="36.196" height="12.749" rx="6.374" transform="translate(594.845 5304.176) rotate(180)"/>
    <path id="Path_433" data-name="Path 433" class="cls-8" d="M308,338.138V350.28a8.118,8.118,0,0,0,8.118,8.126h12.134a8.033,8.033,0,0,0,3.931-1.017,8.211,8.211,0,0,0,2.563-2.2,8.015,8.015,0,0,0,1.649-4.9V338.138a8.118,8.118,0,0,0-8.126-8.118H316.135a7.556,7.556,0,0,0-1.085.068A8.118,8.118,0,0,0,308,338.137Z" transform="translate(232.799 4906.157)"/>
    <path id="Path_434" data-name="Path 434" class="cls-9" d="M311.952,350.347a8.075,8.075,0,0,0,1.367,3.572c2.2,3.008,6.469,3.375,10.185,3.469,2.769.068,12.424,2.145,11.732-2.5-.367-2.435-1.829-5.016-2.563-7.366s-2.29-5.392-2.29-7.767a44.3,44.3,0,0,0-2.068-6.614,14.142,14.142,0,0,0-1.88-3.127H316.66a3.1,3.1,0,0,0-1.017.111c.4,3.273-1.76,5.571-2.956,8.425-1.068,2.563-1.043,5.375-1.008,8.118A25.178,25.178,0,0,0,311.952,350.347Z" transform="translate(232.265 4906.157)"/>
    <path id="Path_435" data-name="Path 435" d="M335.217,311.293c1.854,2.563,7.494,4.982,7.494,4.982.649-2.512-.735-3.418-.735-3.418-1.444.128-3.341-3.418-2.726-4.5.769-1.384,1.829-.854,2.563-.29a6.724,6.724,0,0,0,2.563-4.734c.085-1.085-1.786-4.153,1.8-5.477s8.656,0,8.656,0,1.3-3.358-2.88-4.956c-3.418-1.3-8.476-.538-12.014-.128a11.783,11.783,0,0,0-5.417,1.641c-2.367,1.623-3.418,4.589-3.871,7.425s-.444,5.768-1.35,8.494c-.5,1.512-1.282,2.965-1.324,4.554s1.034,3.418,2.623,3.375c.615,0,1.29-.273,1.82.051s.632,1.2,1.111,1.709c.854.854,2.3,0,3.5-.273,1.572-.325,3.324.547,4.742-.188.59-.308,1.077-.854,1.709-.94.854-.085,1.564.7,2.418.8,1.461.179,2.563-1.624,4.016-1.581a5.767,5.767,0,0,1,1.854.641,4.1,4.1,0,0,0,5.212-2.854.974.974,0,0,0,1.427-.273,2.769,2.769,0,0,0,.325-1.606c0-4.777,1.333-12.245-2.324-16.047-2.76-2.88-7.186-3.589-11.108-2.905-3.153.555-10.254,2.3-11.749,5.221S333.363,308.747,335.217,311.293Z" transform="translate(229.892 4911.664)"/>
    <path id="Path_436" data-name="Path 436" class="cls-11" d="M370.007,359.163c-2.974-7.69-5.81-16.637-5.81-16.637l-2.2-15.21c7.494-.513,9.818,8.963,11.442,14.09,1.359,4.272,4.973,14.526,6.127,17.756Z" transform="translate(224.941 4906.554)"/>
    <path id="Path_437" data-name="Path 437" class="cls-11" d="M403.351,361.126c-1.94,2.375-5.443,2.563-8.545,2.563l-15.056-.051a3.008,3.008,0,0,1-1.709-.333,2.871,2.871,0,0,1-.923-1.265c-.658-1.418-3.563-7.229-2.367-8.545s7.032,1.2,8.545,1.615Q393.388,357.93,403.351,361.126Z" transform="translate(223.127 4902.796)"/>
    <path id="Path_438" data-name="Path 438" class="cls-20" d="M366.755,328.084a14.771,14.771,0,0,1,3.418,3.965l10.057,14.919a7.058,7.058,0,0,0,4.512,3.5l9.929,3.717c.35.128.735.3.854.641s-.2.854-.5,1.188l-3.657,3.828a3.009,3.009,0,0,1-1.359.957,2.923,2.923,0,0,1-1.589-.205l-19.439-6.246a4.545,4.545,0,0,1-1.709-.854,4.877,4.877,0,0,1-1.077-3.315,38.582,38.582,0,0,0-1.709-9.827c-1.136-3.358-3.05-6.545-3.486-10.108-.154-1.2-.436-2.82.778-3.478S365.713,327.341,366.755,328.084Z" transform="translate(225.108 4906.657)"/>
    <path id="Path_439" data-name="Path 439" class="cls-20" d="M357.061,327.32a116.362,116.362,0,0,1-12.287.461c-4.136-.12-10.929-.555-14.629,3.948-4.589,5.588-.632,15.381,2.563,22.78,1.2,2.743,1.786,11.655,1.162,18.166,0,0,12.886,4.5,24.216,2.153l3.888-14.586S372.818,344.188,357.061,327.32Z" transform="translate(229.88 4906.549)"/>
    <path id="Path_440" data-name="Path 440" class="cls-21" d="M355.323,293s5.469.325,7.092,8.237-6.272,7.793-6.272,7.793l-4.794-13.74Z" transform="translate(226.491 4911.544)"/>
    <path id="Path_441" data-name="Path 441" class="cls-12" d="M349.706,319.414c4.947.41,7.955-4.213,8.545-10.254.06-.658.085-1.333.085-2.017a24.866,24.866,0,0,0-.675-5.845c-2.162-9.263-15.381-5.554-15.381-5.554C331.976,300.394,341.11,318.705,349.706,319.414Z" transform="translate(228.476 4911.251)"/>
    <path id="Path_442" data-name="Path 442" class="cls-11" d="M344.908,315.57c.854,2.734,4.452,7.562,8.545,6.434a5.272,5.272,0,0,0,.333,5.631s-1.342,3.418-10.356-1.632c0,0,2.435-.2,1.769-5.2a10.638,10.638,0,0,0-1.769-4.8.854.854,0,0,0,1.478-.427Z" transform="translate(227.643 4908.259)"/>
    <path id="Path_443" data-name="Path 443" class="cls-21" d="M352.725,295.389c-1.282,4.477-3.008,10.835-7.374,13.287a3.725,3.725,0,0,1-2.025.632c-.667-.137-.6-.666-1.119-1.136a1.154,1.154,0,0,0-1.324-.231,1.376,1.376,0,0,0-.538,1.188,3.161,3.161,0,0,0,1.538,2.726,7.938,7.938,0,0,1,1.23.709,2.5,2.5,0,0,1,.735,1.615,4.324,4.324,0,0,1-2.136,4.127.538.538,0,0,1-.3.094.573.573,0,0,1-.325-.188l-1.94-1.786a16.056,16.056,0,0,1-2.5-2.666,8.109,8.109,0,0,1-1.393-4.495c0-.726.282-1.461.273-2.153a10.6,10.6,0,0,0-.718-2.675,9.545,9.545,0,0,1-.666-3.461c.162-2.324,2.085-4.17,4.17-5.2,3.3-1.632,7.1-1.82,10.784-1.854a5.46,5.46,0,0,1,2.162.291C351.879,294.483,352.144,295.175,352.725,295.389Z" transform="translate(228.995 4911.411)"/>
    <path id="Path_444" data-name="Path 444" class="cls-12" d="M342.946,357.31l-3.777,8.3s-8.152-10.126-11.211-21.063c-2.709-9.673,2.085-12.1,2.085-12.1,3.666-1.342,6.161,3.879,9.758,14.441C341.784,352.7,342.946,357.31,342.946,357.31Z" transform="translate(230.015 4905.834)"/>
    <path id="Path_445" data-name="Path 445" class="cls-12" d="M341.22,369.069s-.145-6.742,3.144-8.083,26.344-4.956,26.344-4.956l2.17,2.5S350.235,371.573,341.22,369.069Z" transform="translate(227.965 4902.372)"/>
    <path id="Path_446" data-name="Path 446" class="cls-20" d="M325.977,341.935a21.123,21.123,0,0,0,2.854,13.219,10.579,10.579,0,0,0,2.111,2.683,9.674,9.674,0,0,0,3.495,1.777,32.735,32.735,0,0,0,9.869,1.034c5.921,0,11.826-.385,17.73-.735a5.392,5.392,0,0,0,2.307-.478,5.46,5.46,0,0,0,1.709-1.794,1.708,1.708,0,0,0,.35-.743,1.6,1.6,0,0,0-.239-.854l-1.923-3.973a1.307,1.307,0,0,0-1.965-.718,86.714,86.714,0,0,1-14.714,2.521,3.076,3.076,0,0,1-1.624-.171,2.718,2.718,0,0,1-.855-.855,20.3,20.3,0,0,1-2.666-6.426c-1.307-4.495-2.768-9.126-5.272-13.125-.991-1.581-2.606-3.418-4.657-2.563-1.846.752-3.324,3.016-4.272,4.674A17.945,17.945,0,0,0,325.977,341.935Z" transform="translate(228.494 4906.085)"/>
    <path id="Path_447" data-name="Path 447" class="cls-2" d="M391.707,338.488h48.15a3.016,3.016,0,0,0,2.957-2.692l3.23-36.5a2.427,2.427,0,0,0-2.47-2.683h-48.15a3.008,3.008,0,0,0-2.948,2.683l-3.238,36.5a2.435,2.435,0,0,0,2.469,2.692Z" transform="translate(220.979 4911.019)"/>
    <path id="Path_448" data-name="Path 448" class="cls-4" d="M393.887,338.488h48.15a3.008,3.008,0,0,0,2.948-2.692l3.238-36.5a2.427,2.427,0,0,0-2.469-2.683H397.6a3.016,3.016,0,0,0-2.957,2.683l-3.23,36.5a2.427,2.427,0,0,0,2.469,2.692Z" transform="translate(220.662 4911.019)"/>
    <path id="Path_449" data-name="Path 449" class="cls-2" d="M0,0H13.979V22.926a6.99,6.99,0,0,1-6.99,6.99h0A6.99,6.99,0,0,1,0,22.926V0Z" transform="translate(651.215 5264.067) rotate(180)"/>
    <path id="Path_450" data-name="Path 450" class="cls-4" d="M.017,0H13.979V22.926a6.99,6.99,0,0,1-6.99,6.99h0A6.99,6.99,0,0,1,0,22.926V0Z" transform="translate(654.479 5264.067) rotate(180)"/>
    <path id="Path_451" data-name="Path 451" class="cls-13" d="M384.952,392.1l-.282-.291c1.119,1.256,1.871,2.162,2.1,2.435C386.165,393.51,385.55,392.827,384.952,392.1Z" transform="translate(221.642 4897.165)"/>
    <path id="Path_452" data-name="Path 452" class="cls-2" d="M333.249,391.241c.675,3.939,3.35,7.306,6.614,9.6a37.7,37.7,0,0,0,10.912,4.794c2.256.692,3.657,3.58,5.7,4.785a5.127,5.127,0,0,1,1.871,1.564c.743,1.2.367,2.76,0,4.119q-2.563,9.006-5.2,18.012c-.854,2.991-1.709,6.152-.914,9.143s3.973,5.588,6.921,4.6l17.252-27.873s2.837-11.2-3.119-20.738c-2.563-4.11-22.7-21.063-22.7-21.063-5.127-.752-10.39-1.094-15.381-1.384C334.642,381.662,332.429,386.421,333.249,391.241Z" transform="translate(229.151 4899.35)"/>
    <path id="Path_453" data-name="Path 453" class="cls-15" d="M353.55,378.192s20.508,16.722,22.7,21.063c6.033,12.108,3.119,20.738,3.119,20.738l15.1,24.267c3.495.077,8.177-.854,8.357-4.358a6.921,6.921,0,0,0-.684-2.837q-5.691-14.159-11.365-28.318c-2.256-5.622-4.58-11.348-8.177-16.167l-.316-.419h0l-.043-.06c-.231-.273-.983-1.179-2.1-2.435h0c-3.264-3.657-9.647-10.185-15.543-12.817,0,0-6.836,1.888-10.963,1.384Z" transform="translate(226.17 4899.342)"/>
    <path id="Path_454" data-name="Path 454" class="cls-12" d="M364.024,464.466c1.341,1.239,3.136,2.486,3.076,4.272a.855.855,0,0,1-.145.513.991.991,0,0,1-.7.291c-4.144.461-8-2.068-11.219-4.717a4.538,4.538,0,0,1-1.846-2.47,5.059,5.059,0,0,1,.854-3.016,29.427,29.427,0,0,0,1.863-4.819c-.145.5,1.94,2.247,2.29,2.563A14.811,14.811,0,0,1,360.615,459a23.317,23.317,0,0,1,1.136,2.521A12.049,12.049,0,0,0,364.024,464.466Z" transform="translate(226.224 4888.039)"/>
    <path id="Path_455" data-name="Path 455" class="cls-12" d="M414.316,456.421c1.453.513,3.144.795,4.067,2.025a1.341,1.341,0,0,1,.308.778c0,.76-.855,1.179-1.632,1.333-2.991.607-6.075.171-9.092-.256a2.563,2.563,0,0,1-1.119-.35,2.486,2.486,0,0,1-.786-1.35l-1.2-3.674a.59.59,0,0,1,0-.342.573.573,0,0,1,.239-.256,16.23,16.23,0,0,1,2.563-1.478c1.222-.547,1.307-.521,2.128.444a10.748,10.748,0,0,0,4.52,3.127Z" transform="translate(218.707 4888.336)"/>
    <path id="Path_456" data-name="Path 456" class="cls-12" d="M377.843,355.4c2.384-.376,5.059-.684,6.99.769a9.031,9.031,0,0,1,2.2,2.82,1.794,1.794,0,0,1-1.3,3.144c-2.2.53-4.563,1.034-6.665.205-1.555-.607-2.82-1.9-4.443-2.281a2.2,2.2,0,0,1-.786-.273,1.324,1.324,0,0,1-.444-.718C372.426,355.815,375.69,355.739,377.843,355.4Z" transform="translate(223.308 4902.51)"/>
    <path id="Path_457" data-name="Path 457" class="cls-2" d="M408.319,463.789a.974.974,0,0,0,.367.419,1.111,1.111,0,0,0,.743,0,20.368,20.368,0,0,1,4.084-.137,54.588,54.588,0,0,0,8.246-.76c1.2-.171,2.521-.427,3.221-1.41a.854.854,0,0,0,.162-.393.914.914,0,0,0-.248-.564,10.09,10.09,0,0,0-4.554-3.11,5.847,5.847,0,0,0-2.076-.453,2.487,2.487,0,0,0-1.9.855c-.487.632-.555,1.529-1.119,2.094a3,3,0,0,1-2.273.607,19.272,19.272,0,0,1-2.811-.325,6.521,6.521,0,0,0-2.435-.436C406.157,460.584,407.866,462.977,408.319,463.789Z" transform="translate(218.381 4887.623)"/>
    <path id="Path_458" data-name="Path 458" class="cls-2" d="M352,465.585a1.077,1.077,0,0,0,.085.632,1.3,1.3,0,0,0,.7.479,22.672,22.672,0,0,1,3.956,2.469,64.084,64.084,0,0,0,8.314,4.529c1.239.6,2.657,1.2,3.948.709a.974.974,0,0,0,.4-.265,1.008,1.008,0,0,0,.128-.692,11.476,11.476,0,0,0-2.341-5.853,6.573,6.573,0,0,0-1.709-1.709,2.811,2.811,0,0,0-2.333-.41c-.854.282-1.5,1.094-2.393,1.273a3.358,3.358,0,0,1-2.563-.854,20.51,20.51,0,0,1-2.461-2.093c-.581-.572-1.248-1.709-2.034-1.957C352,461.108,352.057,464.526,352,465.585Z" transform="translate(226.399 4886.988)"/>
    <path id="Path_459" data-name="Path 459" class="cls-4" d="M52.26,373.323v80.723a2.6,2.6,0,0,0,2.29,2.811H89.712A2.6,2.6,0,0,0,92,454.046V373.323a.547.547,0,0,1,.479-.59h272.81a.547.547,0,0,1,.478.59v70.52a12.717,12.717,0,0,0,1.2.573l.607.2V373.323a3.289,3.289,0,0,0-.051-.59h35.7a.547.547,0,0,1,.479.59v80.723a.555.555,0,0,1-.479.6h-35.17a.555.555,0,0,1-.479-.6v-2.068a4.068,4.068,0,0,1-1.811.094v1.974a2.6,2.6,0,0,0,2.29,2.811h35.17a2.6,2.6,0,0,0,2.29-2.811V373.323a2.586,2.586,0,0,0-2.29-2.8H54.6A2.594,2.594,0,0,0,52.26,373.323Zm1.8,0a.547.547,0,0,1,.487-.59H90.242a3.29,3.29,0,0,0-.051.59v80.723a.555.555,0,0,1-.479.6H54.55a.555.555,0,0,1-.487-.6Z" transform="translate(270.014 4900.263)"/>
    <path id="Path_460" data-name="Path 460" class="cls-22" d="M52.26,373.323v80.723a2.6,2.6,0,0,0,2.29,2.811H89.712A2.6,2.6,0,0,0,92,454.046V373.323a.547.547,0,0,1,.479-.59h272.81a.547.547,0,0,1,.478.59v70.52a12.717,12.717,0,0,0,1.2.573l.607.2V373.323a3.289,3.289,0,0,0-.051-.59h35.7a.547.547,0,0,1,.479.59v80.723a.555.555,0,0,1-.479.6h-35.17a.555.555,0,0,1-.479-.6v-2.068a4.068,4.068,0,0,1-1.811.094v1.974a2.6,2.6,0,0,0,2.29,2.811h35.17a2.6,2.6,0,0,0,2.29-2.811V373.323a2.586,2.586,0,0,0-2.29-2.8H54.6A2.594,2.594,0,0,0,52.26,373.323Zm1.8,0a.547.547,0,0,1,.487-.59H90.242a3.29,3.29,0,0,0-.051.59v80.723a.555.555,0,0,1-.479.6H54.55a.555.555,0,0,1-.487-.6Z" transform="translate(270.014 4900.263)"/>
    <path id="Path_461" data-name="Path 461" class="cls-4" d="M54.55,456.855H89.712A2.6,2.6,0,0,0,92,454.044V373.321a.547.547,0,0,1,.479-.59H403.23a.547.547,0,0,1,.487.59v80.723a.547.547,0,0,1-.487.59,1.136,1.136,0,0,0,0,2.222,2.6,2.6,0,0,0,2.29-2.811V373.321a2.6,2.6,0,0,0-2.29-2.811H92.48a2.6,2.6,0,0,0-2.29,2.811v80.723a.547.547,0,0,1-.479.59H54.55a.547.547,0,0,1-.487-.59V373.321a.547.547,0,0,1,.487-.59,1.136,1.136,0,0,0,0-2.222,2.6,2.6,0,0,0-2.29,2.811v80.723A2.6,2.6,0,0,0,54.55,456.855Z" transform="translate(270.014 4900.265)"/>
    <path id="Path_462" data-name="Path 462" class="cls-23" d="M54.55,456.855H89.712A2.6,2.6,0,0,0,92,454.044V373.321a.547.547,0,0,1,.479-.59H403.23a.547.547,0,0,1,.487.59v80.723a.547.547,0,0,1-.487.59,1.136,1.136,0,0,0,0,2.222,2.6,2.6,0,0,0,2.29-2.811V373.321a2.6,2.6,0,0,0-2.29-2.811H92.48a2.6,2.6,0,0,0-2.29,2.811v80.723a.547.547,0,0,1-.479.59H54.55a.547.547,0,0,1-.487-.59V373.321a.547.547,0,0,1,.487-.59,1.136,1.136,0,0,0,0-2.222,2.6,2.6,0,0,0-2.29,2.811v80.723A2.6,2.6,0,0,0,54.55,456.855Z" transform="translate(270.014 4900.265)"/>
    <path id="Path_463" data-name="Path 463" class="cls-4" d="M2.546,0H319.072V4.213H0V2.546A2.563,2.563,0,0,1,2.546,0Z" transform="translate(677.943 5270.749) rotate(180)"/>
    <path id="Path_464" data-name="Path 464" class="cls-4" d="M0,0H36.452a2.563,2.563,0,0,1,2.563,2.563V5.272H0V.017Z" transform="translate(358.863 5270.75) rotate(180)"/>
    <path id="Path_465" data-name="Path 465" class="cls-2" d="M89.13,362.89h326.1a.735.735,0,0,1,.641.795v2.341a.735.735,0,0,1-.641.795H89.13Z" transform="translate(264.649 4901.374)"/>
    <path id="Path_466" data-name="Path 466" class="cls-2" d="M47.171,362.89h42.3a.735.735,0,0,1,.641.795v2.341a.735.735,0,0,1-.641.795h-42.3a.854.854,0,0,1-.752-.923v-2.059a.855.855,0,0,1,.752-.948Z" transform="translate(270.865 4901.374)"/>
    <path id="Path_467" data-name="Path 467" class="cls-24" d="M47.171,362.89h42.3a.735.735,0,0,1,.641.795v2.341a.735.735,0,0,1-.641.795h-42.3a.854.854,0,0,1-.752-.923v-2.059a.855.855,0,0,1,.752-.948Z" transform="translate(270.865 4901.374)"/>
    <path id="Path_468" data-name="Path 468" class="cls-21" d="M359.884,302.829a1.291,1.291,0,0,1-.111.393.855.855,0,0,1-1.034.29,2.5,2.5,0,0,1-.906-.735.709.709,0,0,1-.444.76,1.708,1.708,0,0,1-.948.051,6.084,6.084,0,0,1-2.051-.735,1.615,1.615,0,0,1-2.854.923l-.436.854c-.4-.205-.854,0-1.316-.051a1.923,1.923,0,0,1-1.564-1.94,6.639,6.639,0,0,1,.683-2.615,23.358,23.358,0,0,0,1.256-4.426,3.417,3.417,0,0,1,.453-1.393,2.333,2.333,0,0,1,1.239-.795c2.29-.675,4.93.854,6.374,2.563a9.553,9.553,0,0,1,1.658,6.853Z" transform="translate(226.946 4911.508)"/>
    <rect id="Rectangle_284" data-name="Rectangle 284" class="cls-25" width="8.323" height="47.466" transform="translate(679.661 5124.949)"/>
    <rect id="Rectangle_285" data-name="Rectangle 285" class="cls-2" width="8.323" height="27.976" transform="translate(691.324 5144.439)"/>
    <rect id="Rectangle_286" data-name="Rectangle 286" class="cls-2" width="8.323" height="19.251" transform="translate(702.979 5153.172)"/>
    <rect id="Rectangle_287" data-name="Rectangle 287" class="cls-2" width="8.323" height="34.034" transform="translate(714.635 5138.381)"/>
    <rect id="Rectangle_288" data-name="Rectangle 288" class="cls-2" width="8.323" height="42.485" transform="translate(726.29 5129.931)"/>
    <rect id="Rectangle_289" data-name="Rectangle 289" class="cls-2" width="8.323" height="47.466" transform="translate(737.945 5124.949)"/>
    <path id="Path_392" data-name="Path 392" class="cls-26" d="M639.584,455.7l34.854,2.692a9.741,9.741,0,0,1,4.734,1.2c2.2,1.47,2.811,4.589,2.016,7.109a13.76,13.76,0,0,1-4.768,6.2c-12.646,10.331-30.437,10.724-46.766,10.621l-77.04-.47c-2.974,0-6.05-.051-8.75-1.29s-4.939-4.008-4.571-6.955c.333-2.657,2.563-4.64,4.862-6.067,6.665-4.153,14.595-5.682,22.328-7.075q17.585-3.17,35.247-5.9" transform="translate(199.147 4887.867)"/>
    <g id="Group_8" data-name="Group 8" transform="translate(762.443 5156.194)">
      <path id="Path_277" data-name="Path 277" class="cls-2" d="M22.25,118.394l1.767,86.314H35.724l3.369-68.615,7.345,68.615,13.419,2.237,3.092-91.394Z" transform="translate(26.11 -11.259)"/>
      <path id="Path_278" data-name="Path 278" class="cls-27" d="M22.25,118.394l1.767,86.314H35.724l3.369-68.615,7.345,68.615,13.419,2.237,3.092-91.394Z" transform="translate(26.11 -11.259)"/>
      <path id="Path_279" data-name="Path 279" class="cls-2" d="M71.863,121.456a320.13,320.13,0,0,0,17.45,28.523,12.784,12.784,0,0,0,9.443,4.363,15.575,15.575,0,0,0,4.335-.663c4.169-1.022,8.283-2.236,12.425-3.59a5.517,5.517,0,0,0,.994-.5h0c2.761-2.016,3.369-7.566,3.976-10.768.331-1.767,1.96-8.78-1.049-9.305-1.519-.276-6.489,4.142-7.9,5a99.817,99.817,0,0,1-9.112,4.887,2.209,2.209,0,0,1-1.242.331,2.292,2.292,0,0,1-1.187-.8A109.647,109.647,0,0,1,84.233,114.47c-1.215.525-2.4,1.1-3.59,1.712q-2.485,1.3-4.887,2.761l-.5.276A16.446,16.446,0,0,0,71.863,121.456Z" transform="translate(-61.607 -93.234)"/>
      <path id="Path_280" data-name="Path 280" class="cls-28" d="M72.942,118.444a320.141,320.141,0,0,0,17.45,28.523,12.784,12.784,0,0,0,9.443,4.363,15.573,15.573,0,0,0,4.335-.663c4.169-1.022,8.283-2.236,12.425-3.59a6.977,6.977,0,0,0,1.022-.5c.221,0,.8-2.154.884-2.43a19.057,19.057,0,0,0,.635-2.761,20.461,20.461,0,0,0,0-5.522c0-.635-.166-1.1-.746-.607s-.359.525-.607.745-.856.607-1.27.911c-1.16.828-2.319,1.657-3.562,2.43a32.693,32.693,0,0,1-7.593,3.313,14.717,14.717,0,0,1-5.522.8,8.284,8.284,0,0,1-6.516-4.832c-.966-1.491-1.905-3.037-2.761-4.584a29.624,29.624,0,0,0-3.037-4.39c-2.43-2.927-4.832-5.854-7.262-8.753a38.933,38.933,0,0,0-4.087-4.722A23.441,23.441,0,0,0,72.942,118.444Z" transform="translate(-62.687 -90.222)"/>
      <path id="Path_281" data-name="Path 281" class="cls-29" d="M22.25,203.355V123.336l11.1-7.786-3.755,89.158Z" transform="translate(55.709 -11.259)"/>
      <path id="Path_282" data-name="Path 282" class="cls-2" d="M93.321,117.92a98.891,98.891,0,0,1,9.112,5.163c6.268,4,5.136,5.854,3.976,12.784a276.116,276.116,0,0,0-3.672,44.758,39.54,39.54,0,0,1-.745,10.824,30.621,30.621,0,0,0-2.319,6.461c-9.664,1.325-31.753,6.3-38.352-3.617s5.053-43.24,2.927-58.205,17.312-16.567,17.312-16.567Z" transform="translate(-12.932 -87.158)"/>
      <path id="Path_283" data-name="Path 283" class="cls-30" d="M102.086,148.877l-2.237-12.536a3.562,3.562,0,0,0-3.2-2.761L72.569,131.7a2.4,2.4,0,0,0-2.513,2.761l9.277,41.776a2.4,2.4,0,0,0,2.319,1.85h22.089a2.375,2.375,0,0,0,2.347-2.761Z" transform="translate(-41.439 -62.892)"/>
      <path id="Path_284" data-name="Path 284" class="cls-31" d="M62.981,153.958l17.506,11.818,2.761-3.672a64.859,64.859,0,0,0,2.347-18.693c-.414-9.416,0-6.047,0-6.047L60.965,152.937Z" transform="translate(4.1 -53.947)"/>
      <path id="Path_285" data-name="Path 285" class="cls-32" d="M65.507,120.581a17.834,17.834,0,0,0,.166,2.982,18.2,18.2,0,0,0,2.4,5.826,4.473,4.473,0,0,0,1.243,1.6,4.915,4.915,0,0,0,3.617.3,1.8,1.8,0,0,1,.856,0c.69.276.773,1.215.745,1.96l-.193,3.424a2.126,2.126,0,0,0,.221,1.381,2.237,2.237,0,0,0,.911.58,7.345,7.345,0,0,0,7.4-1.684,5.3,5.3,0,0,0,1.16-1.546,6.765,6.765,0,0,0,.414-1.795c.414-3.286,0-6.6.3-9.913A31.448,31.448,0,0,0,85,115.418a9.056,9.056,0,0,0-5.3-6.682,13.529,13.529,0,0,0-8.67.193A40.607,40.607,0,0,0,67,110.282a2.761,2.761,0,0,0-1.574,1.16c-.525,1.049,0,2.568,0,3.7C65.534,117.019,65.507,118.841,65.507,120.581Z" transform="translate(-7.124 -104.426)"/>
      <path id="Path_286" data-name="Path 286" d="M65.423,109.432c-.3.663-.745,1.242-1.077,1.905a2.761,2.761,0,0,0-.359,2.1,3.065,3.065,0,0,0,1.049,1.408,11.928,11.928,0,0,0,8.283,2.071,15.274,15.274,0,0,1,2.513,0,3.507,3.507,0,0,1,2.209,1.077,8.035,8.035,0,0,1,1.077,3.728v.221h0c.939,0,1.822-.966,2.761-.607a1.408,1.408,0,0,1,.69,1.187,2.982,2.982,0,0,1-.248,1.684,1.684,1.684,0,0,0-.193.663,1.3,1.3,0,0,0,0,.442l.58,1.629a2.457,2.457,0,0,0,1.049,1.491,2.43,2.43,0,0,0,2.209-.414,3.4,3.4,0,0,0,1.215-1.022,3.258,3.258,0,0,0,.442-1.16,54.752,54.752,0,0,0,.966-12.4,7.041,7.041,0,0,0-.387-2.761,6.461,6.461,0,0,0-4.86-3.065,52.1,52.1,0,0,0-11.045-.8,16.012,16.012,0,0,0-3.451.221,5.522,5.522,0,0,0-2.954,1.684" transform="translate(-7.068 -106.779)"/>
      <path id="Path_288" data-name="Path 288" class="cls-4" d="M76.443,117.35s2.761,1.878,2.761,3.921S64.6,164.207,64.6,164.207s-.331-39.153,0-40.975a30.1,30.1,0,0,1,1.96-5.136S72.163,122.292,76.443,117.35Z" transform="translate(0.881 -88.162)"/>
      <path id="Path_289" data-name="Path 289" class="cls-33" d="M35.215,89.69l.994,3.175-1.657,1.353-.773,22.227-5.771,16.4-.138-16.677,4.942-22.034-1.795-3.12,2.375-1.325Z" transform="translate(37.333 -56.802)"/>
      <path id="Path_290" data-name="Path 290" class="cls-2" d="M55.514,172.947a37.658,37.658,0,0,0,5.8,5.881l1.325,1.049a3.259,3.259,0,0,0,1.712.8,2.956,2.956,0,0,0,1.27-.3q12.674-4.915,24.85-11.045c3.369-1.74,7.1-4,7.814-7.731a12.452,12.452,0,0,0,0-3.921,112.987,112.987,0,0,0-7.345-27.612c-1.022-2.485-2.292-7.289-4.942-8.919h-.3l-.387-.193c-3.589-1.3-6.71,2.292-7.7,5.329a24.408,24.408,0,0,0,.414,13.419,83.193,83.193,0,0,1,3.065,13.2,3.535,3.535,0,0,1-.166,1.85,3.893,3.893,0,0,1-1.381,1.381Z" transform="translate(6.32 -82.295)"/>
      <path id="Path_291" data-name="Path 291" class="cls-33" d="M93.274,177.421l-.635,6.351-4,.746-1.795-1.574-3.065,2.43H71.765S68.7,180.1,75.354,178.3l6.627-1.795Z" transform="translate(-31.44 16.028)"/>
      <path id="Path_292" data-name="Path 292" class="cls-33" d="M84.764,177.421l-.635,6.351-4,.746-1.795-1.574-3.037,2.43H63.255s-3.037-5.274,3.589-7.069L73.5,176.51Z" transform="translate(0.54 16.028)"/>
      <path id="Path_293" data-name="Path 293" class="cls-34" d="M40.057,125.773l-5.384-4.363L30.89,193.476l5.8.911Z" transform="translate(25.146 -0.938)"/>
      <path id="Path_294" data-name="Path 294" class="cls-35" d="M55.554,178.654l1.325,1.049a3.258,3.258,0,0,0,1.712.8,2.954,2.954,0,0,0,1.27-.3q12.674-4.915,24.85-11.045c3.369-1.74,7.1-4,7.814-7.731a12.452,12.452,0,0,0,0-3.921,112.985,112.985,0,0,0-7.345-27.612c-1.022-2.485-2.292-7.289-4.942-8.919h-.3l-.387-.193a8.063,8.063,0,0,0-7.7,5.329s12.784,26.176,12.232,30.124-27.391,16.76-27.391,16.76Z" transform="translate(11.968 -82.122)"/>
      <path id="Path_295" data-name="Path 295" class="cls-32" d="M70.517,141.8a4.749,4.749,0,0,0-1.905.939,1.905,1.905,0,0,0-.635,1.933,6.38,6.38,0,0,0,.745,1.16c.331.607.387,1.381.718,2.016a4.335,4.335,0,0,0,2.761,1.933,9.885,9.885,0,0,0,9.692-.883c1.878-1.629,5.522-8.284,1.491-9.25a16.177,16.177,0,0,0-5.246.552A46.616,46.616,0,0,0,70.517,141.8Z" transform="translate(-14.703 -48.941)"/>
      <path id="Path_311" data-name="Path 311" class="cls-4" d="M90.011,134.957l-.635-2.1a1.022,1.022,0,0,0-.856-.718L75.791,131.2a.635.635,0,0,0-.663.856l.773,2.292a1.215,1.215,0,0,0,1.077.828l12.26.746a.745.745,0,0,0,.773-.966Z" transform="translate(-39.332 -63.772)"/>
      <path id="Path_312" data-name="Path 312" class="cls-32" d="M87.247,115.906a9.636,9.636,0,0,0,4,3.866,34.652,34.652,0,0,0,4.887,1.85,8.283,8.283,0,0,1,4.307,2.761l.193.249q2.4-1.436,4.887-2.761c-.221-.442-.635-.966-.8-1.3-.359-.8-.635-1.629-.966-2.43a15.269,15.269,0,0,0-5.743-6.792c-.193,0-.442-.249-.635,0a.47.47,0,0,0,0,.387,6.847,6.847,0,0,0,.939,3.341l-10-3.589a1.353,1.353,0,0,0-.8-.138,1.187,1.187,0,0,0-.69.718A4.694,4.694,0,0,0,87.247,115.906Z" transform="translate(-86.6 -98.923)"/>
    </g>
  </g>
</svg>
