<svg id="challenging_men" data-name="challenging men" xmlns="http://www.w3.org/2000/svg" xmlns:xlink="http://www.w3.org/1999/xlink" width="360.486" height="352.707" viewBox="0 0 360.486 352.707">
  <defs>
    <style>
      .cls-1 {
        fill: #eaebeb;
        opacity: 0.997;
      }

      .cls-1, .cls-2 {
        isolation: isolate;
      }

      .cls-2, .cls-3 {
        fill: #707070;
      }

      .cls-2 {
        opacity: 0.18;
      }

      .cls-4 {
        fill: #212741;
      }

      .cls-5 {
        fill: #282328;
      }

      .cls-6 {
        fill: #fff;
      }

      .cls-13, .cls-7 {
        fill: #020202;
      }

      .cls-7 {
        opacity: 0.19;
      }

      .cls-8 {
        fill: #e0a194;
      }

      .cls-9 {
        fill: #ffbbab;
      }

      .cls-10 {
        fill: url(#linear-gradient);
      }

      .cls-11 {
        fill: #473f47;
      }

      .cls-12 {
        fill: #e0ac9f;
      }

      .cls-13 {
        opacity: 0.146;
      }
    </style>
    <linearGradient id="linear-gradient" x1="1.039" y1="-0.029" x2="-0.062" y2="1.014" gradientUnits="objectBoundingBox">
      <stop offset="0.01"/>
      <stop offset="0.13" stop-opacity="0.69"/>
      <stop offset="0.25" stop-opacity="0.322"/>
      <stop offset="1" stop-opacity="0"/>
    </linearGradient>
  </defs>
  <path id="Path_637" data-name="Path 637" class="cls-1" d="M321.57,30.219c25.986,30.781,21.736,86.666,41.4,124.627,7.412,14.333,18.074,25.729,23.964,41.154,6.26,16.433,6.434,35.62,5.619,53.926-.706,16.036-2.119,32.327-7.064,47.044-9.053,26.878-29.2,45.412-50.809,53.628s-44.636,7.1-66.948,3.534-44.44-9.707-66.883-11.438c-16.194-1.249-32.442-.213-48.614,1.419-17.291,1.7-34.93,3.988-51.8-1.277-22.149-6.9-41.3-26.878-53.08-52.422s-16.3-56.069-14.6-85.743c.913-16.291,3.706-32.64,9.781-46.944,9.162-21.7,25-37.039,40.462-51.372q17.737-16.433,35.767-32.313c21.03-18.534,39.362-46.363,63.1-58.1C207.374,3.327,230.507,3.026,257.058,5.07,279.74,6.858,302.322,7.428,321.57,30.219Z" transform="translate(-32.41 -4.123)"/>
  <g id="Group_25" data-name="Group 25" transform="translate(77.961 10.513)">
    <path id="Path_640" data-name="Path 640" class="cls-2" d="M124.25,214.815a31.334,31.334,0,0,0-11.183,3.207,12.332,12.332,0,0,0-6.556,9.125c-.426,4.7,2.838,9.1,6.911,11.438s8.87,3.051,13.524,3.718l33.463,4.754c6.769.965,13.538,1.93,20.364,2.455a42.261,42.261,0,0,0,8.784,0,98.569,98.569,0,0,0,9.622-2.271c10.658-2.526,21.8-1.419,32.739-1.7a19.953,19.953,0,0,0,7.819-1.419,7.55,7.55,0,0,0,4.6-6.06c.3-6.031-7.777-11.722-13.212-12.233-2.625-.241-5.222,0-7.862-.5-4.428-.837-8.784-2.3-13.155-3.392a272.749,272.749,0,0,0-54.82-8.6,169.411,169.411,0,0,0-31.036,1.476Z" transform="translate(-78.34 72.784)"/>
    <path id="Path_642" data-name="Path 642" class="cls-3" d="M153.42,230.277s-1.829,4.414.416,6.994,25.489,16.682,41.119,5.323-21.2-12.8-21.2-12.8Z" transform="translate(-58.958 79.749)"/>
    <path id="Path_669" data-name="Path 669" class="cls-4" d="M0,1.872,1.3,14.919,9.53,16.45l3.687-3.233,6.3,4.992H44.189s6.3-10.835-7.374-14.522L23.2,0Z" transform="translate(94.564 299.428) rotate(7)"/>
    <path id="Path_646" data-name="Path 646" class="cls-5" d="M179.614,125.848c1.064,3.888.568,8.969.7,12.772.255,6.939.284,13.879.326,20.8V273.805l-22.589,3.964c-2.427-24.48-6.247-102.053-9.724-114.882-3.619-13.3-8.855-23.87-6.9-38.316,2.115-15.61,12.389-18.888,24.991-11.027,3.69,2.313,9.735,5.889,12.105,9.693a10.43,10.43,0,0,1,1.093,2.611Z" transform="translate(-63.869 29.305)"/>
    <path id="Path_648" data-name="Path 648" class="cls-6" d="M203.809,97a143.885,143.885,0,0,0-2.938,20.421c-.951,11.353-2.838,22.706-4.726,33.974-10.828,1.958-21.869.823-32.782-1.135q-5.7-1.022-11.353-2.228c-1.277-.255-2.413-.922-3.676-1.263-6.258-1.731-7.99-32.64-8.316-42.361q-.468-13.808.156-27.644c.312-6.684,1.022-13.893,5.52-18.817,5.975-6.571,17.327-10.729,25.9-12.077a28.851,28.851,0,0,1,8.415-.255,35.761,35.761,0,0,1,11.268,4.158c4.186,2.2,7.9,4.073,9.934,8.316A57.12,57.12,0,0,1,205.54,73.46C206.618,81.337,205.526,89.284,203.809,97Z" transform="translate(-64.365 2.477)"/>
    <path id="Path_649" data-name="Path 649" class="cls-7" d="M163.3,137.871q-5.7-1.022-11.353-2.228c-1.277-.255-2.413-.922-3.676-1.263-6.258-1.731-7.99-32.64-8.316-42.361L155.57,74.99S150.022,125.127,163.3,137.871Z" transform="translate(-64.305 14.869)"/>
    <path id="Path_652" data-name="Path 652" class="cls-8" d="M169.281,42.486h-.7a.738.738,0,0,0-.525,0,.809.809,0,0,0-.241.568,42.088,42.088,0,0,0-.341,7.564h0s-7.181-2.029-6.712-10.927a42.147,42.147,0,0,0,8.515,2.739Z" transform="translate(-55.594 0.074)"/>
    <rect id="Rectangle_321" data-name="Rectangle 321" class="cls-6" width="27.488" height="64.698" rx="9.68" transform="translate(75.859 58.014) rotate(11.24)"/>
    <path id="Path_656" data-name="Path 656" class="cls-6" d="M146.637,85.871l-31.221-.681-2.086,16.6s37.209,12.2,44.929,5.875,9.224-10.629,9.224-10.629S164.12,84.111,146.637,85.871Z" transform="translate(-75.466 19.144)"/>
    <path id="Path_657" data-name="Path 657" class="cls-9" d="M109.143,98.763a12.205,12.205,0,0,0,3.207.6c1.419.128,2.966.2,4.442.213a16.618,16.618,0,0,0,4.967-.511,6.84,6.84,0,0,0,3.974-2.838,1.561,1.561,0,0,0,.255-.823c0-.922-1.249-1.206-2.185-1.206H110.477c-1.306,0-3.888-.241-4.342,1.5C105.723,97.131,107.994,98.351,109.143,98.763Z" transform="translate(-78.503 22.913)"/>
    <rect id="Rectangle_322" data-name="Rectangle 322" class="cls-3" width="61.519" height="4.598" rx="1.62" transform="translate(11.936 114.112)"/>
    <path id="Path_659" data-name="Path 659" class="cls-3" d="M183.009,224.919s-1.852,4.523.421,7.167,25.815,17.094,41.645,5.454-21.386-13.12-21.386-13.12Z" transform="translate(-46.561 77.498)"/>
    <path id="Path_664" data-name="Path 664" class="cls-3" d="M147.646,101.363,135.569,68.837a3.335,3.335,0,0,0-2.952-2.129L88.1,64.31l12.346,39.735,43.993,1.816a3.335,3.335,0,0,0,3.207-4.5Z" transform="translate(-86.041 10.393)"/>
    <path id="Path_665" data-name="Path 665" class="cls-10" d="M147.561,101.25,135.286,68.127a2.1,2.1,0,0,0-1.845-1.419L88.1,64.31l12.346,39.735,43.794,1.816a3.434,3.434,0,0,0,3.321-4.612Z" transform="translate(-86.041 10.393)"/>
    <path id="Path_666" data-name="Path 666" class="cls-3" d="M145.331,101.938,132.928,68.5a2.923,2.923,0,0,0-2.554-1.859L89.73,64.473a2.838,2.838,0,0,0-2.923,3.761l10.5,33.8a2.923,2.923,0,0,0,2.611,2.044l42.574,1.76a2.838,2.838,0,0,0,2.838-3.9Z" transform="translate(-86.649 10.457)"/>
    <path id="Path_650" data-name="Path 650" class="cls-9" d="M179.114,48.223a6.187,6.187,0,0,1-3.974,1.859,19.868,19.868,0,0,1-3.789,0h-.7a.738.738,0,0,0-.525,0,.809.809,0,0,0-.241.568,42.09,42.09,0,0,0-.341,7.564h0l.085,1.419a2.526,2.526,0,0,1-.156,1.419,2.341,2.341,0,0,1-1.561.965,11.353,11.353,0,0,1-3.434.5,15.312,15.312,0,0,1-6.9-2.625,70.259,70.259,0,0,0-.341-12.928c-.653-5.535-1.958-11.1-1.22-16.618a10.87,10.87,0,0,1,2.427-5.96c2.058-2.185,5.293-2.838,8.288-2.739a20.818,20.818,0,0,1,11.2,3.349,4.371,4.371,0,0,1,1.589,3.378c.383,2.185.667,4.4.852,6.613.213,2.512.3,5.038.27,7.578a8.515,8.515,0,0,1-1.533,5.662Z" transform="translate(-57.664 -7.493)"/>
    <path id="Path_651" data-name="Path 651" class="cls-11" d="M180.159,30.019a24.522,24.522,0,0,1-2.838.539,17.54,17.54,0,0,0-5.676.681c-3.775,1.419-5.492,6.23-4.343,10.09-1.093.355-1.235-1.589-2.044-2.4s-2.725.2-2.838,1.547a8.316,8.316,0,0,0,1.093,3.86,11.353,11.353,0,0,1,.3,7.564c-.17.582-.624,1.263-1.206,1.093s-.979-1.178-1.334-1.632c-1.22-1.575-2.058-2.952-4.257-2.412a3.6,3.6,0,0,1-2.285.071c-.71-.312-1.093-1.419-.483-1.873a7.479,7.479,0,0,1-4.8.894c-1.589-.454-2.725-2.625-1.589-3.832a4.74,4.74,0,0,1-2.214-7.28,3.292,3.292,0,0,1-1.206-4.413,7.947,7.947,0,0,1,3.8-3.25,17.03,17.03,0,0,0,4.428-2.526,3.945,3.945,0,0,1,.227-5.52,7.763,7.763,0,0,1,5.676-1.9,6.968,6.968,0,0,1,11.793-5.676c1.8-1.164,4.158-.7,6.23-.184a22.464,22.464,0,0,1,6.187,2.185,7.692,7.692,0,0,1,3.959,5.009,4.726,4.726,0,0,1-2.838,5.293,5.024,5.024,0,0,1,1.306,2.554c0,.965-.667,2.058-1.646,1.958a9.933,9.933,0,0,1-1.419-.568,4.768,4.768,0,0,0-1.987.128Z" transform="translate(-62.598 -11.669)"/>
    <g id="Group_24" data-name="Group 24" transform="matrix(1, 0.017, -0.017, 1, 94.923, 45.069)">
      <path id="Path_587" data-name="Path 587" class="cls-6" d="M4.341,0S0,2.952,0,6.165,22.965,73.672,22.965,73.672s.521-61.559,0-64.425a47.316,47.316,0,0,0-3.082-8.075S11.07,7.771,4.341,0Z" transform="translate(0 0)"/>
      <path id="Path_586" data-name="Path 586" class="cls-4" d="M1.832,0,0,5.852,3.053,8.346,4.478,49.314l10.636,30.23L15.369,48.8,6.26,8.193,9.568,2.443,5.191,0Z" transform="translate(10.289 5.817)"/>
    </g>
    <path id="Path_667" data-name="Path 667" class="cls-12" d="M98.219,117.52c-.441,1.617-.3,1.444-.763,3.079-.924,1.353-.378.773-2.091,1.949a12.518,12.518,0,0,1-3.954.649l-.612,3.634c-1.284,1.721-5.979,5.042-5.152-2.9.2-.4,1.72-3.9,1.871-4.2.327-.728.578-1.482.879-2.211a13.891,13.891,0,0,1,5.225-6.179c.176,0,.4-.226.578,0a.427.427,0,0,1,0,.352,6.229,6.229,0,0,1-.854,3.039l2.02-1.287h2.091c.224-.116.513.831.763.865C98.514,114.425,98.164,115.92,98.219,117.52Z" transform="translate(28.188 -72.491)"/>
    <path id="Path_647" data-name="Path 647" class="cls-6" d="M209.715,94.034c-.284,3.477-1.419,6.485-4.541,7.408a4.483,4.483,0,0,1-.781.2c-5.591.965-12.772-3.448-17.767-7.28a69.241,69.241,0,0,1-5.946-5.095L181.645,52l26.339,28.382A42.659,42.659,0,0,1,209.715,94.034Z" transform="translate(-47.239 5.234)"/>
    <path id="Path_312" data-name="Path 312" class="cls-9" d="M98.219,117.52c-.441,1.617-.3,1.444-.763,3.079-.924,1.353-.378.773-2.091,1.949a12.518,12.518,0,0,1-3.954.649l-.612,3.634c-1.284,1.721-5.979,5.042-5.152-2.9.2-.4,1.72-3.9,1.871-4.2.327-.728.578-1.482.879-2.211a13.891,13.891,0,0,1,5.225-6.179c.176,0,.4-.226.578,0a.427.427,0,0,1,0,.352,6.229,6.229,0,0,1-.854,3.039l2.02-1.287h2.091c.224-.116.513.831.763.865C98.514,114.425,98.164,115.92,98.219,117.52Z" transform="translate(28.188 -71.072)"/>
    <path id="Path_655" data-name="Path 655" class="cls-6" d="M9.629,15.459a67,67,0,0,0,17.842,12.6A43.325,43.325,0,0,0,44,32.12a7.514,7.514,0,0,0,2.283-.241,6.368,6.368,0,0,0,3.081-1.689A11.75,11.75,0,0,0,53.3,22.4c.133-7.422-10.785-11.523-10.785-11.523S6.506-.947,3.633.061C2.036.614,1.942,1.641.054,3.588-.84,5.476,9.629,15.459,9.629,15.459Z" transform="matrix(0.899, 0.438, -0.438, 0.899, 115.938, 53.337)"/>
    <path id="Path_658" data-name="Path 658" class="cls-13" d="M0,3.153c3.674,4.94,28.948,20.81,34.081,24.208,3.7,2.376,3.6,3.848,7.99,4.134.578.036,8.645.31,9.19.115.254.09.516.234,3.757-.231,3.55-.468,3.933-1.095,6.008-2.236l.942-1.153.644-1.176.4-1.235L62.572,21.5l-1.084-2.222-.048-.2c-2.139.966-3.881.395-8.088,2.693a16.334,16.334,0,0,1-9.778,2.072,9.933,9.933,0,0,1-2.668-.724C34.032,20.023,8.4,4.753,2.548,0A24.72,24.72,0,0,0,0,3.153Z" transform="matrix(0.899, 0.438, -0.438, 0.899, 115.586, 53.944)"/>
    <path id="Path_668" data-name="Path 668" class="cls-4" d="M0,1.872,1.3,14.919,9.53,16.45l3.687-3.233,6.3,4.992H44.189s6.3-10.835-7.374-14.522L23.2,0Z" transform="translate(137.138 292.332) rotate(7)"/>
    <path id="Path_645" data-name="Path 645" class="cls-5" d="M188.894,120.989c3.661,1.916,3.7,7.308,4.839,11.566q5.194,19.655,9.38,39.565t7.351,39.991c.525,3.392,7.636,50.033,6.43,50.345-1.8.468-23.147.624-23.161,0-.644-23.126-7.826-54.128-15.44-75.974-7.862-22.564-16.944-43.737-21.883-67.181l19.541.681c3.562.114,7.337-.1,10.856.369A6,6,0,0,1,188.894,120.989Z" transform="translate(-57.411 33.44)"/>
  </g>
</svg>
