<svg xmlns="http://www.w3.org/2000/svg" xmlns:xlink="http://www.w3.org/1999/xlink" width="630" height="522.21" viewBox="0 0 630 522.21">
  <defs>
    <style>
      .cls-1, .cls-21, .cls-3 {
        fill: #707070;
      }

      .cls-1 {
        opacity: 0.18;
      }

      .cls-1, .cls-21 {
        isolation: isolate;
      }

      .cls-2 {
        fill: #fff;
      }

      .cls-4 {
        fill: #434343;
      }

      .cls-5 {
        fill: #d7d9e1;
      }

      .cls-6 {
        fill: none;
        stroke: #fff;
        stroke-miterlimit: 10;
        stroke-width: 2.97px;
      }

      .cls-7 {
        fill: url(#linear-gradient);
      }

      .cls-8 {
        fill: url(#linear-gradient-2);
      }

      .cls-9 {
        fill: url(#linear-gradient-3);
      }

      .cls-10 {
        fill: #473f47;
      }

      .cls-11 {
        fill: url(#linear-gradient-4);
      }

      .cls-12 {
        fill: #ffbbab;
      }

      .cls-13 {
        fill: #433d3d;
      }

      .cls-14 {
        fill: #212741;
      }

      .cls-15 {
        fill: url(#linear-gradient-5);
      }

      .cls-16 {
        fill: url(#linear-gradient-6);
      }

      .cls-17 {
        opacity: 0.41;
      }

      .cls-18, .cls-21 {
        opacity: 0.5;
      }

      .cls-19 {
        fill: url(#linear-gradient-7);
      }

      .cls-20 {
        fill: #00a2e9;
      }

      .cls-22 {
        fill: url(#linear-gradient-8);
      }
    </style>
    <linearGradient id="linear-gradient" x1="41.076" y1="1.132" x2="44.62" y2="2.071" gradientUnits="objectBoundingBox">
      <stop offset="0.01"/>
      <stop offset="0.08" stop-opacity="0.69"/>
      <stop offset="0.21" stop-opacity="0.322"/>
      <stop offset="1" stop-opacity="0"/>
    </linearGradient>
    <linearGradient id="linear-gradient-2" x1="0.826" y1="2.364" x2="0.093" y2="-2.117" xlink:href="#linear-gradient"/>
    <linearGradient id="linear-gradient-3" x1="155.672" y1="1.077" x2="148.729" y2="1.818" xlink:href="#linear-gradient"/>
    <linearGradient id="linear-gradient-4" x1="64.952" y1="-0.18" x2="63.795" y2="1.92" xlink:href="#linear-gradient"/>
    <linearGradient id="linear-gradient-5" x1="182.91" y1="1.544" x2="188.708" y2="1.708" xlink:href="#linear-gradient"/>
    <linearGradient id="linear-gradient-6" x1="44.344" y1="0.138" x2="41.52" y2="1.074" xlink:href="#linear-gradient"/>
    <linearGradient id="linear-gradient-7" x1="-112.706" y1="-0.023" x2="-103.72" y2="-1.762" xlink:href="#linear-gradient"/>
    <linearGradient id="linear-gradient-8" x1="2.26" y1="1.304" x2="0.277" y2="-3.146" xlink:href="#linear-gradient"/>
  </defs>
  <g id="Group_14" data-name="Group 14" transform="translate(959 -4001.159)">
    <path id="Path_343" data-name="Path 343" class="cls-1" d="M703.893,543.105c-1.7,18.634-10.147,37.626-18.976,57.844-16.184,37.108-43.387,71.534-83.965,82.6-58.114,15.847-221.206-38.509-314.2-11.168C99.693,727.369,65.438,579.744,75.888,539.866c7.284-27.794,16.272-55.67,16.509-84.694.337-41.053-16.625-80.136-11.83-121.156,4.668-39.9,15.02-80.484,38.973-113.431,22.684-31.192,60.763-45.136,97.666-51.542A330.06,330.06,0,0,1,415.85,196.9c30.972,14.992,60.067,35.4,80.2,63.3,20.637,28.6,30.74,63.312,47.338,94.433a251.885,251.885,0,0,0,73.47,84.589c22.4,16.349,47.735,29.178,66.705,49.412C700.748,507.024,705.548,524.9,703.893,543.105Z" transform="translate(-1033.2 3836.862)"/>
    <path id="Path_344" data-name="Path 344" class="cls-1" d="M713.639,309.56V623.78a20.234,20.234,0,0,1-20.24,20.245H268.32a20.245,20.245,0,0,1-20.24-20.245V309.56a20.24,20.24,0,0,1,20.24-20.24H693.4a20.228,20.228,0,0,1,20.24,20.24Z" transform="translate(-1111.135 3780.825)"/>
    <path id="Path_345" data-name="Path 345" class="cls-2" d="M701.9,309.56V623.78a20.234,20.234,0,0,1-20.24,20.245H256.56a20.245,20.245,0,0,1-20.24-20.245V309.56a20.24,20.24,0,0,1,20.24-20.24h425.08A20.229,20.229,0,0,1,701.9,309.56Z" transform="translate(-1105.864 3780.825)"/>
    <rect id="Rectangle_225" data-name="Rectangle 225" class="cls-1" width="168.041" height="121.934" rx="14.29" transform="translate(-640.354 4122.481)"/>
    <path id="Path_346" data-name="Path 346" class="cls-2" d="M591.59,282.016l26.784-24.924,36.953,44.524,32.329-28.273,13.4,11.51,30.017-40.142,15.246,18.38V343.7H591.59Z" transform="translate(-1224.17 3891.478)"/>
    <path id="Path_347" data-name="Path 347" class="cls-3" d="M701.919,309.56v.552H236.36v-.552a20.239,20.239,0,0,1,20.217-20.24h425.08a20.228,20.228,0,0,1,20.262,20.24Z" transform="translate(-1105.882 3780.825)"/>
    <rect id="Rectangle_226" data-name="Rectangle 226" class="cls-4" width="60.967" height="198.13" transform="translate(-773.451 4278.759)"/>
    <rect id="Rectangle_227" data-name="Rectangle 227" class="cls-4" width="60.967" height="158.931" transform="translate(-712.484 4317.958)"/>
    <rect id="Rectangle_229" data-name="Rectangle 229" class="cls-4" width="60.967" height="80.539" transform="translate(-590.55 4396.355)"/>
    <rect id="Rectangle_230" data-name="Rectangle 230" class="cls-4" width="60.967" height="41.34" transform="translate(-529.583 4435.549)"/>
    <path id="Path_348" data-name="Path 348" class="cls-5" d="M299.152,327V660.914H256.56a20.245,20.245,0,0,1-20.24-20.245V327Z" transform="translate(-1105.864 3763.936)"/>
    <path id="Path_358" data-name="Path 358" class="cls-3" d="M654.776,301.705l-36.931-44.5L591.69,281.538l-1.12-1.2,27.424-25.52,36.97,44.54,32.23-28.185,13.271,11.405L730.58,242.3l15.908,19.186-1.264,1.048-14.578-17.585L700.729,284.97,687.2,273.349Z" transform="translate(-1223.713 3892.558)"/>
    <circle id="Ellipse_64" data-name="Ellipse 64" class="cls-3" cx="3.344" cy="3.344" r="3.344" transform="translate(-609.377 4145.304)"/>
    <circle id="Ellipse_65" data-name="Ellipse 65" class="cls-3" cx="3.344" cy="3.344" r="3.344" transform="translate(-635.923 4169.329)"/>
    <circle id="Ellipse_66" data-name="Ellipse 66" class="cls-3" cx="3.344" cy="3.344" r="3.344" transform="translate(-571.629 4189.524)"/>
    <circle id="Ellipse_67" data-name="Ellipse 67" class="cls-3" cx="3.344" cy="3.344" r="3.344" transform="translate(-539.857 4161.477)"/>
    <circle id="Ellipse_68" data-name="Ellipse 68" class="cls-3" cx="3.344" cy="3.344" r="3.344" transform="translate(-526.46 4172.992)"/>
    <circle id="Ellipse_69" data-name="Ellipse 69" class="cls-3" cx="3.344" cy="3.344" r="3.344" transform="translate(-496.443 4132.839)"/>
    <circle id="Ellipse_70" data-name="Ellipse 70" class="cls-3" cx="3.344" cy="3.344" r="3.344" transform="translate(-481.197 4151.225)"/>
    <rect id="Rectangle_231" data-name="Rectangle 231" class="cls-3" width="48.877" height="48.877" transform="translate(-765.141 4127.553)"/>
    <rect id="Rectangle_232" data-name="Rectangle 232" class="cls-3" width="48.877" height="48.877" transform="translate(-765.141 4201.906)"/>
    <rect id="Rectangle_233" data-name="Rectangle 233" class="cls-2" width="7.388" height="35.502" transform="translate(-758.442 4134.858)"/>
    <rect id="Rectangle_234" data-name="Rectangle 234" class="cls-2" width="7.388" height="24.058" transform="translate(-747.125 4146.303)"/>
    <rect id="Rectangle_235" data-name="Rectangle 235" class="cls-2" width="7.388" height="15.792" transform="translate(-735.582 4154.568)"/>
    <circle id="Ellipse_71" data-name="Ellipse 71" class="cls-6" cx="16.399" cy="16.399" r="16.399" transform="translate(-758.442 4211.623)"/>
    <line id="Line_41" data-name="Line 41" class="cls-6" y2="4.464" transform="translate(-742.043 4211.623)"/>
    <line id="Line_42" data-name="Line 42" class="cls-6" y2="4.464" transform="translate(-742.043 4239.952)"/>
    <line id="Line_43" data-name="Line 43" class="cls-6" x1="4.464" transform="translate(-730.113 4228.022)"/>
    <line id="Line_44" data-name="Line 44" class="cls-6" x1="4.464" transform="translate(-758.442 4228.022)"/>
    <path id="Path_359" data-name="Path 359" class="cls-6" d="M393.21,397.05v8.773l9.237,4.16" transform="translate(-1135.253 3823.197)"/>
    <rect id="Rectangle_236" data-name="Rectangle 236" class="cls-2" width="32.793" height="3.245" transform="translate(-849.2 4176.43)"/>
    <rect id="Rectangle_237" data-name="Rectangle 237" class="cls-2" width="40.413" height="4.127" transform="translate(-856.82 4166.829)"/>
    <rect id="Rectangle_238" data-name="Rectangle 238" class="cls-2" width="32.793" height="3.245" transform="translate(-849.2 4214.801)"/>
    <rect id="Rectangle_239" data-name="Rectangle 239" class="cls-2" width="40.413" height="4.127" transform="translate(-856.82 4205.2)"/>
    <rect id="Rectangle_240" data-name="Rectangle 240" class="cls-2" width="32.793" height="3.245" transform="translate(-849.2 4253.172)"/>
    <rect id="Rectangle_241" data-name="Rectangle 241" class="cls-2" width="40.413" height="4.127" transform="translate(-856.82 4243.571)"/>
    <rect id="Rectangle_242" data-name="Rectangle 242" class="cls-2" width="32.793" height="3.245" transform="translate(-849.2 4291.543)"/>
    <rect id="Rectangle_243" data-name="Rectangle 243" class="cls-2" width="40.413" height="4.127" transform="translate(-856.82 4281.943)"/>
    <g id="Group_8" data-name="Group 8" transform="translate(-710.248 4166.829)">
      <path id="Path_277" data-name="Path 277" class="cls-3" d="M52.762,117.682l-1.325,64.709H42.66l-2.525-51.44-5.506,51.44-10.06,1.677L22.25,115.55Z" transform="translate(-10.479 -37.363)"/>
      <path id="Path_278" data-name="Path 278" class="cls-7" d="M52.762,117.682l-1.325,64.709H42.66l-2.525-51.44-5.506,51.44-10.06,1.677L22.25,115.55Z" transform="translate(-10.479 -37.363)"/>
      <path id="Path_279" data-name="Path 279" class="cls-3" d="M108.869,119.707a240,240,0,0,1-13.083,21.383,9.584,9.584,0,0,1-7.079,3.271,11.675,11.675,0,0,1-3.25-.5c-3.126-.766-6.21-1.677-9.315-2.691a4.138,4.138,0,0,1-.745-.373h0c-2.07-1.511-2.525-5.672-2.981-8.073-.248-1.325-1.47-6.583.787-6.976,1.139-.207,4.865,3.105,5.92,3.747a74.828,74.828,0,0,0,6.831,3.664,1.656,1.656,0,0,0,.931.248,1.718,1.718,0,0,0,.89-.6A82.2,82.2,0,0,0,99.6,114.47c.911.393,1.8.828,2.691,1.283q1.863.973,3.664,2.07l.373.207A12.33,12.33,0,0,1,108.869,119.707Z" transform="translate(-38.02 -98.55)"/>
      <path id="Path_280" data-name="Path 280" class="cls-8" d="M107.714,117.877a240.006,240.006,0,0,1-13.083,21.383,9.584,9.584,0,0,1-7.079,3.271,11.675,11.675,0,0,1-3.25-.5c-3.126-.766-6.21-1.677-9.315-2.691a5.234,5.234,0,0,1-.766-.373c-.166,0-.6-1.615-.662-1.822a14.286,14.286,0,0,1-.476-2.07,15.34,15.34,0,0,1,0-4.14c0-.476.124-.828.559-.455s.269.393.455.559.642.455.952.683c.869.621,1.739,1.242,2.67,1.822a24.51,24.51,0,0,0,5.693,2.484,11.033,11.033,0,0,0,4.14.6,6.21,6.21,0,0,0,4.885-3.623c.725-1.118,1.428-2.277,2.07-3.436a22.21,22.21,0,0,1,2.277-3.291c1.822-2.194,3.623-4.388,5.444-6.562a29.187,29.187,0,0,1,3.064-3.54A17.574,17.574,0,0,1,107.714,117.877Z" transform="translate(-36.865 -96.72)"/>
      <path id="Path_281" data-name="Path 281" class="cls-9" d="M30.572,181.377V121.387L22.25,115.55l2.815,66.841Z" transform="translate(-10.479 -37.363)"/>
      <path id="Path_282" data-name="Path 282" class="cls-3" d="M69.763,117.92a74.145,74.145,0,0,0-6.831,3.871c-4.7,3-3.85,4.388-2.981,9.584A207,207,0,0,1,62.7,164.93a29.642,29.642,0,0,0,.559,8.115A22.958,22.958,0,0,1,65,177.889c7.245.994,23.805,4.72,28.753-2.712s-3.788-32.417-2.194-43.636-12.979-12.42-12.979-12.42Z" transform="translate(-51.493 -94.858)"/>
      <path id="Path_283" data-name="Path 283" class="cls-10" d="M73.054,144.577l1.677-9.4a2.67,2.67,0,0,1,2.4-2.07L95.182,131.7a1.8,1.8,0,0,1,1.884,2.07l-6.955,31.32a1.8,1.8,0,0,1-1.739,1.387H71.812a1.78,1.78,0,0,1-1.76-2.07Z" transform="translate(-39.983 -80.114)"/>
      <path id="Path_284" data-name="Path 284" class="cls-11" d="M77.929,149.658l-13.124,8.86-2.07-2.753a48.625,48.625,0,0,1-1.76-14.014c.311-7.059,0-4.533,0-4.533L79.44,148.892Z" transform="translate(-49.681 -74.68)"/>
      <path id="Path_285" data-name="Path 285" class="cls-12" d="M79.928,117.461A13.371,13.371,0,0,1,79.8,119.7a13.641,13.641,0,0,1-1.8,4.368,3.353,3.353,0,0,1-.932,1.2,3.685,3.685,0,0,1-2.712.228,1.346,1.346,0,0,0-.642,0c-.517.207-.58.911-.559,1.47l.145,2.567a1.594,1.594,0,0,1-.166,1.035,1.677,1.677,0,0,1-.683.435,5.506,5.506,0,0,1-5.548-1.263,3.975,3.975,0,0,1-.869-1.159,5.072,5.072,0,0,1-.311-1.346c-.311-2.463,0-4.947-.228-7.431a23.577,23.577,0,0,1-.186-6.21,6.79,6.79,0,0,1,3.974-5.009,10.143,10.143,0,0,1,6.5.145,30.441,30.441,0,0,1,3.022,1.014,2.07,2.07,0,0,1,1.18.869c.393.787,0,1.925,0,2.774C79.907,114.79,79.928,116.157,79.928,117.461Z" transform="translate(-45.159 -105.349)"/>
      <path id="Path_286" data-name="Path 286" class="cls-13" d="M81.311,108.768c.228.5.559.931.807,1.428a2.07,2.07,0,0,1,.269,1.573,2.3,2.3,0,0,1-.787,1.056,8.942,8.942,0,0,1-6.21,1.553,11.451,11.451,0,0,0-1.884,0,2.629,2.629,0,0,0-1.656.807,6.024,6.024,0,0,0-.807,2.795s0,.124,0,.166h0c-.7,0-1.366-.725-2.07-.455a1.056,1.056,0,0,0-.518.89,2.236,2.236,0,0,0,.186,1.263,1.263,1.263,0,0,1,.145.5.973.973,0,0,1,0,.331l-.435,1.221a1.842,1.842,0,0,1-.787,1.118,1.822,1.822,0,0,1-1.656-.311,2.546,2.546,0,0,1-.911-.766,2.443,2.443,0,0,1-.331-.869,41.047,41.047,0,0,1-.725-9.294,5.278,5.278,0,0,1,.29-2.07,4.844,4.844,0,0,1,3.643-2.3,39.062,39.062,0,0,1,8.28-.6,12,12,0,0,1,2.588.166,4.14,4.14,0,0,1,2.215,1.263" transform="translate(-46.522 -106.779)"/>
      <path id="Path_288" data-name="Path 288" class="cls-2" d="M66.52,117.35s-2.07,1.408-2.07,2.939S75.4,152.478,75.4,152.478s.248-29.353,0-30.719a22.564,22.564,0,0,0-1.47-3.85S69.729,121.055,66.52,117.35Z" transform="translate(-45.952 -95.468)"/>
      <path id="Path_289" data-name="Path 289" class="cls-14" d="M28.615,89.69l-.745,2.381,1.242,1.014.58,16.664,4.326,12.3.1-12.5L30.416,93.023l1.346-2.339-1.78-.994Z" transform="translate(-4.466 -65.034)"/>
      <path id="Path_290" data-name="Path 290" class="cls-3" d="M87.695,159.864a28.232,28.232,0,0,1-4.347,4.409l-.994.787a2.443,2.443,0,0,1-1.283.6,2.216,2.216,0,0,1-.952-.228q-9.5-3.685-18.63-8.28c-2.525-1.3-5.32-3-5.858-5.8a9.336,9.336,0,0,1,0-2.939,84.705,84.705,0,0,1,5.506-20.7c.766-1.863,1.718-5.465,3.705-6.686h.228l.29-.145c2.691-.973,5.03,1.718,5.775,4a18.3,18.3,0,0,1-.311,10.06,62.37,62.37,0,0,0-2.3,9.895,2.65,2.65,0,0,0,.124,1.387,2.919,2.919,0,0,0,1.035,1.035Z" transform="translate(-55.514 -91.903)"/>
      <path id="Path_291" data-name="Path 291" class="cls-14" d="M71.06,177.193l.476,4.761,3,.559,1.346-1.18,2.3,1.822h9s2.3-3.954-2.691-5.3l-4.968-1.346Z" transform="translate(-38.879 -32.165)"/>
      <path id="Path_292" data-name="Path 292" class="cls-14" d="M62.56,177.193l.476,4.761,3,.559,1.346-1.18,2.277,1.822h9.025s2.277-3.954-2.691-5.3l-4.989-1.346Z" transform="translate(-47.974 -32.165)"/>
      <path id="Path_293" data-name="Path 293" class="cls-15" d="M30.89,124.681l4.037-3.271,2.836,54.028-4.347.683Z" transform="translate(-1.234 -31.093)"/>
      <path id="Path_294" data-name="Path 294" class="cls-16" d="M83.388,164.168l-.994.787a2.443,2.443,0,0,1-1.283.6,2.215,2.215,0,0,1-.952-.228q-9.5-3.685-18.63-8.28c-2.525-1.3-5.32-3-5.858-5.8a9.336,9.336,0,0,1,0-2.939,84.7,84.7,0,0,1,5.506-20.7c.766-1.863,1.718-5.465,3.705-6.686h.228l.29-.145a6.045,6.045,0,0,1,5.775,4S61.59,144.4,62,147.359s20.535,12.565,20.535,12.565Z" transform="translate(-55.471 -91.798)"/>
      <path id="Path_295" data-name="Path 295" class="cls-12" d="M78.933,141.256a3.56,3.56,0,0,1,1.428.7,1.428,1.428,0,0,1,.476,1.449,4.782,4.782,0,0,1-.559.869c-.248.455-.29,1.035-.538,1.511a3.25,3.25,0,0,1-2.07,1.449,7.411,7.411,0,0,1-7.266-.662c-1.408-1.221-4.14-6.21-1.118-6.935a12.129,12.129,0,0,1,3.933.414A34.947,34.947,0,0,1,78.933,141.256Z" transform="translate(-42.239 -71.638)"/>
      <path id="Path_311" data-name="Path 311" class="cls-2" d="M75.113,134.017l.476-1.573a.766.766,0,0,1,.642-.538l9.543-.7a.476.476,0,0,1,.5.642l-.58,1.718a.911.911,0,0,1-.807.621l-9.191.559a.559.559,0,0,1-.58-.725Z" transform="translate(-34.569 -80.649)"/>
      <path id="Path_312" data-name="Path 312" class="cls-12" d="M100.3,114.738a7.224,7.224,0,0,1-3,2.9,25.976,25.976,0,0,1-3.664,1.387,6.21,6.21,0,0,0-3.229,2.07l-.145.186q-1.8-1.076-3.664-2.07c.166-.331.476-.725.6-.973.269-.6.476-1.221.725-1.822a11.447,11.447,0,0,1,4.306-5.092c.145,0,.331-.186.476,0a.352.352,0,0,1,0,.29,5.133,5.133,0,0,1-.7,2.5l7.493-2.691a1.014,1.014,0,0,1,.6-.1.89.89,0,0,1,.518.538A3.519,3.519,0,0,1,100.3,114.738Z" transform="translate(-22.251 -102.006)"/>
    </g>
    <g id="Group_13" data-name="Group 13" transform="translate(-633.373 4267.296)">
      <g id="Group_10" data-name="Group 10" class="cls-17" transform="translate(64.538 55.441)">
        <rect id="Rectangle_246" data-name="Rectangle 246" class="cls-3" width="16.263" height="14.185"/>
      </g>
      <rect id="Rectangle_247" data-name="Rectangle 247" class="cls-3" width="16.263" height="25.177" transform="translate(48.396 44.418)"/>
      <g id="Group_11" data-name="Group 11" class="cls-18" transform="translate(32.284 32.793)">
        <rect id="Rectangle_248" data-name="Rectangle 248" class="cls-3" width="16.263" height="36.832"/>
      </g>
      <rect id="Rectangle_249" data-name="Rectangle 249" class="cls-3" width="16.263" height="48.155" transform="translate(16.142 21.47)"/>
      <rect id="Rectangle_250" data-name="Rectangle 250" class="cls-3" width="16.263" height="59.569" transform="translate(0 10.056)"/>
      <rect id="Rectangle_251" data-name="Rectangle 251" class="cls-19" width="16.263" height="59.569" transform="translate(0 10.056)"/>
      <path id="Path_387" data-name="Path 387" class="cls-20" d="M112.317,87.146a19.907,19.907,0,0,1,1.747-8.1L102.018,72.48A33.127,33.127,0,0,0,117.075,116.9a34.6,34.6,0,0,0,6.6,2.409l2.439-13.582a19.425,19.425,0,0,1-13.793-18.582Z" transform="translate(-6.249 -53.54)"/>
      <path id="Path_388" data-name="Path 388" class="cls-21" d="M143.541,87.365a33.128,33.128,0,0,1-36.651,15.058l2.439-13.582a19.4,19.4,0,0,0,21.985-8.011Z" transform="translate(10.472 -36.743)"/>
      <path id="Path_389" data-name="Path 389" class="cls-22" d="M162.6,99.8a33.128,33.128,0,0,1-4.7,17.016l-12.046-6.6a19.468,19.468,0,0,0-32.736-21.081,15.992,15.992,0,0,0-1.325,2.439L99.75,85.011a33.128,33.128,0,0,1,63,14.666Z" transform="translate(-3.891 -66.191)"/>
    </g>
    <rect id="Rectangle_228" data-name="Rectangle 228" class="cls-4" width="60.967" height="119.732" transform="translate(-651.517 4357.156)"/>
  </g>
</svg>
